<?xml version="1.0" encoding="UTF-8" standalone="no"?>
<svg
   width="664.59998"
   height="664.59998"
   viewBox="0 0 19.938 19.937999"
   version="1.1"
   id="svg47281"
   sodipodi:docname="auto-shift.svg"
   inkscape:version="1.2.2 (b0a8486541, 2022-12-01)"
   xmlns:inkscape="http://www.inkscape.org/namespaces/inkscape"
   xmlns:sodipodi="http://sodipodi.sourceforge.net/DTD/sodipodi-0.dtd"
   xmlns="http://www.w3.org/2000/svg"
   xmlns:svg="http://www.w3.org/2000/svg"
   xmlns:rdf="http://www.w3.org/1999/02/22-rdf-syntax-ns#"
   xmlns:cc="http://creativecommons.org/ns#"
   xmlns:dc="http://purl.org/dc/elements/1.1/">
  <defs
     id="defs47285" />
  <sodipodi:namedview
     id="namedview47283"
     pagecolor="#ffffff"
     bordercolor="#111111"
     borderopacity="1"
     inkscape:showpageshadow="0"
     inkscape:pageopacity="0"
     inkscape:pagecheckerboard="1"
     inkscape:deskcolor="#d1d1d1"
     showgrid="false"
     inkscape:zoom="1"
     inkscape:cx="332"
     inkscape:cy="332"
     inkscape:current-layer="svg47281" />
  <!-- Uploaded to: SVG Repo, www.svgrepo.com, Generator: SVG Repo Mixer Tools -->
  <title
     id="title47274">ic_fluent_keyboard_shift_uppercase_24_regular</title>
  <desc
     id="desc47276">Created with Sketch.</desc>
  <g
     id="ðŸ”-System-Icons"
     stroke="none"
     stroke-width="1"
     fill="none"
     fill-rule="evenodd"
     transform="translate(-2.3849977,-2.0620061)">
    <g
       id="ic_fluent_keyboard_shift_uppercase_24_regular"
       fill="#000"
       fill-rule="nonzero"
       transform="translate(0.3)">
      <path
         d="m 16.25,20.5 c 0.414214,0 0.75,0.335786 0.75,0.75 0,0.379696 -0.282154,0.693491 -0.648229,0.743153 L 16.25,22 H 7.75 C 7.3357864,22 7,21.664214 7,21.25 7,20.870304 7.2821539,20.556509 7.6482294,20.506847 L 7.75,20.5 Z M 11.006622,2.3711846 c 0.693321,-0.4791818 1.634754,-0.393597 2.230299,0.2027544 l 0.107466,0.1177882 7.864959,9.4379498 c 0.262084,0.314502 0.405612,0.710934 0.405612,1.120323 0,0.918173 -0.70711,1.671192 -1.606472,1.744199 L 19.864958,15 H 16.999 L 17,17.25 c 0,0.867164 -0.630725,1.587014 -1.458447,1.725823 L 15.393527,18.994199 15.25,19 H 8.75 C 7.8318266,19 7.0788077,18.29289 7.0058012,17.393527 L 7,17.25 6.999,15 H 4.1350416 C 3.842621,15 3.5568107,14.926771 3.3027475,14.789414 L 3.1543203,14.699378 3.0147189,14.594387 C 2.3134835,14.010024 2.1850456,12.993275 2.6941762,12.256622 l 0.096478,-0.126945 7.8649588,-9.4379498 0.10695,-0.1171141 v 0 l 0.117114,-0.1069504 z m 1.185433,1.2808192 c -0.07366,-0.088391 -0.195408,-0.1130749 -0.295328,-0.067695 l -0.05677,0.035686 -0.03201,0.032009 -7.8649587,9.4379502 c -0.088391,0.106069 -0.07406,0.26371 0.032009,0.352101 0.029952,0.02496 0.065107,0.04239 0.1025439,0.05124 l 0.0575,0.0067 H 7.75 c 0.3796958,0 0.693491,0.282154 0.7431534,0.648229 L 8.5,14.25 v 3 c 0,0.118347 0.082233,0.217487 0.1926773,0.243397 L 8.75,17.5 h 6.5 c 0.118347,0 0.217487,-0.08223 0.243397,-0.192677 L 15.5,17.25 v -3 c 0,-0.379696 0.282154,-0.693491 0.648229,-0.743153 L 16.25,13.5 h 3.614958 c 0.138072,0 0.25,-0.111929 0.25,-0.25 0,-0.03899 -0.0091,-0.07716 -0.02628,-0.111581 l -0.03166,-0.04847 z"
         id="ðŸŽ¨-Color" />
    </g>
  </g>
  <metadata
     id="metadata47404">
    <rdf:RDF>
      <cc:Work
         rdf:about="">
        <dc:title>ic_fluent_keyboard_shift_uppercase_24_regular</dc:title>
      </cc:Work>
    </rdf:RDF>
  </metadata>
  <text
     xml:space="preserve"
     style="font-style:normal;font-variant:normal;font-weight:bold;font-stretch:normal;font-size:8px;line-height:1.25;font-family:sans-serif;-inkscape-font-specification:'sans-serif Bold';font-variant-ligatures:none;stroke-width:0.03"
     x="7.1549802"
     y="11.609337"
     id="text47437"><tspan
       sodipodi:role="line"
       id="tspan47435"
       style="font-style:normal;font-variant:normal;font-weight:bold;font-stretch:normal;font-size:8px;font-family:sans-serif;-inkscape-font-specification:'sans-serif Bold';stroke-width:0.03"
       x="7.1549802"
       y="11.609337">A</tspan></text>
</svg>
