<svg xmlns="http://www.w3.org/2000/svg" width="664.6" height="664.6" viewBox="0 0 19.938 19.938" fill="#010101"><path d="M14.165 18.438a.75.75 0 0 1 .102 1.493l-.102.007h-8.5a.75.75 0 0 1-.102-1.493l.102-.007ZM8.922.309a1.75 1.75 0 0 1 2.23.203l.107.118 7.865 9.438a1.75 1.75 0 0 1-1.2 2.864l-.144.006h-2.866l.001 2.25a1.75 1.75 0 0 1-1.458 1.726l-.148.018-.144.006h-6.5a1.75 1.75 0 0 1-1.744-1.606l-.006-.144-.001-2.25H2.05a1.75 1.75 0 0 1-.832-.21l-.149-.09-.14-.106a1.75 1.75 0 0 1-.32-2.337l.097-.127L8.57.63l.107-.117.117-.107zm1.185 1.281a.25.25 0 0 0-.295-.068l-.057.036-.032.032-7.865 9.438a.25.25 0 0 0 .135.403l.057.007h3.615a.75.75 0 0 1 .743.648l.007.102v3a.25.25 0 0 0 .193.243l.057.007h6.5a.25.25 0 0 0 .243-.193l.007-.057v-3a.75.75 0 0 1 .648-.743l.102-.007h3.615a.25.25 0 0 0 .224-.362l-.032-.048z"/><text xml:space="preserve" x="7.155" y="11.609" style="font-weight:700;font-size:8px;line-height:1.25;font-family:sans-serif;stroke-width:.03">A</text></svg>
