<?xml version="1.0" encoding="UTF-8" standalone="no"?>
<svg
   width="600"
   height="600"
   viewBox="0 0 36.000001 36"
   version="1.1"
   id="svg66294"
   sodipodi:docname="bottom.svg"
   inkscape:version="1.2.2 (b0a8486541, 2022-12-01)"
   xmlns:inkscape="http://www.inkscape.org/namespaces/inkscape"
   xmlns:sodipodi="http://sodipodi.sourceforge.net/DTD/sodipodi-0.dtd"
   xmlns="http://www.w3.org/2000/svg"
   xmlns:svg="http://www.w3.org/2000/svg"
   xmlns:rdf="http://www.w3.org/1999/02/22-rdf-syntax-ns#"
   xmlns:cc="http://creativecommons.org/ns#"
   xmlns:dc="http://purl.org/dc/elements/1.1/">
  <defs
     id="defs66298" />
  <sodipodi:namedview
     id="namedview66296"
     pagecolor="#ffffff"
     bordercolor="#111111"
     borderopacity="1"
     inkscape:showpageshadow="0"
     inkscape:pageopacity="0"
     inkscape:pagecheckerboard="1"
     inkscape:deskcolor="#d1d1d1"
     showgrid="false"
     inkscape:zoom="0.295"
     inkscape:cx="-23.728814"
     inkscape:cy="298.30508"
     inkscape:current-layer="svg66294" />
  <!-- Uploaded to: SVG Repo, www.svgrepo.com, Generator: SVG Repo Mixer Tools -->
  <title
     id="title66287">ic_fluent_arrow_download_48_regular</title>
  <desc
     id="desc66289">Created with Sketch.</desc>
  <g
     id="ðŸ”-System-Icons"
     stroke="none"
     stroke-width="1"
     fill="none"
     fill-rule="evenodd"
     transform="translate(-5.96,-6)">
    <g
       id="ic_fluent_arrow_download_48_regular"
       fill="#010101"
       fill-rule="nonzero">
      <path
         d="m 12.25,39.5 h 23.5 c 0.690356,0 1.25,0.559644 1.25,1.25 0,0.647209 -0.491875,1.179534 -1.122195,1.243546 L 35.75,42 H 12.25 C 11.559644,42 11,41.440356 11,40.75 c 0,-0.647209 0.491875,-1.179534 1.122195,-1.243546 L 12.25,39.5 h 23.5 z M 23.622195,6.0064536 23.75,6 c 0.647209,0 1.179534,0.4918747 1.243546,1.1221948 L 25,7.25 v 24.29 l 5.646679,-5.645709 c 0.488156,-0.488155 1.279612,-0.488155 1.767767,0 0.488156,0.488155 0.488156,1.279612 0,1.767767 l -7.778174,7.778175 c -0.488156,0.488155 -1.279612,0.488155 -1.767767,0 L 15.09033,27.662058 c -0.488155,-0.488155 -0.488155,-1.279612 0,-1.767767 0.488155,-0.488155 1.279612,-0.488155 1.767767,0 L 22.5,31.536 V 7.25 c 0,-0.6472087 0.491875,-1.1795339 1.122195,-1.2435464 L 23.75,6 Z"
         id="ðŸŽ¨-Color" />
    </g>
  </g>
  <metadata
     id="metadata66417">
    <rdf:RDF>
      <cc:Work
         rdf:about="">
        <dc:title>ic_fluent_arrow_download_48_regular</dc:title>
      </cc:Work>
    </rdf:RDF>
  </metadata>
</svg>
