<svg xmlns="http://www.w3.org/2000/svg" width="716.667" height="716.667" fill="none" viewBox="0 0 21.5 21.5"><path stroke="#010101" stroke-width="1.5" d="M2.214 19.286C3.68 20.75 6.036 20.75 10.75 20.75s7.071 0 8.536-1.464c1.464-1.465 1.464-3.822 1.464-8.536s0-7.071-1.464-8.536C17.82.75 15.464.75 10.75.75s-7.071 0-8.536 1.464C.75 3.68.75 6.036.75 10.75s0 7.071 1.464 8.536z"/><path stroke="#010101" stroke-linecap="round" stroke-width="1.5" d="M16.75 7.25h-4m4 6h-4m4 3h-4m-4-9h-2m0 0h-2m2 0v-2m0 2v2m1.5 4-1.5 1.5m0 0-1.5 1.5m1.5-1.5-1.5-1.5m1.5 1.5 1.5 1.5"/></svg>