<?xml version="1.0" encoding="UTF-8" standalone="no"?>
<!-- Uploaded to: SVG Repo, www.svgrepo.com, Generator: SVG Repo Mixer Tools -->

<svg
   width="716.66736"
   height="716.66736"
   viewBox="0 0 21.500021 21.500021"
   fill="none"
   version="1.1"
   id="svg94209"
   sodipodi:docname="calculator.svg"
   inkscape:version="1.2.2 (b0a8486541, 2022-12-01)"
   xmlns:inkscape="http://www.inkscape.org/namespaces/inkscape"
   xmlns:sodipodi="http://sodipodi.sourceforge.net/DTD/sodipodi-0.dtd"
   xmlns="http://www.w3.org/2000/svg"
   xmlns:svg="http://www.w3.org/2000/svg">
  <defs
     id="defs94213" />
  <sodipodi:namedview
     id="namedview94211"
     pagecolor="#ffffff"
     bordercolor="#111111"
     borderopacity="1"
     inkscape:showpageshadow="0"
     inkscape:pageopacity="0"
     inkscape:pagecheckerboard="1"
     inkscape:deskcolor="#d1d1d1"
     showgrid="false"
     inkscape:zoom="0.295"
     inkscape:cx="118.64407"
     inkscape:cy="359.32203"
     inkscape:current-layer="svg94209" />
  <path
     d="m 2.2144802,19.28551 c 1.46446,1.4645 3.82148,1.4645 8.5355298,1.4645 4.714,0 7.0711,0 8.5355,-1.4645 1.4645,-1.4644 1.4645,-3.8215 1.4645,-8.5355 0,-4.7140498 0,-7.0710698 -1.4645,-8.5355298 -1.4644,-1.46446999 -3.8215,-1.46446999 -8.5355,-1.46446999 -4.7140498,0 -7.0710698,0 -8.5355298,1.46446999 -1.46446999,1.46446 -1.46446999,3.82148 -1.46446999,8.5355298 0,4.714 0,7.0711 1.46446999,8.5355 z"
     stroke="#1c274d"
     stroke-width="1.5"
     id="path94205" />
  <path
     d="m 16.75001,7.2499902 h -4 m 4,6.0000198 h -4 m 4,3 h -4 M 8.7500102,7.2500002 h -2 m 0,0 h -2 m 2,0 v -2.00001 m 0,2.00001 v 2.00001 m 1.5,3.9999998 -1.49999,1.5 m 0,0 -1.5,1.5 m 1.5,-1.5 -1.50001,-1.5 m 1.50001,1.5 1.49998,1.5"
     stroke="#1c274d"
     stroke-width="1.5"
     stroke-linecap="round"
     id="path94207" />
</svg>
