<?xml version="1.0" encoding="UTF-8" standalone="no"?>
<!-- Uploaded to: SVG Repo, www.svgrepo.com, Generator: SVG Repo Mixer Tools -->

<svg
   width="635.20593"
   height="635"
   viewBox="0 0 19.056177 19.05"
   fill="none"
   version="1.1"
   id="svg69419"
   sodipodi:docname="camera-off.svg"
   inkscape:version="1.2.2 (b0a8486541, 2022-12-01)"
   xmlns:inkscape="http://www.inkscape.org/namespaces/inkscape"
   xmlns:sodipodi="http://sodipodi.sourceforge.net/DTD/sodipodi-0.dtd"
   xmlns="http://www.w3.org/2000/svg"
   xmlns:svg="http://www.w3.org/2000/svg">
  <defs
     id="defs69423" />
  <sodipodi:namedview
     id="namedview69421"
     pagecolor="#ffffff"
     bordercolor="#111111"
     borderopacity="1"
     inkscape:showpageshadow="0"
     inkscape:pageopacity="0"
     inkscape:pagecheckerboard="1"
     inkscape:deskcolor="#d1d1d1"
     showgrid="false"
     inkscape:zoom="0.834386"
     inkscape:cx="63.519762"
     inkscape:cy="269.65937"
     inkscape:current-layer="svg69419" />
  <path
     d="m 9.1756165,3.525 h 1.1499995 c 1.1201,0 1.6802,0 2.108,0.21799 0.3763,0.19174 0.6823,0.4977 0.874,0.87403 0.218,0.42782 0.218,0.98788 0.218,2.10798 v 0.8 l 2.5768,-1.54608 c 0.7931,-0.47589 1.1897,-0.71383 1.516,-0.68341 0.2845,0.02652 0.5441,0.17349 0.7132,0.40382 0.194,0.26415 0.194,0.72662 0.194,1.65157 v 4.3482 c 0,0.5049 0,0.8721 -0.0316,1.1443 M 0.52561648,0.52499998 3.5256665,3.52505 M 18.525616,18.525 13.507516,13.5069 M 3.5256665,3.52505 c -0.98838,7.7e-4 -1.50646,0.01332 -1.90803,0.21794 -0.37633,0.19174 -0.68229002,0.4977 -0.87403002,0.87403 -0.21799,0.42782 -0.21799,0.98787 -0.21799,2.10798 v 5.6 c 0,1.1201 0,1.6802 0.21799,2.108 0.19174,0.3763 0.49770002,0.6823 0.87403002,0.874 0.42782,0.218 0.98787,0.218 2.10798,0.218 h 6.5999995 c 1.1201,0 1.6802,0 2.108,-0.218 0.3763,-0.1917 0.6823,-0.4977 0.874,-0.874 0.1229,-0.2412 0.1765,-0.5243 0.1999,-0.9261 M 3.5256665,3.52505 13.507516,13.5069"
     stroke="#010101"
     stroke-width="2"
     stroke-linecap="round"
     stroke-linejoin="round"
     id="path69417"
     style="fill:none;stroke-width:1.05;stroke-dasharray:none" />
</svg>
