<svg xmlns="http://www.w3.org/2000/svg" width="664.6" height="664.6" viewBox="0 0 19.938 19.938"><title>ic_fluent_keyboard_shift_uppercase_24_regular</title><path fill="#010101" d="M14.225 18.438a.75.75 0 0 1 .102 1.493l-.102.007h-8.5a.75.75 0 0 1-.102-1.493l.102-.007ZM8.982.309a1.75 1.75 0 0 1 2.23.203l.107.118 7.865 9.438a1.75 1.75 0 0 1-1.2 2.864l-.144.006h-2.866l.001 2.25a1.75 1.75 0 0 1-1.458 1.726l-.148.018-.144.006h-6.5a1.75 1.75 0 0 1-1.744-1.606l-.006-.144-.001-2.25H2.11a1.75 1.75 0 0 1-.832-.21l-.149-.09-.14-.106a1.75 1.75 0 0 1-.32-2.337l.097-.127L8.63.63l.107-.117.117-.107zm1.185 1.281a.25.25 0 0 0-.295-.068l-.057.036-.032.032-7.865 9.438a.25.25 0 0 0 .135.403l.057.007h3.615a.75.75 0 0 1 .743.648l.007.102v3a.25.25 0 0 0 .193.243l.057.007h6.5a.25.25 0 0 0 .243-.193l.007-.057v-3a.75.75 0 0 1 .648-.743l.102-.007h3.615a.25.25 0 0 0 .224-.362l-.032-.048z"/><path d="M12.274 8.061c0-1.537-1.032-2.788-2.299-2.788S7.676 6.523 7.676 8.06h-.583v4.434h5.763V8.06Zm-3.655 0c0-.906.609-1.644 1.356-1.644s1.356.738 1.356 1.644zm1.664 2.093v1.275H9.66v-1.276a.7.7 0 0 1-.215-.514c0-.353.236-.639.526-.639s.527.287.527.64a.7.7 0 0 1-.215.514z" style="fill:none;stroke:#010101;stroke-width:.490499;stroke-linejoin:round;stroke-dasharray:none;stroke-opacity:1"/></svg>
