<svg xmlns="http://www.w3.org/2000/svg" width="664.6" height="664.6" fill="#010101" viewBox="0 0 19.938 19.938"><path d="M14.225 18.438a.75.75 0 0 1 .102 1.493l-.102.007h-8.5a.75.75 0 0 1-.102-1.493l.102-.007ZM8.982.309a1.75 1.75 0 0 1 2.23.203l.107.118 7.865 9.438a1.75 1.75 0 0 1-1.2 2.864l-.144.006h-2.866l.001 2.25a1.75 1.75 0 0 1-1.458 1.726l-.148.018-.144.006h-6.5a1.75 1.75 0 0 1-1.744-1.606l-.006-.144-.001-2.25H2.11a1.75 1.75 0 0 1-.832-.21l-.149-.09-.14-.106a1.75 1.75 0 0 1-.32-2.337l.097-.127L8.63.63l.107-.117.117-.107zm1.185 1.281a.25.25 0 0 0-.295-.068l-.057.036-.032.032-7.865 9.438a.25.25 0 0 0 .135.403l.057.007h3.615a.75.75 0 0 1 .743.648l.007.102v3a.25.25 0 0 0 .193.243l.057.007h6.5a.25.25 0 0 0 .243-.193l.007-.057v-3a.75.75 0 0 1 .648-.743l.102-.007h3.615a.25.25 0 0 0 .224-.362l-.032-.048z"/><path d="m12.76 7.236-1.048 4.113h-.991l-.559-2.16q-.017-.063-.046-.19-.023-.127-.058-.277l-.051-.282-.035-.213q-.006.075-.034.213l-.052.282L9.828 9l-.046.196-.553 2.154h-.99L7.19 7.236h.858l.524 2.247q.035.132.075.334.04.201.075.403t.052.34q.017-.144.052-.34.034-.202.069-.386.04-.19.07-.294l.598-2.304h.824l.599 2.304q.029.098.063.288.04.19.075.392t.052.34q.017-.144.052-.34.034-.202.075-.403l.075-.334.524-2.247z" aria-label="W" style="font-weight:700;font-size:5.76px;line-height:1.25;stroke-width:.03"/></svg>