<svg xmlns="http://www.w3.org/2000/svg" width="560.117" height="560.117" fill="none" viewBox="0 0 14.003 14.003"><path fill="#010101" d="M0 2.5A2.5 2.5 0 0 1 2.5 0h9A2.5 2.5 0 0 1 14 2.5V3h.003v1H14v7.5a2.5 2.5 0 0 1-2.5 2.5h-9A2.5 2.5 0 0 1 0 11.5ZM13 3v-.5A1.5 1.5 0 0 0 11.5 1h-9A1.5 1.5 0 0 0 1 2.5V3ZM1 4v7.5A1.5 1.5 0 0 0 2.5 13h9a1.5 1.5 0 0 0 1.5-1.5V4Z"/><text xml:space="preserve" x="5.075" y="10.323" style="font-weight:700;font-size:6.66667px;line-height:1.25;font-family:sans-serif;fill:#010101;stroke-width:.025">x</text></svg>
