<?xml version="1.0" encoding="UTF-8" standalone="no"?>
<!-- Uploaded to: SVG Repo, www.svgrepo.com, Generator: SVG Repo Mixer Tools -->

<svg
   width="560.117"
   height="560.117"
   viewBox="0 0 14.002925 14.002925"
   fill="none"
   version="1.1"
   id="svg65122"
   sodipodi:docname="close-window.svg"
   inkscape:version="1.2.2 (b0a8486541, 2022-12-01)"
   xmlns:inkscape="http://www.inkscape.org/namespaces/inkscape"
   xmlns:sodipodi="http://sodipodi.sourceforge.net/DTD/sodipodi-0.dtd"
   xmlns="http://www.w3.org/2000/svg"
   xmlns:svg="http://www.w3.org/2000/svg">
  <defs
     id="defs65126" />
  <sodipodi:namedview
     id="namedview65124"
     pagecolor="#ffffff"
     bordercolor="#111111"
     borderopacity="1"
     inkscape:showpageshadow="0"
     inkscape:pageopacity="0"
     inkscape:pagecheckerboard="1"
     inkscape:deskcolor="#d1d1d1"
     showgrid="false"
     inkscape:zoom="1.668772"
     inkscape:cx="303.21698"
     inkscape:cy="302.61773"
     inkscape:current-layer="svg65122" />
  <path
     d="M 0,2.5 C 0,1.11929 1.11929,0 2.5,0 h 9.00003 c 1.3807,0 2.5,1.11929 2.5,2.5 V 3 h 0.0029 v 1 h -0.0029 v 7.5 c 0,1.3807 -1.1193,2.5 -2.5,2.5 H 2.5 C 1.11929,14 0,12.8807 0,11.5 Z M 13.00003,3 V 2.5 c 0,-0.82843 -0.6716,-1.5 -1.5,-1.5 H 2.5 C 1.67157,1 1,1.67157 1,2.5 V 3 Z M 1,4 v 7.5 C 1,12.3284 1.67157,13 2.5,13 h 9.00003 c 0.8284,0 1.5,-0.6716 1.5,-1.5 V 4 Z"
     fill="#212121"
     id="path65120" />
  <text
     xml:space="preserve"
     style="font-style:normal;font-variant:normal;font-weight:bold;font-stretch:normal;font-size:6.66667px;line-height:1.25;font-family:sans-serif;-inkscape-font-specification:'sans-serif Bold';font-variant-ligatures:none;fill:#010101;stroke-width:0.025"
     x="5.0747976"
     y="10.323477"
     id="text65247"><tspan
       sodipodi:role="line"
       id="tspan65245"
       style="font-style:normal;font-variant:normal;font-weight:bold;font-stretch:normal;font-size:6.66667px;font-family:sans-serif;-inkscape-font-specification:'sans-serif Bold';fill:#010101;stroke-width:0.025"
       x="5.0747976"
       y="10.323477">x</tspan></text>
</svg>
