<svg xmlns="http://www.w3.org/2000/svg" width="205.183" height="205.183"><g aria-label="qwerty" style="font-size:64px;line-height:1.25;font-variant-ligatures:none"><path d="M24.768 190.527q0-1.152.064-2.688t.256-2.624h-.384q-1.472 2.176-4.096 3.712-2.56 1.536-6.656 1.536-6.208 0-10.112-4.416Q0 181.567 0 172.735t3.904-13.312q3.968-4.544 10.24-4.544 4.032 0 6.592 1.536t4.096 3.776h.256l.832-4.672h4.48v49.664h-5.632zm-9.728-4.736q5.312 0 7.488-2.88 2.24-2.944 2.304-8.96v-1.152q0-6.528-2.176-9.856-2.176-3.392-7.744-3.392-4.608 0-6.848 3.648-2.24 3.584-2.24 9.664t2.24 9.536q2.304 3.392 6.976 3.392M63.424 170.431q-.832-2.624-1.472-5.12-.576-2.56-.896-3.968H60.8q-.256 1.408-.832 3.968-.576 2.496-1.472 5.184l-6.144 19.264h-6.4l-9.408-34.304h5.824l4.736 18.304q.704 2.752 1.344 5.568t.896 4.672h.256q.256-1.088.576-2.688.384-1.6.832-3.328.448-1.792.896-3.2l6.08-19.328h6.144l5.888 19.328q.704 2.176 1.344 4.736.704 2.56.96 4.416h.256q.192-1.6.832-4.416.704-2.816 1.472-5.76l4.8-18.304h5.76l-9.536 34.304h-6.592zM104.832 154.879q4.416 0 7.552 1.92 3.2 1.92 4.864 5.44 1.728 3.456 1.728 8.128v3.392H95.488q.128 5.824 2.944 8.896 2.88 3.008 8 3.008 3.264 0 5.76-.576 2.56-.64 5.248-1.792v4.928q-2.624 1.152-5.184 1.664-2.56.576-6.08.576-4.864 0-8.64-1.984-3.712-1.984-5.824-5.888-2.048-3.968-2.048-9.664 0-5.632 1.856-9.664 1.92-4.032 5.312-6.208 3.456-2.176 8-2.176m-.064 4.608q-4.032 0-6.4 2.624-2.304 2.56-2.752 7.168h17.472q-.064-4.352-2.048-7.04-1.984-2.752-6.272-2.752M143.68 154.879q.96 0 2.048.128 1.152.064 1.984.256l-.704 5.184q-.832-.192-1.856-.32-.96-.128-1.856-.128-2.624 0-4.928 1.472-2.304 1.408-3.712 4.032-1.344 2.56-1.344 6.016v18.304h-5.632v-34.304h4.608l.64 6.272h.256q1.664-2.816 4.288-4.864t6.208-2.048M165.568 185.855q1.28 0 2.624-.192 1.344-.256 2.176-.512v4.288q-.896.448-2.56.704-1.664.32-3.2.32-2.688 0-4.992-.896-2.24-.96-3.648-3.264t-1.408-6.464v-19.968h-4.864v-2.688l4.928-2.24 2.24-7.296h3.328v7.872h9.92v4.352h-9.92v19.84q0 3.136 1.472 4.672 1.536 1.472 3.904 1.472M171.84 155.519h6.016l7.424 19.52q.96 2.56 1.728 4.928.768 2.304 1.152 4.416h.256q.384-1.6 1.216-4.16.832-2.624 1.728-5.248l6.976-19.456h6.08l-14.784 39.04q-1.792 4.864-4.672 7.744-2.816 2.88-7.808 2.88-1.536 0-2.688-.192-1.152-.128-1.984-.32v-4.48q.704.128 1.664.256 1.024.128 2.112.128 2.944 0 4.736-1.664 1.856-1.664 2.88-4.416l1.792-4.544z" style="fill:#010101"/></g><text xml:space="preserve" x="33.846" y="201.141" style="font-style:normal;font-variant:normal;font-weight:400;font-stretch:normal;font-size:280.224px;line-height:1.25;font-family:sans-serif;font-variant-ligatures:none;stroke-width:1.4595" transform="scale(1.11407 .8976)"><tspan x="33.846" y="201.141" fill="#010101" style="font-style:normal;font-variant:normal;font-weight:400;font-stretch:normal;font-size:280.224px;font-family:sans-serif;stroke-width:1.4595">^</tspan></text></svg>