<?xml version="1.0" encoding="UTF-8" standalone="no"?>
<!-- Uploaded to: SVG Repo, www.svgrepo.com, Generator: SVG Repo Mixer Tools -->

<svg
   width="652.60901"
   height="652.60901"
   viewBox="0 0 417.66977 417.66977"
   version="1.1"
   id="svg93980"
   xmlns="http://www.w3.org/2000/svg"
   xmlns:svg="http://www.w3.org/2000/svg"
   xmlns:rdf="http://www.w3.org/1999/02/22-rdf-syntax-ns#"
   xmlns:cc="http://creativecommons.org/ns#"
   xmlns:dc="http://purl.org/dc/elements/1.1/">
  <defs
     id="defs93984" />
  <title
     id="title93968">ionicons-v5-d</title>
  <g
     id="g94120"
     transform="matrix(-1,0,0,1,417.66968,0)">
    <path
       d="m 104.85968,340.22 a 28.79,28.79 0 0 0 21.68,9.86 h 246.26 a 29,29 0 0 0 28.87,-28.87 V 90.95 a 29,29 0 0 0 -28.87,-28.87 h -246.26 a 28.84,28.84 0 0 0 -21.67,9.84 v 0 L 15.999681,206.08 104.85968,340.19 Z"
       style="fill:none;stroke:#010101;stroke-width:32px;stroke-linejoin:round"
       id="path93970" />
    <line
       x1="306.33969"
       y1="142.40999"
       x2="176.32968"
       y2="272.41995"
       style="fill:none;stroke:#010101;stroke-width:32px;stroke-linecap:round;stroke-linejoin:round"
       id="line93972" />
    <line
       x1="306.33969"
       y1="272.41995"
       x2="176.32968"
       y2="142.40999"
       style="fill:none;stroke:#010101;stroke-width:32px;stroke-linecap:round;stroke-linejoin:round"
       id="line93974" />
    <line
       x1="306.33969"
       y1="142.40999"
       x2="176.32968"
       y2="272.41995"
       style="fill:none;stroke:#010101;stroke-width:32px;stroke-linecap:round;stroke-linejoin:round"
       id="line93976" />
    <line
       x1="306.33969"
       y1="272.41995"
       x2="176.32968"
       y2="142.40999"
       style="fill:none;stroke:#010101;stroke-width:32px;stroke-linecap:round;stroke-linejoin:round"
       id="line93978" />
  </g>
  <metadata
     id="metadata94103">
    <rdf:RDF>
      <cc:Work
         rdf:about="">
        <dc:title>ionicons-v5-d</dc:title>
      </cc:Work>
    </rdf:RDF>
  </metadata>
</svg>
