<svg xmlns="http://www.w3.org/2000/svg" width="666.66" height="666.66" viewBox="0 0 20 20"><title>ic_fluent_arrow_import_24_regular</title><path fill="#010101" d="M19.25 2.58a.75.75 0 0 1 .743.648L20 3.33v13.004a.75.75 0 0 1-1.493.102l-.007-.102V3.33a.75.75 0 0 1 .75-.75m-8.603 1.804.073-.084a.75.75 0 0 1 .976-.073l.084.073 4.997 4.997a.75.75 0 0 1 .073.976l-.073.085-4.997 5.003a.75.75 0 0 1-1.133-.976l.072-.084 3.711-3.717H.75a.75.75 0 0 1-.743-.647L0 9.835a.75.75 0 0 1 .648-.743l.102-.007 13.693-.001-3.724-3.724a.75.75 0 0 1-.072-.976l.073-.084z"/></svg>