<?xml version="1.0" encoding="UTF-8" standalone="no"?>
<svg width="1800mm" height="750mm" viewBox="0 0 18000 7500" version="1.1" xmlns="http://www.w3.org/2000/svg" xmlns:svg="http://www.w3.org/2000/svg">
<style>.keycap{fill:none;stroke:#010101;stroke-width:10}</style>
<rect class="keycap" width="1490" height="990" x="5" y="205" ry="100"/>
<rect class="keycap" width="1290" height="790" x="105" y="305" ry="100"/>


<rect class="keycap" width="990" height="990" x="1505" y="205" ry="100"/>
<rect class="keycap" width="790" height="790" x="1605" y="305" ry="100"/>


<rect class="keycap" width="990" height="990" x="2505" y="105" ry="100"/>
<rect class="keycap" width="790" height="790" x="2605" y="205" ry="100"/>


<rect class="keycap" width="990" height="990" x="3505" y="5" ry="100"/>
<rect class="keycap" width="790" height="790" x="3605" y="105" ry="100"/>


<rect class="keycap" width="990" height="990" x="4505" y="105" ry="100"/>
<rect class="keycap" width="790" height="790" x="4605" y="205" ry="100"/>


<rect class="keycap" width="990" height="990" x="5505" y="205" ry="100"/>
<rect class="keycap" width="790" height="790" x="5605" y="305" ry="100"/>


<rect class="keycap" width="990" height="990" x="6505" y="205" ry="100"/>
<rect class="keycap" width="790" height="790" x="6605" y="305" ry="100"/>


<rect class="keycap" width="990" height="990" x="10505" y="205" ry="100"/>
<rect class="keycap" width="790" height="790" x="10605" y="305" ry="100"/>


<rect class="keycap" width="990" height="990" x="11505" y="205" ry="100"/>
<rect class="keycap" width="790" height="790" x="11605" y="305" ry="100"/>


<rect class="keycap" width="990" height="990" x="12505" y="105" ry="100"/>
<rect class="keycap" width="790" height="790" x="12605" y="205" ry="100"/>


<rect class="keycap" width="990" height="990" x="13505" y="5" ry="100"/>
<rect class="keycap" width="790" height="790" x="13605" y="105" ry="100"/>


<rect class="keycap" width="990" height="990" x="14505" y="105" ry="100"/>
<rect class="keycap" width="790" height="790" x="14605" y="205" ry="100"/>


<rect class="keycap" width="990" height="990" x="15505" y="205" ry="100"/>
<rect class="keycap" width="790" height="790" x="15605" y="305" ry="100"/>


<rect class="keycap" width="1490" height="990" x="16505" y="205" ry="100"/>
<rect class="keycap" width="1290" height="790" x="16605" y="305" ry="100"/>


<rect class="keycap" width="1490" height="990" x="5" y="1205" ry="100"/>
<rect class="keycap" width="1290" height="790" x="105" y="1305" ry="100"/>


<rect class="keycap" width="990" height="990" x="1505" y="1205" ry="100"/>
<rect class="keycap" width="790" height="790" x="1605" y="1305" ry="100"/>


<rect class="keycap" width="990" height="990" x="2505" y="1105" ry="100"/>
<rect class="keycap" width="790" height="790" x="2605" y="1205" ry="100"/>


<rect class="keycap" width="990" height="990" x="3505" y="1005" ry="100"/>
<rect class="keycap" width="790" height="790" x="3605" y="1105" ry="100"/>


<rect class="keycap" width="990" height="990" x="4505" y="1105" ry="100"/>
<rect class="keycap" width="790" height="790" x="4605" y="1205" ry="100"/>


<rect class="keycap" width="990" height="990" x="5505" y="1205" ry="100"/>
<rect class="keycap" width="790" height="790" x="5605" y="1305" ry="100"/>


<rect class="keycap" width="990" height="1490" x="6505" y="1205" ry="100"/>
<rect class="keycap" width="790" height="1290" x="6605" y="1305" ry="100"/>


<rect class="keycap" width="990" height="1490" x="10505" y="1205" ry="100"/>
<rect class="keycap" width="790" height="1290" x="10605" y="1305" ry="100"/>


<rect class="keycap" width="990" height="990" x="11505" y="1205" ry="100"/>
<rect class="keycap" width="790" height="790" x="11605" y="1305" ry="100"/>


<rect class="keycap" width="990" height="990" x="12505" y="1105" ry="100"/>
<rect class="keycap" width="790" height="790" x="12605" y="1205" ry="100"/>


<rect class="keycap" width="990" height="990" x="13505" y="1005" ry="100"/>
<rect class="keycap" width="790" height="790" x="13605" y="1105" ry="100"/>


<rect class="keycap" width="990" height="990" x="14505" y="1105" ry="100"/>
<rect class="keycap" width="790" height="790" x="14605" y="1205" ry="100"/>


<rect class="keycap" width="990" height="990" x="15505" y="1205" ry="100"/>
<rect class="keycap" width="790" height="790" x="15605" y="1305" ry="100"/>


<rect class="keycap" width="1490" height="990" x="16505" y="1205" ry="100"/>
<rect class="keycap" width="1290" height="790" x="16605" y="1305" ry="100"/>


<rect class="keycap" width="1490" height="990" x="5" y="2205" ry="100"/>
<rect class="keycap" width="1290" height="790" x="105" y="2305" ry="100"/>


<rect class="keycap" width="990" height="990" x="1505" y="2205" ry="100"/>
<rect class="keycap" width="790" height="790" x="1605" y="2305" ry="100"/>


<rect class="keycap" width="990" height="990" x="2505" y="2105" ry="100"/>
<rect class="keycap" width="790" height="790" x="2605" y="2205" ry="100"/>


<rect class="keycap" width="990" height="990" x="3505" y="2005" ry="100"/>
<rect class="keycap" width="790" height="790" x="3605" y="2105" ry="100"/>


<rect class="keycap" width="990" height="990" x="4505" y="2105" ry="100"/>
<rect class="keycap" width="790" height="790" x="4605" y="2205" ry="100"/>


<rect class="keycap" width="990" height="990" x="5505" y="2205" ry="100"/>
<rect class="keycap" width="790" height="790" x="5605" y="2305" ry="100"/>


<rect class="keycap" width="990" height="990" x="11505" y="2205" ry="100"/>
<rect class="keycap" width="790" height="790" x="11605" y="2305" ry="100"/>


<rect class="keycap" width="990" height="990" x="12505" y="2105" ry="100"/>
<rect class="keycap" width="790" height="790" x="12605" y="2205" ry="100"/>


<rect class="keycap" width="990" height="990" x="13505" y="2005" ry="100"/>
<rect class="keycap" width="790" height="790" x="13605" y="2105" ry="100"/>


<rect class="keycap" width="990" height="990" x="14505" y="2105" ry="100"/>
<rect class="keycap" width="790" height="790" x="14605" y="2205" ry="100"/>


<rect class="keycap" width="990" height="990" x="15505" y="2205" ry="100"/>
<rect class="keycap" width="790" height="790" x="15605" y="2305" ry="100"/>


<rect class="keycap" width="1490" height="990" x="16505" y="2205" ry="100"/>
<rect class="keycap" width="1290" height="790" x="16605" y="2305" ry="100"/>


<rect class="keycap" width="1490" height="990" x="5" y="3205" ry="100"/>
<rect class="keycap" width="1290" height="790" x="105" y="3305" ry="100"/>


<rect class="keycap" width="990" height="990" x="1505" y="3205" ry="100"/>
<rect class="keycap" width="790" height="790" x="1605" y="3305" ry="100"/>


<rect class="keycap" width="990" height="990" x="2505" y="3105" ry="100"/>
<rect class="keycap" width="790" height="790" x="2605" y="3205" ry="100"/>


<rect class="keycap" width="990" height="990" x="3505" y="3005" ry="100"/>
<rect class="keycap" width="790" height="790" x="3605" y="3105" ry="100"/>


<rect class="keycap" width="990" height="990" x="4505" y="3105" ry="100"/>
<rect class="keycap" width="790" height="790" x="4605" y="3205" ry="100"/>


<rect class="keycap" width="990" height="990" x="5505" y="3205" ry="100"/>
<rect class="keycap" width="790" height="790" x="5605" y="3305" ry="100"/>


<rect class="keycap" width="990" height="1490" x="6505" y="2705" ry="100"/>
<rect class="keycap" width="790" height="1290" x="6605" y="2805" ry="100"/>


<rect class="keycap" width="990" height="1490" x="10505" y="2705" ry="100"/>
<rect class="keycap" width="790" height="1290" x="10605" y="2805" ry="100"/>


<rect class="keycap" width="990" height="990" x="11505" y="3205" ry="100"/>
<rect class="keycap" width="790" height="790" x="11605" y="3305" ry="100"/>


<rect class="keycap" width="990" height="990" x="12505" y="3105" ry="100"/>
<rect class="keycap" width="790" height="790" x="12605" y="3205" ry="100"/>


<rect class="keycap" width="990" height="990" x="13505" y="3005" ry="100"/>
<rect class="keycap" width="790" height="790" x="13605" y="3105" ry="100"/>


<rect class="keycap" width="990" height="990" x="14505" y="3105" ry="100"/>
<rect class="keycap" width="790" height="790" x="14605" y="3205" ry="100"/>


<rect class="keycap" width="990" height="990" x="15505" y="3205" ry="100"/>
<rect class="keycap" width="790" height="790" x="15605" y="3305" ry="100"/>


<rect class="keycap" width="1490" height="990" x="16505" y="3205" ry="100"/>
<rect class="keycap" width="1290" height="790" x="16605" y="3305" ry="100"/>


<rect class="keycap" width="990" height="990" x="505" y="4205" ry="100"/>
<rect class="keycap" width="790" height="790" x="605" y="4305" ry="100"/>


<rect class="keycap" width="990" height="990" x="1505" y="4205" ry="100"/>
<rect class="keycap" width="790" height="790" x="1605" y="4305" ry="100"/>


<rect class="keycap" width="990" height="990" x="2505" y="4105" ry="100"/>
<rect class="keycap" width="790" height="790" x="2605" y="4205" ry="100"/>


<rect class="keycap" width="990" height="990" x="3505" y="4005" ry="100"/>
<rect class="keycap" width="790" height="790" x="3605" y="4105" ry="100"/>


<rect class="keycap" width="990" height="990" x="4505" y="4105" ry="100"/>
<rect class="keycap" width="790" height="790" x="4605" y="4205" ry="100"/>


<rect class="keycap" width="990" height="990" x="12505" y="4105" ry="100"/>
<rect class="keycap" width="790" height="790" x="12605" y="4205" ry="100"/>


<rect class="keycap" width="990" height="990" x="13505" y="4005" ry="100"/>
<rect class="keycap" width="790" height="790" x="13605" y="4105" ry="100"/>


<rect class="keycap" width="990" height="990" x="14505" y="4105" ry="100"/>
<rect class="keycap" width="790" height="790" x="14605" y="4205" ry="100"/>


<rect class="keycap" width="990" height="990" x="15505" y="4205" ry="100"/>
<rect class="keycap" width="790" height="790" x="15605" y="4305" ry="100"/>


<rect class="keycap" width="990" height="990" x="16505" y="4205" ry="100"/>
<rect class="keycap" width="790" height="790" x="16605" y="4305" ry="100"/>


<rect class="keycap" width="990" height="990" x="6755" y="4505" ry="100"/>
<rect class="keycap" width="790" height="790" x="6855" y="4605" ry="100"/>


<rect class="keycap" width="990" height="990" x="7755" y="4505" ry="100"/>
<rect class="keycap" width="790" height="790" x="7855" y="4605" ry="100"/>


<rect class="keycap" width="990" height="990" x="9255" y="4505" ry="100"/>
<rect class="keycap" width="790" height="790" x="9355" y="4605" ry="100"/>


<rect class="keycap" width="990" height="990" x="10255" y="4505" ry="100"/>
<rect class="keycap" width="790" height="790" x="10355" y="4605" ry="100"/>


<rect class="keycap" width="990" height="1990" x="5755" y="5505" ry="100"/>
<rect class="keycap" width="790" height="1790" x="5855" y="5605" ry="100"/>


<rect class="keycap" width="990" height="1990" x="6755" y="5505" ry="100"/>
<rect class="keycap" width="790" height="1790" x="6855" y="5605" ry="100"/>


<rect class="keycap" width="990" height="990" x="7755" y="5505" ry="100"/>
<rect class="keycap" width="790" height="790" x="7855" y="5605" ry="100"/>


<rect class="keycap" width="990" height="990" x="9255" y="5505" ry="100"/>
<rect class="keycap" width="790" height="790" x="9355" y="5605" ry="100"/>


<rect class="keycap" width="990" height="1990" x="10255" y="5505" ry="100"/>
<rect class="keycap" width="790" height="1790" x="10355" y="5605" ry="100"/>


<rect class="keycap" width="990" height="1990" x="11255" y="5505" ry="100"/>
<rect class="keycap" width="790" height="1790" x="11355" y="5605" ry="100"/>


<rect class="keycap" width="990" height="990" x="7755" y="6505" ry="100"/>
<rect class="keycap" width="790" height="790" x="7855" y="6605" ry="100"/>


<rect class="keycap" width="990" height="990" x="9255" y="6505" ry="100"/>
<rect class="keycap" width="790" height="790" x="9355" y="6605" ry="100"/>


</svg>
