<svg xmlns="http://www.w3.org/2000/svg" xml:space="preserve" width="501.957" height="501.957" fill="#010101" viewBox="0 0 20.078 20.078"><g aria-label="🄰" style="font-size:10.1332px;line-height:1.25;font-family:Impact;-inkscape-font-specification:&quot;Impact, Normal&quot;;font-variant-ligatures:none;stroke-width:.0399994;fill:#010101;fill-opacity:1"><path d="M.02 9.149h9.12V.029H.02Zm.315-.315V.343h8.491v8.491Zm1.884-1.682h.852l.496-1.469h1.996l.477 1.47h.891l-1.874-5.25h-.963ZM3.78 5.035l.243-.73c.183-.588.335-1.135.517-1.713h.04c.183.568.345 1.125.527 1.713l.244.73z" style="fill:#010101;fill-opacity:1"/></g><g aria-label="🄱" style="font-size:10.1332px;line-height:1.25;font-family:Impact;-inkscape-font-specification:&quot;Impact, Normal&quot;;font-variant-ligatures:none;stroke-width:.0399994;fill:#010101;fill-opacity:1"><path d="M10.93 9.149h9.12V.029h-9.12zm.314-.315V.343h8.492v8.491Zm2.432-1.682h1.875c1.246 0 2.148-.486 2.148-1.53 0-.72-.476-1.125-1.226-1.256v-.04c.618-.163.912-.619.912-1.126 0-.952-.821-1.297-1.976-1.297h-1.733Zm.861-3.03v-1.59h.821c.81 0 1.236.233 1.236.77 0 .517-.364.82-1.276.82zm0 2.392V4.69h.912c.922 0 1.419.284 1.419.871 0 .7-.557.953-1.419.953z" style="fill:#010101;fill-opacity:1"/></g><g aria-label="🄲" style="font-size:10.1332px;line-height:1.25;font-family:Impact;-inkscape-font-specification:&quot;Impact, Normal&quot;;font-variant-ligatures:none;stroke-width:.0399994;fill:#010101;fill-opacity:1"><path d="M.02 20.061h9.12v-9.12H.02Zm.315-.314v-8.491h8.491v8.491zm4.661-1.56c.73 0 1.297-.254 1.763-.77l-.476-.507c-.335.365-.72.557-1.247.557-1.023 0-1.661-.76-1.661-2.037 0-1.246.679-2.016 1.702-2.016.456 0 .79.182 1.084.476l.477-.537a2.24 2.24 0 0 0-1.571-.658c-1.46 0-2.574 1.033-2.574 2.756 0 1.753 1.084 2.736 2.503 2.736" style="fill:#010101;fill-opacity:1"/></g><g aria-label="🄳" style="font-size:10.1332px;line-height:1.25;font-family:Impact;-inkscape-font-specification:&quot;Impact, Normal&quot;;font-variant-ligatures:none;stroke-width:.0399994;fill:#010101;fill-opacity:1"><path d="M10.93 20.061h9.12v-9.12h-9.12zm.314-.314v-8.491h8.492v8.491zm2.422-1.682h1.5c1.692 0 2.695-.912 2.695-2.645 0-1.722-1.003-2.604-2.736-2.604h-1.46zm.861-.669v-3.9h.618c1.247 0 1.834.698 1.834 1.924 0 1.297-.587 1.976-1.834 1.976z" style="fill:#010101;fill-opacity:1"/></g></svg>