<svg xmlns="http://www.w3.org/2000/svg" xml:space="preserve" width="501.957" height="501.957" fill="#010101" viewBox="0 0 20.078 20.078"><g aria-label="𝔄" style="font-size:12.2665px;line-height:1.25;font-family:Impact;-inkscape-font-specification:&quot;Impact, Normal&quot;;font-variant-ligatures:none;stroke-width:.0399994;fill:#010101;fill-opacity:1"><path d="m6.325 9.243-.22-.074q.049-.147.049-.245 0-.086-.074-.172-.368-.417-.368-1.226v-.27q-.392.294-.87.576-.48.282-1.044.564-1.116.565-1.435.81l-.208-.16q.171-.171.171-.208 0-.049-.147-.208-.147-.16-.38-.356t-.49-.393q-.246-.196-.467-.319Q.634 7.44.523 7.44q-.16 0-.417.086l-.086-.27q2.012-.577 2.92-1.46.92-.883.92-2.33 0-1.105-.503-1.743-.49-.637-1.362-.637-.454 0-.834.245t-.6.675q-.222.429-.222.993 0 .822.479 1.35.478.515 1.398.686l-.086.258q-1.018-.147-1.582-.81-.552-.662-.552-1.705 0-.81.307-1.435.306-.625.834-.981.527-.356 1.19-.356.71 0 1.25.38.54.368.847 1.043.319.675.319 1.57 0 1.227-.724 2.184-.711.944-2.195 1.705l1.153.981q.282.245.527.245.22 0 .785-.294.282-.147.638-.368.356-.233.773-.552V1.846q0-.613-.123-1.116l.22-.074.21.65q.06-.355.27-.65.22-.306.539-.49t.687-.184v.233q-.834.392-.834 1.766v4.87q0 .233.012.392.012.16.05.246.06.147.269.147.196 0 .552-.282l.172.172q-.454.502-.81.932-.343.43-.589.785" style="fill:#010101;fill-opacity:1"/></g><g aria-label="𝔅" style="font-size:12.2665px;line-height:1.25;font-family:Impact;-inkscape-font-specification:&quot;Impact, Normal&quot;;font-variant-ligatures:none;stroke-width:.0399994;fill:#010101;fill-opacity:1"><path d="M15.393 9.212q-.332 0-.614-.208-.122-.086-.392-.27-.258-.184-.601-.405-.332-.22-.687-.417-.356-.209-.663-.344-.306-.134-.49-.134-.295 0-.503.171-.197.172-.197.43 0 .122.099.392l-.221.135q-.147-.258-.147-.527 0-.503.38-.847.38-.356 1.006-.441.417-.062.858-.233.454-.184.834-.479.38-.294.59-.687.318-.6.318-1.472 0-1.386-.589-2.146-.588-.76-1.557-.76-.442 0-.81.22t-.601.613q-.22.38-.22.883 0 .565.269 1.043.27.466.724.773.454.294 1.006.331l-.086.282q-.663-.086-1.166-.43-.49-.343-.772-.882-.27-.54-.27-1.202 0-.749.306-1.325.32-.577.847-.908.54-.331 1.202-.331 1.423 0 2.245 1.386.319-.172.65-.344t.662-.33q.65-.332 1.288-.737l.172.197q-.172.134-.172.257 0 .098.123.368.135.258.319.564.196.295.368.503.245.32.38.32.11 0 .27-.087l.123.209-1.914 1.165q1.08.221 1.668.896.601.674.601 1.631 0 .896-.54 1.632-.527.723-1.717 1.128-.6.196-1.19.307-.588.11-1.19.11m.588-5.041q2.306-1.227 2.306-1.362 0-.049-.122-.245-.11-.197-.282-.442-.172-.257-.368-.503-.184-.245-.332-.405-.135-.171-.184-.171-.257 0-1.386.65.405.957.405 1.864zm.957 4.477q.613 0 1.092-.27.49-.282.773-.76.282-.479.282-1.08 0-.662-.32-1.153-.318-.503-.882-.785-.552-.282-1.264-.282-.356 0-.687.123-.11.637-.343 1.018-.233.368-.638.625-.209.123-.662.307t-1.154.417q.65.258 1.3.724t1.252.797q.613.319 1.251.319" style="fill:#010101;fill-opacity:1"/></g><g aria-label="ℭ" style="font-size:12.2665px;line-height:1.25;font-family:Impact;-inkscape-font-specification:&quot;Impact, Normal&quot;;font-variant-ligatures:none;stroke-width:.0399994;fill:#010101;fill-opacity:1"><path d="M4.018 20.057q-.687 0-1.386-.258-.7-.257-1.288-.748-.576-.503-.932-1.214-.344-.724-.344-1.644 0-.994.16-1.656.172-.663.478-1.3.331-.221.7-.442.38-.233.735-.43.368-.196.638-.306l.307.233q.209-.147.576-.331.368-.184.786-.368.417-.196.76-.331.344-.147.503-.197.025.086.11.32.086.232.197.49.122.258.257.454.147.184.282.184.172 0 .442-.135l.098.27q-.184.098-.478.22-.282.111-.54.185-.258.073-.38.073-.11 0-.32-.208-.195-.221-.392-.515-.184-.295-.282-.516-.073.013-.233.086-.16.074-.294.246-.123.159-.123.453 0 .332.086.712.098.368.184.748t.086.76q0 .516-.344.908-.33.393-.858.626t-1.104.294l-.05-.294q.05 0 .221-.061.184-.062.393-.184.22-.135.368-.368.16-.233.16-.59 0-.527-.111-.92-.098-.404-.209-.71-.11-.32-.11-.577 0-.295.147-.466-.171 0-.466.086-.282.085-.576.368-.295.282-.503.846-.197.564-.197 1.521 0 1.202.516 2.049.515.846 1.423 1.287.92.442 2.134.442.049 0 .319-.123.282-.122.638-.306.368-.184.674-.344l.098.258-1.987 1.337q-.22.049-.478.061-.245.025-.49.025" style="fill:#010101;fill-opacity:1"/></g><g style="fill:#010101;fill-opacity:1"><g aria-label="𝔇" style="font-size:12.2665px;line-height:1.25;font-family:Impact;-inkscape-font-specification:&quot;Impact, Normal&quot;;font-variant-ligatures:none;stroke-width:.0399994;fill:#010101;fill-opacity:1"><path d="M16.362 20.021q-.59 0-1.485-.6l-1.312-.896q-.503-.344-.908-.344-.43 0-.994.43l-.147-.172q.982-.981 1.84-1.006.209 0 .393.037 1.128-.466 1.128-.883 0-.135-.147-.454-.135-.32-.454-.773l-.33-.478q-.27-.393-.406-.65-.135-.258-.135-.43 0-.368.368-.699.368-.343 1.03-.589.663-.245 1.534-.331-1.435-.76-2.784-.76-.663 0-1.166.27t-.785.748q-.282.466-.282 1.08 0 1.152 1.116 1.57l-.098.257q-1.3-.49-1.3-1.902 0-.846.405-1.508.417-.663 1.128-1.043.724-.392 1.644-.392.994 0 1.914.343.932.343 1.717.994.785.637 1.337 1.545.846 1.362.846 2.772 0 1.153-.527 2-.515.834-1.484 1.35-.957.514-1.656.514m.846-.772q.626 0 1.14-.32.516-.318.823-.846.319-.527.319-1.153 0-1.19-.7-2.38-.699-1.19-2.085-2.134-.981.05-1.644.368-.65.307-.65.662 0 .234.233.577l.601.908q.675 1.006.675 1.398 0 .38-1.03.908l-.785.405q.22.122.429.257.22.135.441.295l.442.306.356.246q.405.257.723.38.32.123.712.123" style="fill:#010101;fill-opacity:1"/></g></g></svg>