<svg xmlns="http://www.w3.org/2000/svg" xml:space="preserve" width="501.957" height="501.957" fill="#010101" viewBox="0 0 20.078 20.078"><g aria-label="𝐴" style="font-size:12.7465px;line-height:1.25;font-family:Impact;-inkscape-font-specification:&quot;Impact, Normal&quot;;font-variant-ligatures:none;stroke-width:.0399994;fill:#010101;fill-opacity:1"><path d="m.018 9.04.05-.243q.855 0 1.556-.815.357-.408 2.04-2.384Q5.345 3.609 8.38.028h.255l-.32 7.915q-.012.46.243.65.268.179.867.204l-.038.242h-3.57l.052-.242h.102q.611 0 .828-.255t.242-.981l.051-1.517H4.148q-.191 0-.332.153L2.86 7.331q-.637.778-.637 1.033t.204.344q.217.09.688.09l-.063.241Zm4.321-3.468h2.779L7.27 2.08Z" style="fill:#010101;fill-opacity:1"/></g><g aria-label="𝐵" style="font-size:12.7465px;line-height:1.25;font-family:Impact;-inkscape-font-specification:&quot;Impact, Normal&quot;;font-variant-ligatures:none;stroke-width:.0399994;fill:#010101;fill-opacity:1"><path d="m11.636 8.848.064-.255h.064q.599 0 .867-.242.28-.255.446-.88l1.58-5.926q.115-.408.115-.663 0-.319-.23-.446-.216-.128-.726-.153l.064-.255h3.25q2.932 0 2.932 1.899 0 1.542-2.154 2.154 1.504.51 1.504 2.014 0 .841-.485 1.466-.484.612-1.363.956-.867.331-2.04.331zm4.296-4.907q1.39 0 2.09-.548.701-.548.701-1.543 0-1.389-1.618-1.389-.408 0-.6.051-.178.038-.254.166-.077.127-.166.382-.064.191-.242.867-.179.663-.472 1.81 0 .127.128.166.114.038.433.038m-.752 4.512q1.364 0 2.078-.663.726-.662.726-1.822 0-.842-.51-1.224-.497-.395-1.517-.395-.395 0-.586.038-.191.025-.255.242l-.765 2.843q-.025.127-.063.28-.026.153-.026.255 0 .28.217.37.217.076.7.076" style="fill:#010101;fill-opacity:1"/></g><g aria-label="𝐶" style="font-size:12.7465px;line-height:1.25;font-family:Impact;-inkscape-font-specification:&quot;Impact, Normal&quot;;font-variant-ligatures:none;stroke-width:.0399994;fill:#010101;fill-opacity:1"><path d="M3.711 20.031q-1.109 0-1.937-.433-.816-.433-1.275-1.236-.446-.816-.446-1.912 0-.93.382-1.836.395-.918 1.058-1.695.676-.778 1.517-1.3 1.287-.79 2.651-.79.74 0 1.721.33.204.077.357.077.268 0 .433-.318h.255l-.522 2.613h-.268q.013-.102.013-.204v-.191q-.013-.905-.485-1.39-.471-.497-1.376-.497-.79 0-1.555.42-.752.421-1.364 1.16-.6.727-.956 1.683-.357.956-.357 2.014 0 1.39.675 2.18.676.777 1.823.777 1.695 0 3.085-1.593l.242.217q-.79.981-1.683 1.453-.88.471-1.988.471" style="fill:#010101;fill-opacity:1"/></g><g aria-label="𝐷" style="font-size:12.7465px;line-height:1.25;font-family:Impact;-inkscape-font-specification:&quot;Impact, Normal&quot;;font-variant-ligatures:none;stroke-width:.0399994;fill:#010101;fill-opacity:1"><path d="m10.254 20.031.077-.255h.064q.599 0 .866-.229.28-.23.46-.892l1.593-5.927q.114-.447.114-.65 0-.32-.23-.447-.229-.14-.738-.165l.076-.255h3.378q1.275 0 2.192.446.918.433 1.415 1.262.497.816.497 1.95 0 1.032-.42 1.963-.421.93-1.211 1.657-.778.714-1.874 1.134-1.083.408-2.422.408zm3.9-.42q1.084 0 1.9-.408.816-.42 1.364-1.135.56-.713.841-1.618t.28-1.874q0-1.44-.713-2.193-.701-.752-2.078-.752-.408 0-.612.077-.204.064-.318.293-.102.23-.23.688l-1.517 5.647q-.152.548-.152.765 0 .293.293.395.14.051.382.09.242.025.56.025" style="fill:#010101;fill-opacity:1"/></g></svg>