<svg xmlns="http://www.w3.org/2000/svg" xml:space="preserve" width="501.957" height="501.957" fill="#010101" viewBox="0 0 20.078 20.078"><path d="M12.185 8.88q-.544 0-.864-.16t-.48-.405-.213-.512-.054-.48q0-.427.256-.715.267-.299.63-.299.384.011.522.214.15.202.15.362 0 .342-.171.491-.17.15-.405.181l-.256.022q-.139 0-.235.064-.096.053-.096.224 0 .042.032.181.032.128.139.277.106.15.33.256.235.107.619.107.661 0 1.13-.427.48-.437.886-1.173.405-.747.843-1.685.234-.48.458-.918.224-.448.523-.917.31-.48.747-1.013.042-.064.202-.256.171-.203.448-.448.278-.246.64-.448-.224-.086-.512-.118t-.661-.032q-.65 0-1.259.128-.597.128-1.088.32-.48.182-.778.363-.16.096-.448.288-.278.192-.587.48-.299.277-.512.65-.203.374-.203.822 0 .437.192.65t.48.214q.374 0 .768-.245.406-.246.747-.683t.555-1.013q.224-.587.224-1.259h.16q.053.17.096.437.042.256.042.555 0 .395-.17.821-.16.427-.47.8-.298.374-.725.608-.416.224-.928.224-.555 0-.864-.277-.31-.277-.31-.832 0-.459.203-.843.214-.394.523-.704t.608-.522q.31-.214.512-.331.597-.352 1.43-.597.831-.246 1.802-.246.427 0 .779.064.362.054.661.15.277-.128.555-.192l.085.181q-.085.021-.17.053-.075.032-.16.064.5.214.703.566.214.341.214.778 0 .502-.299.886-.288.384-.725.661-.427.277-.854.47.107.031.299.138.203.107.405.299.203.192.342.501.138.299.138.736 0 .416-.234.853-.235.427-.619.8-.384.363-.821.587-.438.224-.854.224-.309 0-.48-.128-.17-.139-.234-.33-.064-.193-.064-.363 0-.107.053-.342.064-.234.299-.554.245-.331.768-.683l.128.181q-.214.128-.459.352-.235.224-.395.502-.16.266-.16.554 0 .299.139.438.15.128.288.128.277 0 .565-.299.299-.31.587-.875.192-.384.31-.81.127-.438.127-1.024 0-.32-.064-.48t-.149-.224-.139-.086q-.138.075-.32.107-.17.032-.234.032-.086 0-.192-.021-.107-.032-.107-.128 0-.16.17-.192.182-.043.267-.043.171 0 .288.021.128.022.182.043.213-.096.469-.405.267-.31.448-.768.192-.459.192-.992 0-.224-.053-.491-.043-.277-.256-.47-.523.278-.843.694t-.533.95q-.214.522-.395 1.151-.17.619-.405 1.312-.054.171-.139.395-.075.213-.16.395-.32.682-.81 1.237-.48.555-1.163.885-.672.331-1.579.331" aria-label="ℬ" style="font-size:10.6667px;line-height:1.25;font-family:Impact;font-variant-ligatures:none;stroke-width:.04"/><path d="M12.23 19.086V11.47h2.698q1.184 0 2.016.459.843.448 1.29 1.312.449.853.449 2.058 0 1.814-.95 2.806-.949.981-2.72.981Zm.565-.565h.714v-6.486h-.714zm1.28 0h.896q1.024 0 1.61-.32v-5.792q-.597-.374-1.61-.374h-.896zm3.072-.63q.565-.544.768-1.184.202-.64.202-1.418 0-.79-.213-1.419-.213-.63-.757-1.205z" aria-label="𝔻" style="font-size:10.6667px;line-height:1.25;font-family:Impact;font-variant-ligatures:none;stroke-width:.04"/><path d="M2.944 20.079h5.333c1.344 0 2.133-.79 2.133-2.134v-5.333c0-1.344-.789-2.133-2.133-2.133H2.944c-1.344 0-2.134.789-2.134 2.133v5.333c0 1.344.79 2.134 2.134 2.134m3.104-1.974c-1.494 0-2.635-1.034-2.635-2.88 0-1.813 1.173-2.901 2.71-2.901.714 0 1.29.33 1.653.693l-.502.566c-.309-.31-.661-.502-1.141-.502-1.077 0-1.792.811-1.792 2.123 0 1.344.672 2.144 1.75 2.144.554 0 .96-.203 1.311-.587l.502.534c-.491.544-1.088.81-1.856.81" aria-label="🅲" style="font-size:10.6667px;line-height:1.25;font-family:Impact;font-variant-ligatures:none;stroke-width:.04"/><path d="M5.61 9.941c2.72 0 4.971-2.208 4.971-4.97C10.581 2.229 8.351 0 5.611 0A4.976 4.976 0 0 0 .64 4.97c0 2.742 2.229 4.971 4.97 4.971m0-.341C3.05 9.6.981 7.53.981 4.97A4.625 4.625 0 0 1 5.611.342c2.56 0 4.629 2.07 4.629 4.63S8.17 9.6 5.61 9.6M3.125 7.67h.896l.523-1.547h2.101l.501 1.546h.939L6.112 2.144H5.098Zm1.643-2.23.256-.768c.192-.619.352-1.195.544-1.803h.042c.192.598.363 1.184.555 1.803l.256.768z" aria-label="Ⓐ" style="font-size:10.6667px;line-height:1.25;font-family:Impact;font-variant-ligatures:none;stroke-width:.04"/></svg>