<svg xmlns="http://www.w3.org/2000/svg" xml:space="preserve" width="501.957" height="501.957" fill="#010101" viewBox="0 0 20.078 20.078"><path d="M10.704 10.262V.016h4.635q1.636 0 2.368.646.746.645.746 2.009 0 1.908-1.578 2.224 1.578.488 1.578 2.454 0 2.913-3.114 2.913zm.76-.76h.962V.776h-.961zm1.723-4.966h2.396V.776h-2.396zm3.157-.028q.574-.115.961-.546.388-.43.388-1.291 0-.76-.302-1.234-.287-.488-1.047-.618Zm-3.157 4.994h2.396V5.268h-2.396zm3.157-.072q.703-.13 1.019-.689.33-.574.33-1.378 0-1.765-1.35-2.066z" aria-label="𝔹" style="font-size:14.3506px;line-height:1.25;font-family:Impact;font-variant-ligatures:none;stroke-width:.0538148" transform="scale(1.08812 .91901)"/><path d="M11.121 20.71v-9.377h3.323q1.458 0 2.482.565 1.038.552 1.59 1.616.55 1.05.55 2.534 0 2.233-1.168 3.455-1.169 1.208-3.349 1.208zm.696-.695h.88V12.03h-.88zm1.576 0h1.103q1.261 0 1.984-.394v-7.132q-.736-.46-1.984-.46h-1.103zm3.783-.775q.696-.67.945-1.458.25-.788.25-1.747 0-.972-.263-1.747-.262-.774-.932-1.484z" aria-label="𝔻" style="font-size:13.1336px;line-height:1.25;font-family:Impact;font-variant-ligatures:none;stroke-width:.0492506" transform="scale(1.05248 .95013)"/><path d="M4.634 22.412q-1.544 0-2.573-.626-1.03-.625-1.544-1.78-.5-1.154-.5-2.712 0-1.502.542-2.656.556-1.154 1.627-1.794 1.07-.654 2.6-.654.668 0 1.308.084.654.083 1.321.347l-.361.78q-1.113-.474-2.295-.474-.598 0-1.127.14-.514.125-.945.36v7.817q.862.431 2.072.431.57 0 1.182-.083.612-.098 1.196-.25v.82q-.654.139-1.252.195t-1.251.055M1.95 13.984Q.795 15.14.795 17.336q0 1.099.278 1.96.292.85.877 1.42z" aria-label="ℂ" style="font-size:13.9075px;line-height:1.25;font-family:Impact;font-variant-ligatures:none;stroke-width:.0521529" transform="scale(1.13668 .87975)"/><path d="M.016 9.162 3.479.004h2.155L8.917 9.15H8.2L7.147 6.263H3.479l-1.09 2.9Zm.987-.68h.91L4.865.684h-.91Zm2.732-2.898h3.168L5.351 1.287Z" aria-label="𝔸" style="font-size:12.8263px;line-height:1.25;font-family:Impact;font-variant-ligatures:none;stroke-width:.0480985" transform="scale(.96778 1.0333)"/></svg>