<svg xmlns="http://www.w3.org/2000/svg" xml:space="preserve" width="501.957" height="501.957" fill="#010101" viewBox="0 0 20.078 20.078"><g aria-label="𝙰" style="font-size:15.9998px;line-height:1.25;font-family:Impact;-inkscape-font-specification:&quot;Impact, Normal&quot;;font-variant-ligatures:none;stroke-width:.0399994;fill:#010101;fill-opacity:1"><path d="M.837 9.299q-.448 0-.64-.096Q.02 9.107.02 8.739q0-.32.16-.432.176-.112.576-.112h.192l2.656-7.04H2.469q-.448 0-.656-.112-.208-.128-.208-.448 0-.368.208-.464.192-.096.88-.096h2.224q.368 0 .544.08t.32.448l3.056 7.632h.128q.416 0 .576.112.16.096.16.432 0 .32-.16.448-.144.112-.544.112H6.869q-.464 0-.704-.096-.224-.096-.224-.464 0-.336.208-.432.208-.112.672-.112h.72l-.752-1.856H2.82l-.672 1.856H2.9q.464 0 .672.112.224.096.224.432 0 .368-.224.464-.208.096-.688.096zm2.368-4h3.2L4.709 1.155Z" style="fill:#010101;fill-opacity:1"/></g><g aria-label="𝙱" style="font-size:15.9998px;line-height:1.25;font-family:Impact;-inkscape-font-specification:&quot;Impact, Normal&quot;;font-variant-ligatures:none;stroke-width:.0399994;fill:#010101;fill-opacity:1"><path d="M12.356 9.299q-.544 0-.544-.56 0-.352.176-.448t.8-.096h.272v-7.04h-.256q-.544 0-.752-.096-.192-.096-.192-.464 0-.56.544-.56h3.648q1.696 0 2.544.656t.848 1.856q0 1.232-1.056 1.84 1.664.608 1.664 2.24 0 .736-.368 1.344t-1.072.976q-.704.352-2.192.352zm1.936-5.264h1.632q1.104 0 1.632-.336.544-.352.544-1.104 0-1.44-1.872-1.44h-1.936zm0 4.16h1.728q1.52 0 2.096-.384t.576-1.216q0-.96-.64-1.28t-1.952-.32h-1.808z" style="fill:#010101;fill-opacity:1"/></g><g aria-label="𝙲" style="font-size:15.9998px;line-height:1.25;font-family:Impact;-inkscape-font-specification:&quot;Impact, Normal&quot;;font-variant-ligatures:none;stroke-width:.0399994;fill:#010101;fill-opacity:1"><path d="M4.469 20.053q-1.248 0-2.256-.608-1.008-.624-1.6-1.712Q.02 16.63.02 15.19q0-1.408.592-2.512t1.6-1.744q1.024-.64 2.288-.64.96 0 2.176.512.144-.384.576-.384.496 0 .544.32.032.16.032.768.016.592.032 1.632 0 .32-.112.48-.096.144-.448.144-.24 0-.448-.128-.144-.112-.272-.768-.112-.656-.672-1.088T4.5 11.35q-1.408 0-2.24 1.024-.816 1.024-.816 2.816 0 1.088.384 1.92.4.816 1.088 1.28.704.448 1.616.448 1.296 0 2.48-.944.288-.208.464-.208.256 0 .416.16t.16.4-.32.544q-.304.304-.832.592t-1.168.48q-.624.192-1.264.192" style="fill:#010101;fill-opacity:1"/></g><g aria-label="𝙳" style="font-size:15.9998px;line-height:1.25;font-family:Impact;-inkscape-font-specification:&quot;Impact, Normal&quot;;font-variant-ligatures:none;stroke-width:.0399994;fill:#010101;fill-opacity:1"><path d="M15.172 20.053h-.24q-.144 0-.32-.016-.16-.016-.304-.016h-1.824q-.576 0-.576-.56 0-.32.16-.432.176-.112.576-.112h.208v-7.04h-.192q-.4 0-.576-.112-.176-.128-.176-.448 0-.4.224-.48.24-.08.704-.08h2.96q1.312 0 2.256.576.96.576 1.472 1.616.528 1.04.528 2.448 0 1.424-.592 2.528-.592 1.088-1.536 1.6-.96.528-2.752.528m-.128-1.088q1.936 0 2.816-.848.896-.848.896-2.72t-.912-2.704q-.896-.832-2.864-.848-.224 0-.464.016-.224 0-.448.016v7.04q.48.048.976.048" style="fill:#010101;fill-opacity:1"/></g></svg>