<svg xmlns="http://www.w3.org/2000/svg" xml:space="preserve" width="501.957" height="501.957" fill="#010101" viewBox="0 0 20.078 20.078"><g aria-label="🇦" style="font-size:11.1998px;line-height:1.25;font-family:Impact;-inkscape-font-specification:&quot;Impact, Normal&quot;;font-variant-ligatures:none;stroke-width:.0399994;fill:#010101;fill-opacity:1"><path d="M5.19 5.427H2.827l-.638 1.837h-.84l2.183-6.126H4.54l2.15 6.126h-.873Zm-.213-.66-.94-2.79-1.009 2.79Zm3.506.548v.818h-.47v-.818Zm-8.411 0h.47v.818h-.47Zm8.41-1.534v.817h-.47v-.817Zm-8.41 0h.47v.817h-.47Zm0-2.34V-.028h1.512v.47H.542v.997Zm8.41.716v.907h-.47v-.907Zm-8.41 0h.47v.907h-.47ZM2.3 8.496v-.47h.907v.47zm0-8.523h.907v.47H2.3Zm-.717 8.523H.072V6.85h.47v1.176h1.042Zm2.34 0v-.47h.818v.47zm0-8.523h.818v.47h-.818ZM5.46 8.496v-.47h.817v.47zm0-8.523h.817v.47H5.46Zm1.534 8.523v-.47h1.02V6.85h.47v1.646zm0-8.523h1.49V1.44h-.47V.443h-1.02Z" style="fill:#010101;fill-opacity:1"/></g><g aria-label="🇧" style="font-size:11.1998px;line-height:1.25;font-family:Impact;-inkscape-font-specification:&quot;Impact, Normal&quot;;font-variant-ligatures:none;stroke-width:.0399994;fill:#010101;fill-opacity:1"><path d="M18.632 5.517q0 .784-.493 1.265-.493.482-1.31.482h-2.767V1.138h2.486q.516 0 .885.156.381.146.571.392t.27.504q.089.247.089.504 0 .941-.851 1.333.593.224.85.583.27.347.27.907M16.358 3.78q1.22 0 1.22-.975 0-.974-1.22-.974h-1.512V3.78zm.392 2.789q.414 0 .672-.18.258-.179.336-.392.09-.224.09-.47 0-.482-.292-.773-.28-.291-.806-.291h-1.904V6.57Zm3.315-1.255v.818h-.47v-.818Zm-8.41 0h.47v.818h-.47Zm8.41-1.534v.817h-.47V3.78Zm-8.41 0h.47v.817h-.47zm0-2.34V-.028h1.511v.47h-1.041v.997Zm8.41.716v.907h-.47v-.907Zm-8.41 0h.47v.907h-.47zm2.228 6.339v-.47h.907v.47zm0-8.523h.907v.47h-.907Zm-.717 8.523h-1.512V6.85h.47v1.176h1.042zm2.34 0v-.47h.818v.47zm0-8.523h.818v.47h-.817Zm1.535 8.523v-.47h.818v.47zm0-8.523h.818v.47h-.818Zm1.535 8.523v-.47h1.019V6.85h.47v1.646zm0-8.523h1.49V1.44h-.471V.443h-1.02z" style="fill:#010101;fill-opacity:1"/></g><g aria-label="🇨" style="font-size:11.1998px;line-height:1.25;font-family:Impact;-inkscape-font-specification:&quot;Impact, Normal&quot;;font-variant-ligatures:none;stroke-width:.0399994;fill:#010101;fill-opacity:1"><path d="M1.617 15.814q0-.425.068-.828.078-.415.28-.863.201-.448.492-.773.303-.336.807-.548.515-.224 1.153-.224 1.994 0 2.363 2.004h-.806q-.134-.66-.526-.985t-1.12-.325q-.896 0-1.412.683-.515.672-.515 1.848 0 1.154.538 1.837.537.672 1.456.672.75 0 1.153-.426.404-.425.55-1.321h.806q-.28 2.43-2.52 2.43-.628 0-1.132-.213t-.806-.537q-.291-.336-.493-.773-.19-.437-.268-.84-.068-.403-.068-.818m6.866 1.042v.817h-.47v-.817zm-8.411 0h.47v.817h-.47Zm8.41-1.535v.818h-.47v-.818zm-8.41 0h.47v.818h-.47Zm0-2.34v-1.467h1.512v.47H.542v.997zm8.41.717v.907h-.47v-.907zm-8.41 0h.47v.907h-.47ZM2.3 20.037v-.47h.907v.47zm0-8.523h.907v.47H2.3Zm-.717 8.523H.072V18.39h.47v1.176h1.042Zm2.34 0v-.47h.818v.47zm0-8.523h.818v.47h-.818Zm1.535 8.523v-.47h.817v.47zm0-8.523h.817v.47H5.46Zm1.534 8.523v-.47h1.02V18.39h.47v1.647zm0-8.523h1.49v1.467h-.47v-.997h-1.02Z" style="fill:#010101;fill-opacity:1"/></g><g aria-label="🇩" style="font-size:11.1998px;line-height:1.25;font-family:Impact;-inkscape-font-specification:&quot;Impact, Normal&quot;;font-variant-ligatures:none;stroke-width:.0399994;fill:#010101;fill-opacity:1"><path d="M13.704 18.805v-6.127h2.363q1.165 0 1.825.818.672.818.672 2.251 0 1.422-.672 2.24t-1.825.818zm.784-.695h1.444q.908 0 1.378-.605.47-.604.47-1.758 0-1.165-.47-1.77-.47-.604-1.378-.604h-1.444zm5.577-1.254v.817h-.47v-.817zm-8.41 0h.47v.817h-.47zm8.41-1.535v.818h-.47v-.818zm-8.41 0h.47v.818h-.47zm0-2.34v-1.467h1.511v.47h-1.041v.997zm8.41.717v.907h-.47v-.907zm-8.41 0h.47v.907h-.47zm2.228 6.339v-.47h.907v.47zm0-8.523h.907v.47h-.907zm-.717 8.523h-1.512V18.39h.47v1.176h1.042zm2.34 0v-.47h.818v.47zm0-8.523h.818v.47h-.817zm1.535 8.523v-.47h.818v.47zm0-8.523h.818v.47h-.818zm1.535 8.523v-.47h1.019V18.39h.47v1.647zm0-8.523h1.49v1.467h-.471v-.997h-1.02z" style="fill:#010101;fill-opacity:1"/></g></svg>