<svg xmlns="http://www.w3.org/2000/svg" xml:space="preserve" width="501.957" height="501.957" fill="#010101" viewBox="0 0 20.078 20.078"><g style="fill:#010101;fill-opacity:1"><g aria-label="Ḁ̛̖̈" style="font-size:10.1332px;line-height:1.25;font-family:FreeSans;-inkscape-font-specification:FreeSans;font-variant-ligatures:none;stroke-width:.0399994;fill:#010101;fill-opacity:1"><path d="M6.126 3.153q.446 0 .76.315.314.314.314.76 0 .435-.314.74-.314.313-.76.313t-.76-.314q-.314-.314-.314-.75 0-.425.314-.75.324-.314.76-.314m0 .629q-.183 0-.314.131-.132.132-.132.304 0 .183.132.315.131.131.314.131.182 0 .314-.131.132-.132.132-.304 0-.193-.132-.325-.122-.121-.314-.121M7.514.235H4.667l-.78 2.22H2.882l2.635-7.388h1.216l2.594 7.387H8.274Zm-.264-.79L6.116-3.92 4.9-.555ZM9.784-4.142q.375.435.375 1.003 0 1.135-1.611 1.135h-.456v-.852h.74q.242-.01.364-.06.112-.061.112-.244 0-.233-.173-.435z" style="fill:#010101;fill-opacity:1" transform="translate(-1.965 6.743)"/><path d="m7.473 2.981.973 1.5h-.608l-1.51-1.5ZM7.554-6.737v1.054H6.501v-1.054zm-1.813 0v1.054H4.687v-1.054z" style="fill:#010101;fill-opacity:1" transform="translate(-1.965 6.743)"/></g></g><g aria-label="B̢̡̓" style="font-size:10.1332px;line-height:1.25;font-family:FreeSans;-inkscape-font-specification:FreeSans;font-variant-ligatures:none;stroke-width:.0399994;fill:#010101;fill-opacity:1"><path d="M17.405 7.036q0 .952-.598 1.53-.598.577-1.581.577h-3.334V1.756h3q.618 0 1.074.183.456.182.679.486.233.294.334.598.101.294.101.608 0 1.135-1.023 1.611.71.274 1.023.7.325.425.325 1.094m-2.747-2.098q1.48 0 1.48-1.175t-1.48-1.176h-1.824v2.351zm.477 3.375q.496 0 .81-.213.315-.223.416-.487.101-.263.101-.567 0-.578-.344-.922-.345-.355-.983-.355h-2.3v2.544zM17.81 8.687v1.227q0 .395.152.547t.537.152q.03 0 .203-.01v.72q-.152.03-.284.03-1.45 0-1.45-1.105v-1.56z" style="fill:#010101;fill-opacity:1"/><path d="M16.969 8.687h.84v1.561q0 1.104-1.448 1.104-.132 0-.284-.03v-.72q.172.01.203.01.385 0 .537-.151.152-.152.152-.547zM15.722 1.645h.892v.74q0 .435-.233.679-.243.233-.659.233V2.87q.254 0 .355-.101.101-.112.101-.375h-.456z" style="fill:#010101;fill-opacity:1"/></g><g style="fill:#010101;fill-opacity:1"><g aria-label="C̺ͥ͋ͭ" style="font-size:10.1332px;line-height:1.25;font-family:FreeSans;-inkscape-font-specification:FreeSans;font-variant-ligatures:none;stroke-width:.0399994;fill:#010101;fill-opacity:1"><path d="M3.136-1.153q0-.507.081-1.003.092-.497.335-1.034t.598-.932q.365-.405.973-.669.618-.263 1.388-.263 2.411 0 2.847 2.411h-.962q-.163-.79-.639-1.185T6.4-4.223q-1.074 0-1.702.82-.618.821-.618 2.24 0 1.388.648 2.209.649.81 1.753.81.912 0 1.399-.506.486-.517.658-1.591h.973q-.334 2.928-3.04 2.928-.76 0-1.368-.253-.598-.263-.962-.659-.355-.395-.598-.922Q3.309.316 3.217-.17q-.08-.487-.08-.983M7.96 4.45H5.183V3.063h.71v.68H7.25v-.68h.71zM6.825-7.415v2.077H6.47v-2.077zm0-.801v.405H6.47v-.405z" style="fill:#010101;fill-opacity:1" transform="translate(-2.218 15.647)"/><path d="M6.622-6.28v1.053H5.568V-6.28zm.993-2.402v1.054H6.561v-1.054zM5.842-7.486q.253 0 .7.192.445.183.648.183.253 0 .375-.375h.587Q8-6.433 7.25-6.433q-.202 0-.709-.192-.517-.193-.648-.193-.233 0-.335.375h-.587q.08-.496.314-.77.223-.273.557-.273" style="fill:#010101;fill-opacity:1" transform="translate(-2.218 15.647)"/><path d="M6.997-7.415v.293h-.324v1.389q0 .111.04.152.03.04.132.04.091 0 .152-.02v.284q-.182.03-.263.03-.193 0-.304-.081-.112-.091-.112-.243v-1.55h-.263v-.294h.263v-.558h.355v.558z" style="fill:#010101;fill-opacity:1" transform="translate(-2.218 15.647)"/></g></g><g style="fill:#010101;fill-opacity:1"><g aria-label="D̵̓̾ͭ" style="font-size:10.1332px;line-height:1.25;font-family:FreeSans;-inkscape-font-specification:FreeSans;font-variant-ligatures:none;stroke-width:.0399994;fill:#010101;fill-opacity:1"><path d="M26.364 2.16v-7.388h2.848q1.408 0 2.209.983.8.983.8 2.706t-.81 2.715q-.8.983-2.2.983zm.943-.832h1.743q1.094 0 1.661-.73.568-.729.568-2.127 0-1.409-.568-2.138-.567-.73-1.661-.73h-1.743z" style="fill:#010101;fill-opacity:1" transform="translate(-14.472 16.004)"/><path d="M30.205-.84v.689H27.63V-.84ZM28.563-7.305h.892v.74q0 .435-.233.679-.243.233-.659.233v-.426q.254 0 .355-.101.101-.112.101-.375h-.456z" style="fill:#010101;fill-opacity:1" transform="translate(-14.472 16.004)"/><path d="M29.506-6.352q0 .243-.274.415t-.77.233v-.446q.375-.06.375-.243 0-.132-.193-.649-.192-.526-.192-.699 0-.557 1.054-.679v.446q-.375.091-.375.284 0 .132.192.648.183.507.183.69" style="fill:#010101;fill-opacity:1" transform="translate(-14.472 16.004)"/><path d="M29.384-7.71v.294h-.324v1.388q0 .111.04.152.03.04.132.04.091 0 .152-.02v.284q-.182.03-.263.03-.193 0-.304-.08-.112-.092-.112-.244v-1.55h-.263v-.294h.263v-.558h.355v.558z" style="fill:#010101;fill-opacity:1" transform="translate(-14.472 16.004)"/></g></g></svg>