<svg xmlns="http://www.w3.org/2000/svg" xml:space="preserve" width="501.957" height="501.957" fill="#010101" viewBox="0 0 20.078 20.078"><g aria-label="𝓐" style="font-size:11.0001px;line-height:1.25;font-family:Impact;-inkscape-font-specification:&quot;Impact, Normal&quot;;font-variant-ligatures:none;stroke-width:.0345191;fill:#010101;fill-opacity:1"><path d="M1.324 7.303q-.616 0-.957-.308-.34-.32-.34-.847 0-.462.307-.77.308-.32.781-.32.352 0 .561.166.21.165.21.418 0 .187-.144.34-.132.155-.286.199-.11.022-.253.066t-.23.088q-.1.044-.155.11-.055.055-.055.165 0 .154.154.286.165.132.44.132.946 0 2.42-1.507-.539-.605-.539-1.254 0-.484.33-.803.33-.33.847-.33.605 0 1.078.44.715-.781 1.397-1.42Q7.572 1.507 8.21 1 9.475-.001 10.036-.001q.198 0 .198.11L9.85.813Q9.2 2 8.52 3.398q-.683 1.397-1.354 3.014.594-.143 1.342-.891l.495-.506q.924-.935 1.265-.935.154 0 .242.044-.209.132-.484.352-.275.209-.56.528-.287.308-.573.605-.286.286-.583.528t-.616.407q-.308.154-.682.198l-.088.198-1.716.22.231-.572q-.77-.264-1.397-.792-.748.759-1.375 1.133t-1.342.374M6.22 5.246Q7.495 3.145 9.29.626 8.1 1.33 5.768 3.87q.45.737.45 1.353ZM4.052 5.18l1.166-1.287q-.22-.187-.385-.187-.22 0-.418.154t-.33.385q-.12.23-.12.484 0 .242.087.45m1.496 1.1q.165-.528.165-1.023 0-.65-.242-1.056L4.305 5.499q.671.605 1.243.78" style="fill:#010101;fill-opacity:1" transform="scale(.86299 1.15876)"/></g><g aria-label="𝐁" style="font-size:12.7465px;line-height:1.25;font-family:Impact;-inkscape-font-specification:&quot;Impact, Normal&quot;;font-variant-ligatures:none;stroke-width:.0399994;fill:#010101;fill-opacity:1"><path d="M12.418 8.64v-.33q.65-.026.88-.28.23-.255.23-.944V1.643q0-.549-.103-.829-.102-.28-.344-.382-.242-.115-.675-.115v-.319h3.887q3.34 0 3.34 1.989 0 1.568-2.078 1.963 2.499.471 2.499 2.192 0 1.185-.905 1.848-.893.65-2.524.65zm3.149-4.78h.115q1.02 0 1.427-.382.408-.395.408-1.39 0-.866-.293-1.274T16.217.406q-.434 0-.548.179-.102.165-.102.637zm.752 4.322q.828 0 1.16-.472.344-.472.344-1.504 0-1.058-.459-1.504-.446-.446-1.504-.446h-.293v3.148q0 .433.153.612.165.166.599.166" style="fill:#010101;fill-opacity:1"/></g><g aria-label="𝕮" style="font-size:12.7465px;line-height:1.25;font-family:Impact;-inkscape-font-specification:&quot;Impact, Normal&quot;;font-variant-ligatures:none;stroke-width:.0399994;fill:#010101;fill-opacity:1"><path d="M5.469 20.077q-.956 0-1.861-.331-.892-.332-1.632-.944T.753 17.35q-.727-1.262-.727-2.715 0-1.287.382-2.256.396-.969 1.071-1.504.688-.548 1.555-.548.574 0 1.007.268.434.255.561.739l.625-.472q.23-.178.382-.28.153-.115.217-.153.14-.09.306-.09.204 0 .344.064 1.121.472 1.223.472.14 0 .294-.127.153-.128.357-.332l.37.344-1.174 1.25q-.165.178-.318.28-.14.102-.28.102-.294 0-.906-.306-.611-.306-.917-.306-.294 0-.548.23-.255.216-.255.407 0 .306.981 1.925.982 1.632.982 1.963 0 .14-.166.395-.077.102-.446.485-.357.382-1.02 1.032.242.064.548.102.319.026.701.026.446 0 .93-.09.498-.102.918-.255.421-.165.65-.331l.294.42-2.295 1.9q-.395.09-.93.09M4.18 18.05q.408-.484.408-.892 0-.382-.65-1.427l-1.16-1.887q-.242-.408-.242-.637 0-.242.434-.625.216-.178.522-.42.319-.255.714-.574-.09-.332-.408-.523-.306-.19-.637-.19-.497 0-.867.407-.37.408-.574 1.134-.204.714-.204 1.67 0 .88.332 1.67.331.79.93 1.39.6.586 1.402.904" style="fill:#010101;fill-opacity:1"/></g><g aria-label="🅳" style="font-size:11.4761px;line-height:1.25;font-family:Impact;-inkscape-font-specification:&quot;Impact, Normal&quot;;font-variant-ligatures:none;stroke-width:.0360129;fill:#010101;fill-opacity:1"><path d="M12.283 19.818h5.738c1.446 0 2.295-.85 2.295-2.296v-5.738c0-1.446-.85-2.295-2.295-2.295h-5.738c-1.446 0-2.295.85-2.295 2.295v5.738c0 1.446.849 2.296 2.295 2.296m.803-2.261v-5.945h1.653c1.962 0 3.098.999 3.098 2.95 0 1.962-1.136 2.995-3.052 2.995zm.976-.758h.7c1.411 0 2.077-.769 2.077-2.237 0-1.39-.666-2.18-2.077-2.18h-.7Z" style="fill:#010101;fill-opacity:1" transform="scale(.98708 1.0131)"/></g></svg>