<svg xmlns="http://www.w3.org/2000/svg" xml:space="preserve" width="501.957" height="501.957" fill="#010101" viewBox="0 0 20.078 20.078"><path d="M15.094 9.273a4.655 4.655 0 0 0 4.65-4.65 4.655 4.655 0 0 0-4.65-4.65 4.655 4.655 0 0 0-4.65 4.65 4.655 4.655 0 0 0 4.65 4.65m0-.32a4.327 4.327 0 0 1-4.331-4.33 4.327 4.327 0 0 1 4.33-4.331 4.327 4.327 0 0 1 4.331 4.33 4.327 4.327 0 0 1-4.33 4.332m-1.787-1.805h1.846c1.228 0 2.116-.48 2.116-1.507 0-.709-.469-1.108-1.207-1.238v-.04c.608-.16.898-.608.898-1.107 0-.938-.809-1.278-1.946-1.278h-1.707Zm.849-2.984V2.597h.808c.798 0 1.217.23 1.217.759 0 .508-.359.808-1.257.808zm0 2.355V4.723h.898c.908 0 1.397.28 1.397.858 0 .688-.55.938-1.397.938z" aria-label="Ⓑ" style="font-size:9.97905px;line-height:1.25;font-family:Impact;font-variant-ligatures:none;stroke-width:.0374215" transform="scale(1.01667 .9836)"/><path d="M15.358 20.097a4.736 4.736 0 0 0 4.732-4.732 4.737 4.737 0 0 0-4.732-4.732 4.737 4.737 0 0 0-4.732 4.732 4.737 4.737 0 0 0 4.732 4.732m0-.325a4.403 4.403 0 0 1-4.407-4.407 4.403 4.403 0 0 1 4.407-4.407 4.403 4.403 0 0 1 4.407 4.407 4.403 4.403 0 0 1-4.407 4.407m-1.746-1.838h1.502c1.686 0 2.701-.914 2.701-2.65 0-1.727-1.015-2.61-2.741-2.61h-1.462zm.863-.67v-3.91h.62c1.248 0 1.837.701 1.837 1.93 0 1.3-.589 1.98-1.838 1.98z" aria-label="Ⓓ" style="font-size:10.154px;line-height:1.25;font-family:Impact;font-variant-ligatures:none;stroke-width:.0380771" transform="scale(.99915 1.00085)"/><g aria-label="Ⓒ" style="font-size:10.2614px;line-height:1.25;font-family:Impact;font-variant-ligatures:none;stroke-width:.0384802"><path d="M4.7 20.465c2.59 0 4.734-2.141 4.734-4.82 0-2.659-2.123-4.82-4.734-4.82s-4.734 2.161-4.734 4.82c0 2.658 2.123 4.82 4.734 4.82m0-.33c-2.438 0-4.409-2.008-4.409-4.49 0-2.462 1.95-4.49 4.41-4.49 2.437 0 4.408 2.007 4.408 4.49s-1.97 4.49-4.409 4.49m.183-1.749c.731 0 1.3-.259 1.778-.786l-.478-.517c-.345.372-.72.569-1.25.569-1.035 0-1.665-.776-1.665-2.08 0-1.272.67-2.058 1.706-2.058.458 0 .783.186 1.087.486l.468-.548a2.2 2.2 0 0 0-1.565-.672c-1.473 0-2.58 1.055-2.58 2.813 0 1.79 1.077 2.793 2.499 2.793" style="stroke-width:.0384411" transform="matrix(1.00845 0 0 .97872 .082 .048)"/></g><path d="M4.731 9.31a4.674 4.674 0 0 0 4.67-4.668 4.674 4.674 0 0 0-4.67-4.67 4.674 4.674 0 0 0-4.67 4.67 4.674 4.674 0 0 0 4.67 4.669m0-.32A4.345 4.345 0 0 1 .383 4.642 4.345 4.345 0 0 1 4.73.293a4.345 4.345 0 0 1 4.35 4.349A4.345 4.345 0 0 1 4.73 8.99M2.396 7.177h.842l.491-1.453h1.974l.47 1.453h.883l-1.854-5.19H4.25ZM3.94 5.083l.24-.722c.18-.581.33-1.122.511-1.693h.04c.18.56.34 1.112.521 1.693l.24.722Z" aria-label="Ⓐ" style="font-size:10.0196px;line-height:1.25;font-family:Impact;font-variant-ligatures:none;stroke-width:.0375732" transform="scale(1.0208 .97963)"/></svg>