<svg xmlns="http://www.w3.org/2000/svg" width="1390.222" height="1390.222" fill="#010101" preserveAspectRatio="xMidYMid" viewBox="0 0 62.56 62.56"><title>pause-line</title><path d="M30.492 44.1a2 2 0 0 1-.86-.2 1.81 1.81 0 0 1-.91-1.79v-6.7l-10.76 8.27a1.94 1.94 0 0 1-2.06.22 2 2 0 0 1-1.11-1.79v-24a2 2 0 0 1 1.11-1.81 1.93 1.93 0 0 1 2.06.22l10.76 8.27v-6.7a1.81 1.81 0 0 1 .91-1.79 1.93 1.93 0 0 1 2.09.22l15.32 12a2 2 0 0 1 0 3.15l-15.32 12.01a2 2 0 0 1-1.23.42m0-12.8v10.81l15.26-12-15.32-12 .06 10.81-13.77-10.83v24z" class="clr-i-outline clr-i-outline-path-1"/></svg>