<?xml version="1.0" encoding="UTF-8" standalone="no"?>
<svg
   width="666.66699"
   height="666.66699"
   viewBox="0 0 40.000019 40.00002"
   version="1.1"
   id="svg49711"
   sodipodi:docname="folder.svg"
   inkscape:version="1.2.2 (b0a8486541, 2022-12-01)"
   xmlns:inkscape="http://www.inkscape.org/namespaces/inkscape"
   xmlns:sodipodi="http://sodipodi.sourceforge.net/DTD/sodipodi-0.dtd"
   xmlns="http://www.w3.org/2000/svg"
   xmlns:svg="http://www.w3.org/2000/svg"
   xmlns:rdf="http://www.w3.org/1999/02/22-rdf-syntax-ns#"
   xmlns:cc="http://creativecommons.org/ns#"
   xmlns:dc="http://purl.org/dc/elements/1.1/">
  <defs
     id="defs49715" />
  <sodipodi:namedview
     id="namedview49713"
     pagecolor="#ffffff"
     bordercolor="#111111"
     borderopacity="1"
     inkscape:showpageshadow="0"
     inkscape:pageopacity="0"
     inkscape:pagecheckerboard="1"
     inkscape:deskcolor="#d1d1d1"
     showgrid="false"
     inkscape:zoom="0.295"
     inkscape:cx="91.525424"
     inkscape:cy="250.84746"
     inkscape:current-layer="svg49711" />
  <!-- Uploaded to: SVG Repo, www.svgrepo.com, Generator: SVG Repo Mixer Tools -->
  <title
     id="title49704">ic_fluent_folder_48_regular</title>
  <desc
     id="desc49706">Created with Sketch.</desc>
  <g
     id="ðŸ”-Product-Icons"
     stroke="none"
     stroke-width="1"
     fill="none"
     fill-rule="evenodd"
     transform="translate(-4,-4.68)">
    <g
       id="ic_fluent_folder_48_regular"
       fill="#000"
       fill-rule="nonzero">
      <path
         d="m 17.060662,9 c 0.832642,0 1.639341,0.2770341 2.29455,0.7839296 l 0.174842,0.1439078 2.586153,2.2628836 c 0.189887,0.166151 0.424651,0.270161 0.67285,0.300215 L 22.939338,12.5 H 40.25 c 2.004259,0 3.641274,1.572361 3.744802,3.550841 L 44,16.25 v 19 c 0,2.004259 -1.572361,3.641274 -3.550841,3.744802 L 40.25,39 H 7.75 C 5.7457408,39 4.1087263,37.427639 4.005198,35.449159 L 4,35.25 V 12.75 C 4,10.745741 5.572361,9.1087263 7.5508414,9.005198 L 7.75,9 Z m 5.786754,5.998874 -2.126915,2.615848 c -0.664613,0.817986 -1.640234,1.315796 -2.68547,1.378535 L 17.810074,19 6.5,18.999 V 35.25 c 0,0.647209 0.4918747,1.179534 1.1221948,1.243546 L 7.75,36.5 h 32.5 c 0.647209,0 1.179534,-0.491875 1.243546,-1.122195 L 41.5,35.25 v -19 c 0,-0.647209 -0.491875,-1.179534 -1.122195,-1.243546 L 40.25,15 Z M 17.060662,11.5 H 7.75 c -0.6472087,0 -1.1795339,0.491875 -1.2435464,1.122195 L 6.5,12.75 v 3.749 L 17.810074,16.5 c 0.329359,0 0.643375,-0.129866 0.875746,-0.358043 L 18.78022,16.038241 20.415,14.025 17.883793,11.809279 c -0.189887,-0.166151 -0.424651,-0.270161 -0.67285,-0.300215 z"
         id="ðŸŽ¨-Color" />
    </g>
  </g>
  <metadata
     id="metadata49834">
    <rdf:RDF>
      <cc:Work
         rdf:about="">
        <dc:title>ic_fluent_folder_48_regular</dc:title>
      </cc:Work>
    </rdf:RDF>
  </metadata>
</svg>
