<?xml version="1.0" encoding="UTF-8" standalone="no"?>
<!-- Uploaded to: SVG Repo, www.svgrepo.com, Generator: SVG Repo Mixer Tools -->

<svg
   width="599.99896"
   height="599.99811"
   viewBox="0 0 17.999969 17.999943"
   version="1.1"
   id="svg101992"
   xmlns="http://www.w3.org/2000/svg"
   xmlns:svg="http://www.w3.org/2000/svg"
   xmlns:rdf="http://www.w3.org/1999/02/22-rdf-syntax-ns#"
   xmlns:cc="http://creativecommons.org/ns#"
   xmlns:dc="http://purl.org/dc/elements/1.1/">
  <defs
     id="defs101996" />
  <title
     id="title101985">fullscreen_2_line</title>
  <path
     d="m 6.7861779,9.6762708 c 0.39051,-0.3905 1.02371,-0.3905 1.41421,0 0.360462,0.3604622 0.388189,0.9277212 0.08318,1.3199972 l -0.08318,0.0942 -4.7928897,4.7929 h 2.58579 c 0.5522897,0 0.9999997,0.4477 0.9999997,1 0,0.51285 -0.386036,0.935509 -0.8833777,0.993272 l -0.116622,0.0067 h -5 c -0.512831,0 -0.935507,-0.386027 -0.993272,-0.883376 l -0.0067,-0.116624 v -5 c 0,-0.5523 0.44772,-1 1,-1 0.512831,0 0.935506,0.386027 0.993272,0.883376 l 0.0067,0.116624 v 2.5858 z M 16.993288,-0.116629 c 0.51285,0 0.935509,0.3860443 0.993272,0.8833798 l 0.0067,0.1166202 v 5 c 0,0.55228 -0.4477,0.9999998 -1,0.9999998 -0.51285,0 -0.935509,-0.3860441 -0.993273,-0.8833795 l -0.0067,-0.1166203 v -2.58579 l -4.7929,4.7928898 c -0.3905,0.3905 -1.0237,0.3905 -1.4142001,0 -0.360461,-0.360462 -0.388189,-0.927721 -0.08318,-1.320005 l 0.08318,-0.09421 4.7929001,-4.7928899 h -2.5858 c -0.5523,0 -1,-0.44771 -1,-1 0,-0.5128314 0.386027,-0.9355065 0.883376,-0.9932722 l 0.116624,-0.00673 z"
     id="形状"
     fill="#09244b"
     style="fill:#010101;fill-rule:nonzero;stroke:none;stroke-width:1" />
  <path
     d="m 8.2070689,6.7928618 c 0.3905,0.39051 0.3905,1.02371 0,1.41421 -0.360462,0.360462 -0.927721,0.388189 -1.319997,0.08318 l -0.0942,-0.08318 L 1.999972,3.414182 v 2.58579 c 0,0.5522898 -0.4477,0.9999998 -1,0.9999998 -0.51285,0 -0.935509,-0.386036 -0.993272,-0.8833778 L 0,5.999972 v -5 C 0,0.487141 0.386027,0.064465 0.883376,0.0067 L 1,0 h 5 c 0.5522999,0 0.9999999,0.44772 0.9999999,1 0,0.512831 -0.386027,0.935506 -0.8833759,0.993272 L 6,1.999972 H 3.4142 Z M 17.999969,16.999972 c 0,0.51285 -0.386045,0.935509 -0.88338,0.993272 l -0.11662,0.0067 h -5 c -0.55228,0 -1,-0.4477 -1,-1 0,-0.51285 0.386044,-0.935509 0.88338,-0.993273 l 0.11662,-0.0067 h 2.58579 l -4.7928901,-4.7929 c -0.3905,-0.3905 -0.3905,-1.0237 0,-1.4142002 0.3604621,-0.360461 0.9277211,-0.388189 1.3200051,-0.08318 l 0.09421,0.08318 4.79289,4.7929002 v -2.5858 c 0,-0.5523 0.44771,-1 1,-1 0.512831,0 0.935506,0.386027 0.993272,0.883376 l 0.0067,0.116624 z"
     id="形状-4"
     fill="#09244b"
     style="fill:#010101;fill-rule:nonzero;stroke:none;stroke-width:1" />
  <metadata
     id="metadata102146">
    <rdf:RDF>
      <cc:Work
         rdf:about="">
        <dc:title>fullscreen_2_line</dc:title>
      </cc:Work>
    </rdf:RDF>
  </metadata>
</svg>
