<svg xmlns="http://www.w3.org/2000/svg" width="599.999" height="599.998" viewBox="0 0 18 18"><title>fullscreen_2_line</title><path fill="#09244b" d="M6.786 9.676a1 1 0 0 1 1.498 1.32l-.084.094-4.793 4.793h2.586a1 1 0 0 1 .117 1.994l-.117.006h-5A1 1 0 0 1 0 17l-.007-.117v-5a1 1 0 0 1 1.994-.116l.006.116v2.586zM16.993-.117a1 1 0 0 1 .994.884l.006.116v5A1 1 0 0 1 16 6l-.007-.117V3.298L11.2 8.09a1 1 0 0 1-1.497-1.32l.083-.094 4.793-4.793h-2.586a1 1 0 0 1-.116-1.993l.116-.007zm-8.786 6.91a1 1 0 0 1-1.32 1.497l-.094-.083L2 3.414V6a1 1 0 0 1-1.993.117L0 6V1A1 1 0 0 1 .883.007L1 0h5a1 1 0 0 1 .117 1.993L6 2H3.414ZM18 17a1 1 0 0 1-.883.993L17 18h-5a1 1 0 0 1-.117-1.993L12 16h2.586l-4.793-4.793a1 1 0 0 1 1.32-1.497l.094.083L16 14.586V12a1 1 0 0 1 1.993-.117L18 12z" style="fill:#010101;fill-rule:nonzero;stroke:none;stroke-width:1"/></svg>