<svg xmlns="http://www.w3.org/2000/svg" xml:space="preserve" width="816" height="11in" viewBox="0 0 215.9 279.4"><defs><mask id="a" maskUnits="userSpaceOnUse"><path d="M-1.053-1.01h22.06v21.992h-22.06Z" style="fill:#fff;fill-opacity:1"/><g style="fill:#010101"><g style="fill:#010101"><rect width="2.814" height="19.703" x="3.875" y="-1.238" ry="0" style="fill:#010101;stroke:none;stroke-width:1.2112;stroke-linejoin:round;stroke-dasharray:none"/><rect width="2.814" height="19.703" x="9.353" y="-1.238" ry="0" style="fill:#010101;stroke:none;stroke-width:1.2112;stroke-linejoin:round;stroke-dasharray:none"/></g><g style="fill:#010101" transform="rotate(90 8.492 8.57)"><rect width="2.814" height="19.703" x="3.875" y="-1.238" ry="0" style="fill:#010101;stroke:none;stroke-width:1.2112;stroke-linejoin:round;stroke-dasharray:none"/><rect width="2.814" height="19.703" x="9.353" y="-1.238" ry="0" style="fill:#010101;stroke:none;stroke-width:1.2112;stroke-linejoin:round;stroke-dasharray:none"/></g></g></mask></defs><path d="M25.351 15.213h11.481v11.481H25.351z" style="fill:#010101;stroke-width:1.565;stroke-linejoin:round"/><text xml:space="preserve" x="32.178" y="22.007" style="font-size:7.05556px;line-height:1.25;font-family:Impact;font-variant-ligatures:none;fill:#fff;stroke-width:.264583"><tspan x="26.15" y="20.755" style="fill:#fff;stroke-width:.264583">&lt;</tspan></text><path d="m15.735 19.972.231-19.2H.73v15.062h19.276" mask="url(#a)" style="fill:none;stroke:#faa;stroke-width:3.17187;stroke-linecap:butt;stroke-linejoin:round;stroke-dasharray:none;stroke-opacity:1" transform="matrix(.2545 0 0 .24375 26 21.379)"/><g style="fill:#010101;stroke:#efa;stroke-width:.997795;stroke-dasharray:none"><path fill-rule="evenodd" d="M251.747-502.907c0 31.172-25.412 56.47-56.47 56.47h-1581.178c-31.06 0-56.47-25.298-56.47-56.47v-1411.766h590.907l150.552 225.884h-628.518v112.94H251.748zm-816.79-1185.882-225.884-338.824h-764.385v1524.706c0 93.402 76.01 169.412 169.412 169.412H195.276c93.403 0 169.412-76.01 169.412-169.412v-1185.882z" style="fill:#efa;stroke:#efa;stroke-width:.997795;stroke-dasharray:none" transform="matrix(.00265 0 0 .003 35.648 27.262)"/></g></svg>