<?xml version="1.0" encoding="UTF-8" standalone="no"?>
<svg
   id="icon-lock"
   x="0px"
   y="0px"
   viewBox="0 0 122.125 122.125"
   xml:space="preserve"
   version="1.1"
   width="122.125"
   height="122.125"
   xmlns="http://www.w3.org/2000/svg"
   xmlns:svg="http://www.w3.org/2000/svg"><defs
   id="defs102219" />
<path
   d="m 105.126,48.125 v 0 C 105.126,23.932 85.443,4.25 61.251,4.25 37.058,4.25 17.376,23.932 17.376,48.125 v 0 H 6.25 v 69.75 h 110 v -69.75 z m -69.75,0 c 0,-14.268 11.607,-25.875 25.875,-25.875 14.268,0 25.875,11.607 25.875,25.875 v 0 z m 31.749,32.918 v 20.059 H 55.236 V 81.039 c -2.485,-1.828 -4.105,-4.766 -4.105,-8.09 0,-5.551 4.5,-10.05 10.051,-10.05 5.552,0 10.05,4.5 10.05,10.05 0,3.324 -1.62,6.264 -4.107,8.094 z"
   id="path102214"
   style="fill:none;stroke:#010101;stroke-width:8.5;stroke-linejoin:round;stroke-dasharray:none;stroke-opacity:1" />
</svg>
