<?xml version="1.0" encoding="UTF-8" standalone="no"?>
<svg
   width="633.33301"
   height="633.33301"
   viewBox="0 0 37.999981 37.99998"
   version="1.1"
   id="svg52669"
   sodipodi:docname="mail.svg"
   inkscape:version="1.2.2 (b0a8486541, 2022-12-01)"
   xmlns:inkscape="http://www.inkscape.org/namespaces/inkscape"
   xmlns:sodipodi="http://sodipodi.sourceforge.net/DTD/sodipodi-0.dtd"
   xmlns="http://www.w3.org/2000/svg"
   xmlns:svg="http://www.w3.org/2000/svg"
   xmlns:rdf="http://www.w3.org/1999/02/22-rdf-syntax-ns#"
   xmlns:cc="http://creativecommons.org/ns#"
   xmlns:dc="http://purl.org/dc/elements/1.1/">
  <defs
     id="defs52673" />
  <sodipodi:namedview
     id="namedview52671"
     pagecolor="#ffffff"
     bordercolor="#111111"
     borderopacity="1"
     inkscape:showpageshadow="0"
     inkscape:pageopacity="0"
     inkscape:pagecheckerboard="1"
     inkscape:deskcolor="#d1d1d1"
     showgrid="false"
     inkscape:zoom="1.668772"
     inkscape:cx="334.97686"
     inkscape:cy="318.79729"
     inkscape:current-layer="svg52669" />
  <!-- Uploaded to: SVG Repo, www.svgrepo.com, Generator: SVG Repo Mixer Tools -->
  <title
     id="title52662">ic_fluent_mail_48_regular</title>
  <desc
     id="desc52664">Created with Sketch.</desc>
  <g
     id="ðŸ”-Product-Icons"
     stroke="none"
     stroke-width="1"
     fill="none"
     fill-rule="evenodd"
     transform="translate(-5,-5.04)">
    <g
       id="ic_fluent_mail_48_regular"
       fill="#212121"
       fill-rule="nonzero">
      <path
         d="M 37.75,9 C 40.649495,9 43,11.350505 43,14.25 v 19.5 C 43,36.649495 40.649495,39 37.75,39 H 10.25 C 7.3505051,39 5,36.649495 5,33.75 V 14.25 C 5,11.350505 7.3505051,9 10.25,9 Z m 2.75,9.351 -15.897602,8.74427 c -0.333425,0.183384 -0.729654,0.20376 -1.077036,0.06113 L 23.397602,27.09527 7.5,18.351 V 33.75 c 0,1.518783 1.2312169,2.75 2.75,2.75 h 27.5 c 1.518783,0 2.75,-1.231217 2.75,-2.75 z M 37.75,11.5 h -27.5 c -1.5187831,0 -2.75,1.231217 -2.75,2.75 v 1.249 L 24,24.573411 40.5,15.498 V 14.25 c 0,-1.518783 -1.231217,-2.75 -2.75,-2.75 z"
         id="ðŸŽ¨-Color" />
    </g>
  </g>
  <metadata
     id="metadata52792">
    <rdf:RDF>
      <cc:Work
         rdf:about="">
        <dc:title>ic_fluent_mail_48_regular</dc:title>
      </cc:Work>
    </rdf:RDF>
  </metadata>
</svg>
