<svg xmlns="http://www.w3.org/2000/svg" width="633.333" height="633.333" viewBox="0 0 38 38"><title>ic_fluent_mail_48_regular</title><path fill="#010101" d="M32.75 3.96c2.9 0 5.25 2.35 5.25 5.25v19.5c0 2.9-2.35 5.25-5.25 5.25H5.25A5.25 5.25 0 0 1 0 28.71V9.21c0-2.9 2.35-5.25 5.25-5.25Zm2.75 9.351-15.898 8.744a1.25 1.25 0 0 1-1.077.061l-.127-.06L2.5 13.31v15.4a2.75 2.75 0 0 0 2.75 2.75h27.5a2.75 2.75 0 0 0 2.75-2.75zM32.75 6.46H5.25A2.75 2.75 0 0 0 2.5 9.21v1.249L19 19.533l16.5-9.075V9.21a2.75 2.75 0 0 0-2.75-2.75"/></svg>