<?xml version="1.0" encoding="UTF-8" standalone="no"?>
<!-- Uploaded to: SVG Repo, www.svgrepo.com, Generator: SVG Repo Mixer Tools -->

<svg
   fill="#000000"
   width="800px"
   height="800px"
   viewBox="0 0 32 32"
   version="1.1"
   id="svg109500"
   xml:space="preserve"
   xmlns="http://www.w3.org/2000/svg"
   xmlns:svg="http://www.w3.org/2000/svg"><defs
     id="defs109504" /><path
     d="M 30,5.154 H 2 c -1.099,0 -2,0.9 -2,2 V 24.16 c 0,1.099 0.9,1.999 2,1.999 17.339033,0 12.397068,0 28,0 1.099,0 2,-0.9 2,-1.999 V 7.154 c 0,-1.1 -0.901,-2 -2,-2 z M 30,24.16 H 2 V 7.154 h 28 z"
     id="path109498" /><g
     style="fill:#000000"
     id="g111327"
     transform="matrix(0.52020144,0,0,0.47238889,6.636374,7.154)"><path
       class="clr-i-outline clr-i-outline-path-1"
       d="M 8.07,31.6 A 2.07,2.07 0 0 1 6,29.53 V 6.32 A 2.07,2.07 0 0 1 9,4.47 l 23.21,11.61 a 2.07,2.07 0 0 1 0,3.7 L 9,31.38 A 2.06,2.06 0 0 1 8.07,31.6 Z M 8.07,6.26 8,6.32 V 29.53 L 8.1,29.59 31.31,18 a 0.06,0.06 0 0 0 0,-0.06 z"
       id="path111315" /><rect
       x="0"
       y="0"
       width="36"
       height="36"
       fill-opacity="0"
       id="rect111317" /></g></svg>
