<?xml version="1.0" encoding="UTF-8" standalone="no"?>
<svg
   width="134.48679"
   height="134.48659"
   version="1.1"
   id="svg80220"
   sodipodi:docname="command.svg"
   inkscape:version="1.2.2 (b0a8486541, 2022-12-01)"
   xmlns:inkscape="http://www.inkscape.org/namespaces/inkscape"
   xmlns:sodipodi="http://sodipodi.sourceforge.net/DTD/sodipodi-0.dtd"
   xmlns="http://www.w3.org/2000/svg"
   xmlns:svg="http://www.w3.org/2000/svg">
  <defs
     id="defs80224" />
  <sodipodi:namedview
     id="namedview80222"
     pagecolor="#ffffff"
     bordercolor="#111111"
     borderopacity="1"
     inkscape:showpageshadow="0"
     inkscape:pageopacity="0"
     inkscape:pagecheckerboard="1"
     inkscape:deskcolor="#d1d1d1"
     showgrid="false"
     inkscape:zoom="1.18"
     inkscape:cx="11.016949"
     inkscape:cy="70.338983"
     inkscape:current-layer="svg80220" />
  <path
     d="m 32.865496,4.9752999 c -7.9772,-3.3043 -17.159,-1.4778 -23.265,4.6277 C 3.494996,15.7085 1.6685959,24.891 4.972796,32.868 c 3.3043,7.9772 11.089,13.178 19.723,13.178 h 85.092994 c 11.79,0 21.348,-9.5578 21.348,-21.348 0,-11.7902 -9.5578,-21.3480001 -21.348,-21.3480001 C 97.998794,3.3500009 88.440794,12.9078 88.440794,24.698 v 85.093 c 0,8.6345 5.2013,16.41899 13.177996,19.72299 7.9767,3.304 17.159,1.4778 23.265,-4.6277 6.106,-6.10549 7.9319,-15.28799 4.6277,-23.26499 -3.3042,-7.976995 -11.089,-13.177995 -19.723,-13.177995 H 24.695496 c -8.6345,0 -16.419,5.2013 -19.723,13.177995 -3.3040001,7.9767 -1.4778,17.159 4.6277,23.26499 6.1055,6.1055 15.288,7.9319 23.265,4.6277 7.9772,-3.3043 13.178,-11.08898 13.178,-19.72299 V 24.698 c 0,-8.6345 -5.2013,-16.4190001 -13.178,-19.7230001 z"
     fill="none"
     stroke="#010101"
     stroke-width="5"
     id="path80218"
     style="stroke-width:6.7;stroke-dasharray:none" />
</svg>
