<?xml version="1.0" encoding="UTF-8" standalone="no"?>
<svg
   width="205.183"
   height="205.183"
   version="1.1"
   id="svg80220"
   sodipodi:docname="meta-qwerty.svg"
   inkscape:version="1.2.2 (b0a8486541, 2022-12-01)"
   xmlns:inkscape="http://www.inkscape.org/namespaces/inkscape"
   xmlns:sodipodi="http://sodipodi.sourceforge.net/DTD/sodipodi-0.dtd"
   xmlns="http://www.w3.org/2000/svg"
   xmlns:svg="http://www.w3.org/2000/svg">
  <defs
     id="defs80224" />
  <sodipodi:namedview
     id="namedview80222"
     pagecolor="#ffffff"
     bordercolor="#111111"
     borderopacity="1"
     inkscape:showpageshadow="0"
     inkscape:pageopacity="0"
     inkscape:pagecheckerboard="1"
     inkscape:deskcolor="#d1d1d1"
     showgrid="false"
     inkscape:zoom="1.18"
     inkscape:cx="81.355932"
     inkscape:cy="70.338983"
     inkscape:current-layer="svg80220" />
  <path
     d="m 102.79461,4.9752999 c -7.977202,-3.3043 -17.159002,-1.4778 -23.265002,4.6277 -6.1055,6.1055001 -7.9319,15.2880001 -4.6277,23.2650001 3.3043,7.9772 11.089,13.178 19.723,13.178 H 179.7179 c 11.79,0 21.348,-9.5578 21.348,-21.348 0,-11.7902 -9.5578,-21.3480001 -21.348,-21.3480001 -11.78999,0 -21.34799,9.5578001 -21.34799,21.3480001 v 85.093 c 0,8.6345 5.2013,16.41899 13.17799,19.72299 7.9767,3.304 17.159,1.4778 23.265,-4.6277 6.106,-6.10549 7.9319,-15.28799 4.6277,-23.26499 -3.3042,-7.976992 -11.089,-13.177992 -19.723,-13.177992 H 94.624608 c -8.6345,0 -16.419,5.2013 -19.723,13.177992 -3.304,7.9767 -1.4778,17.159 4.6277,23.26499 6.1055,6.1055 15.288,7.9319 23.265002,4.6277 7.9772,-3.3043 13.178,-11.08898 13.178,-19.72299 V 24.698 c 0,-8.6345 -5.2013,-16.4190001 -13.178,-19.7230001 z"
     fill="none"
     stroke="#010101"
     stroke-width="5"
     id="path80218"
     style="stroke-width:6.7;stroke-dasharray:none" />
  <text
     xml:space="preserve"
     style="font-size:64px;line-height:1.25;font-family:Impact;-inkscape-font-specification:'Impact, Normal';font-variant-ligatures:none"
     x="-3.52"
     y="189.82265"
     id="text82890"><tspan
       sodipodi:role="line"
       id="tspan82888"
       x="-3.52"
       y="189.82265"
       style="font-style:normal;font-variant:normal;font-weight:normal;font-stretch:normal;font-size:64px;font-family:sans-serif;-inkscape-font-specification:sans-serif">qwerty</tspan></text>
</svg>
