<svg xmlns="http://www.w3.org/2000/svg" width="685.722" height="685.722" fill="none" viewBox="0 0 24 24"><path fill="#010101" d="M7.5 8.56.22 1.28A.75.75 0 1 1 1.28.22l22.5 22.5a.75.75 0 0 1-1.06 1.06l-5.35-5.35a7.97 7.97 0 0 1-4.62 2.035v2.785a.75.75 0 0 1-1.5 0v-2.785A8 8 0 0 1 4 12.5v-.75a.75.75 0 0 1 1.5 0v.75a6.5 6.5 0 0 0 10.807 4.868L14.89 15.95A4.5 4.5 0 0 1 7.5 12.5Zm6.322 6.323L9 10.061V12.5a3 3 0 0 0 4.822 2.383M7.503 4.322 9 5.818V4.5a3 3 0 1 1 6 0v7.318l1.437 1.437q.062-.368.063-.755v-8a4.5 4.5 0 0 0-8.997-.178m10.551 10.55 1.137 1.138A8 8 0 0 0 20 12.5v-.75a.75.75 0 1 0-1.5 0v.75c0 .837-.158 1.637-.446 2.372"/></svg>