<?xml version="1.0" encoding="UTF-8" standalone="no"?>
<!-- Uploaded to: SVG Repo, www.svgrepo.com, Generator: SVG Repo Mixer Tools -->

<svg
   width="685.72198"
   height="685.72198"
   viewBox="0 0 24.000269 24.00027"
   fill="none"
   version="1.1"
   id="svg53653"
   sodipodi:docname="mute-mic.svg"
   inkscape:version="1.2.2 (b0a8486541, 2022-12-01)"
   xmlns:inkscape="http://www.inkscape.org/namespaces/inkscape"
   xmlns:sodipodi="http://sodipodi.sourceforge.net/DTD/sodipodi-0.dtd"
   xmlns="http://www.w3.org/2000/svg"
   xmlns:svg="http://www.w3.org/2000/svg">
  <defs
     id="defs53657" />
  <sodipodi:namedview
     id="namedview53655"
     pagecolor="#ffffff"
     bordercolor="#111111"
     borderopacity="1"
     inkscape:showpageshadow="0"
     inkscape:pageopacity="0"
     inkscape:pagecheckerboard="1"
     inkscape:deskcolor="#d1d1d1"
     showgrid="false"
     inkscape:zoom="0.295"
     inkscape:cx="101.69492"
     inkscape:cy="342.37288"
     inkscape:current-layer="svg53653" />
  <path
     d="M 7.5000013,8.5609 0.21967125,1.28044 c -0.2929,-0.2929 -0.29289,-0.76777 0,-1.06066 0.2929,-0.29289 0.76777,-0.29289 1.06066005,1e-5 L 23.780101,22.7199 c 0.2929,0.2929 0.2929,0.7678 0,1.0607 -0.2929,0.2929 -0.7678,0.2929 -1.0607,0 l -5.35,-5.3502 c -1.2459,1.1287 -2.8489,1.8702 -4.6194,2.0348 v 2.7847 c 0,0.4142 -0.3358,0.75 -0.75,0.75 -0.4142,0 -0.75,-0.3358 -0.75,-0.75 V 20.4652 C 7.1834113,20.0871 4.0000013,16.6653 4.0000013,12.4999 v -0.749 c 0,-0.4142 0.33579,-0.7504 0.75,-0.7504 0.41421,0 0.75,0.3358 0.75,0.75 v 0.749 c 0,3.5898 2.9101,6.5004 6.4999997,6.5004 1.6521,0 3.1603,-0.6164 4.3071,-1.6317 l -1.4179,-1.418 C 14.107501,16.6055 13.099801,17 12.000001,17 9.5147013,17 7.5000013,14.9853 7.5000013,12.5 Z M 13.822301,14.8833 9.0000013,10.0609 V 12.5 c 0,1.6569 1.3430997,3 2.9999997,3 0.6854,0 1.3171,-0.2299 1.8223,-0.6167 z"
     fill="#212121"
     id="path53647" />
  <path
     d="m 7.5034713,4.32166 1.49653,1.49656 V 4.5 c 0,-1.65685 1.3430997,-3 2.9999997,-3 1.6569,0 3,1.34315 3,3 v 7.3183 l 1.4369,1.4369 c 0.0415,-0.2455 0.0631,-0.4978 0.0631,-0.7552 v -8 c 0,-2.48528 -2.0147,-4.5 -4.5,-4.5 C 9.5744013,0 7.5971113,1.91905 7.5034713,4.32166 Z"
     fill="#212121"
     id="path53649" />
  <path
     d="m 18.053601,14.872 1.1375,1.1375 c 0.5181,-1.0596 0.8089,-2.2506 0.8089,-3.5096 v -0.7494 c 0,-0.4142 -0.3358,-0.75 -0.75,-0.75 -0.4142,0 -0.75,0.336 -0.75,0.7502 v 0.7492 c 0,0.8371 -0.1582,1.6372 -0.4464,2.3721 z"
     fill="#212121"
     id="path53651" />
</svg>
