<svg xmlns="http://www.w3.org/2000/svg" width="719.976" height="719.976" fill="none" viewBox="0 0 25.199 25.199"><path fill="#010101" d="M12.395 1.95c.798-.748 2.105-.182 2.105.912v18.37c0 1.095-1.306 1.66-2.105.913l-4.937-4.626a1.75 1.75 0 0 0-1.196-.473H3.25A3.25 3.25 0 0 1 0 13.796v-3.492a3.25 3.25 0 0 1 3.25-3.25h3.011c.445 0 .873-.17 1.197-.474zM13 3.44 8.484 7.674a3.25 3.25 0 0 1-2.223.88H3.25a1.75 1.75 0 0 0-1.75 1.75v3.492c0 .966.784 1.75 1.75 1.75h3.012c.825 0 1.62.314 2.222.878L13 20.656zm9.218 11.887a.75.75 0 0 0 1.064-1.057l-2.218-2.235L23.28 9.83a.75.75 0 0 0-1.058-1.063l-2.217 2.208-2.226-2.209a.75.75 0 0 0-1.056 1.065l2.22 2.204-2.223 2.234a.75.75 0 1 0 1.063 1.058l2.222-2.23z"/></svg>