<svg xmlns="http://www.w3.org/2000/svg" xml:space="preserve" width="501.957" height="501.957" fill="#010101" viewBox="0 0 20.078 20.078"><text xml:space="preserve" x="14.487" y="7.752" style="font-style:normal;font-variant:normal;font-weight:400;font-stretch:normal;font-size:10.6667px;line-height:1.25;font-family:sans-serif;font-variant-ligatures:none;stroke-width:.04">2</text><text xml:space="preserve" x="14.487" y="20.046" style="font-size:10.6667px;line-height:1.25;font-family:sans-serif;font-variant-ligatures:none;stroke-width:.04">4</text><text xml:space="preserve" x="-.479" y="19.94" style="font-size:10.6667px;line-height:1.25;font-family:sans-serif;font-variant-ligatures:none;stroke-width:.04">3</text><text xml:space="preserve" x="-.723" y="7.646" style="font-style:normal;font-variant:normal;font-weight:400;font-stretch:normal;font-size:10.6667px;line-height:1.25;font-family:sans-serif;font-variant-ligatures:none;stroke-width:.04">1</text><path d="M13.235 8.277c0-2.08-1.415-3.77-3.155-3.77s-3.155 1.69-3.155 3.77h-.8v5.993h7.91V8.277Zm-5.016 0c0-1.226.835-2.224 1.86-2.224 1.027 0 1.862.998 1.862 2.224zm2.283 2.828v1.724h-.855v-1.724a.92.92 0 0 1-.295-.695c0-.477.324-.864.723-.864.4 0 .723.387.723.864a.92.92 0 0 1-.296.695z" style="fill:none;stroke:#010101;stroke-width:.668183;stroke-linejoin:round;stroke-dasharray:none;stroke-opacity:1"/></svg>
