<svg xmlns="http://www.w3.org/2000/svg" xml:space="preserve" width="501.957" height="501.957" fill="#010101" viewBox="0 0 20.078 20.078"><path d="M20.034 7.752h-5.035v-.779l1.995-2.016q.576-.576.97-1.024.395-.448.598-.874.202-.438.202-.95 0-.629-.373-.949-.373-.33-.97-.33-.555 0-.982.191-.416.192-.853.534l-.502-.63q.448-.373 1.024-.629.587-.267 1.312-.267 1.067 0 1.686.544.618.534.618 1.483 0 .597-.245 1.12t-.683 1.035q-.437.501-1.024 1.077l-1.589 1.568v.043h3.85z" aria-label="2" style="font-size:10.6667px;line-height:1.25;font-variant-ligatures:none;stroke-width:.04"/><path d="M20.375 18.318h-1.11v1.728h-.906v-1.728h-3.648v-.8l3.584-5.13h.97v5.087h1.11zm-2.016-3.243q0-.554.021-.938.022-.395.032-.747h-.042q-.086.203-.214.437-.128.235-.245.395l-2.283 3.253h2.731z" aria-label="4" style="font-size:10.6667px;line-height:1.25;font-variant-ligatures:none;stroke-width:.04"/><path d="M4.78 14.105q0 .768-.427 1.227-.427.448-1.152.597v.043q.917.107 1.365.576.448.47.448 1.227 0 .661-.309 1.184-.31.512-.96.8-.64.288-1.653.288-.598 0-1.11-.096-.512-.086-.981-.32v-.875q.48.235 1.035.373.554.128 1.066.128 1.024 0 1.472-.394.459-.406.459-1.11 0-.714-.565-1.024-.555-.32-1.568-.32h-.736v-.8h.746q.939 0 1.419-.394.49-.395.49-1.046 0-.554-.373-.853-.373-.31-1.013-.31-.619 0-1.056.182-.437.181-.864.459l-.47-.64q.406-.32 1.003-.555.608-.235 1.376-.235 1.195 0 1.771.534.587.533.587 1.354" aria-label="3" style="font-size:10.6667px;line-height:1.25;font-variant-ligatures:none;stroke-width:.04"/><path d="M3.064 7.646h-.918V2.323q0-.458.011-.736t.032-.576q-.17.171-.31.288l-.351.299-.811.661-.49-.629L2.284.03h.779z" aria-label="1" style="font-size:10.6667px;line-height:1.25;font-variant-ligatures:none;stroke-width:.04"/><path d="M13.235 8.277c0-2.08-1.415-3.77-3.155-3.77s-3.155 1.69-3.155 3.77h-.8v5.993h7.91V8.277Zm-5.016 0c0-1.226.835-2.224 1.86-2.224 1.027 0 1.862.998 1.862 2.224zm2.283 2.828v1.724h-.855v-1.724a.92.92 0 0 1-.295-.695c0-.477.324-.864.723-.864.4 0 .723.387.723.864a.92.92 0 0 1-.296.695z" style="fill:none;stroke:#010101;stroke-width:.668183;stroke-linejoin:round;stroke-dasharray:none;stroke-opacity:1"/></svg>