<svg xmlns="http://www.w3.org/2000/svg" width="640.055" height="640.055" fill="none" viewBox="0 0 19.202 19.202"><path stroke="#010101" stroke-linecap="round" stroke-linejoin="round" stroke-width="2" d="M9.52 8.6v6m0 0-2-2m2 2 2-2m-1-12h-4.8C4.6.6 4.04.6 3.614.82a2 2 0 0 0-.874.874c-.22.426-.22.986-.22 2.106v11.6c0 1.12 0 1.68.218 2.108a2 2 0 0 0 .874.874c.428.218.988.218 2.108.218h7.6c1.12 0 1.68 0 2.108-.218a2 2 0 0 0 .874-.874c.218-.428.218-.988.218-2.108V6.6m-6-6 6 6m-6-6V5c0 .56 0 .84.109 1.054a1 1 0 0 0 .437.437c.214.109.494.109 1.054.109h4.4" style="stroke-width:1.2;stroke-dasharray:none"/></svg>