<?xml version="1.0" encoding="UTF-8" standalone="no"?>
<!-- Uploaded to: SVG Repo, www.svgrepo.com, Generator: SVG Repo Mixer Tools -->

<svg
   width="640.05499"
   height="640.05499"
   viewBox="0 0 19.20165 19.20165"
   fill="none"
   version="1.1"
   id="svg77113"
   sodipodi:docname="page-down.svg"
   inkscape:version="1.2.2 (b0a8486541, 2022-12-01)"
   xmlns:inkscape="http://www.inkscape.org/namespaces/inkscape"
   xmlns:sodipodi="http://sodipodi.sourceforge.net/DTD/sodipodi-0.dtd"
   xmlns="http://www.w3.org/2000/svg"
   xmlns:svg="http://www.w3.org/2000/svg">
  <defs
     id="defs77117" />
  <sodipodi:namedview
     id="namedview77115"
     pagecolor="#ffffff"
     bordercolor="#111111"
     borderopacity="1"
     inkscape:showpageshadow="0"
     inkscape:pageopacity="0"
     inkscape:pagecheckerboard="1"
     inkscape:deskcolor="#d1d1d1"
     showgrid="false"
     inkscape:zoom="0.295"
     inkscape:cx="0"
     inkscape:cy="318.64407"
     inkscape:current-layer="svg77113" />
  <path
     d="m 9.5208262,8.6008254 v 5.9999996 m 0,0 -2,-2 m 2,2 1.9999998,-2 m -1,-11.99999958 H 5.7208262 c -1.1201,0 -1.68016,0 -2.10798,0.21799 -0.37633,0.19173998 -0.68229,0.49769998 -0.87403,0.87402998 -0.21799,0.42782 -0.21799,0.98788 -0.21799,2.10798 V 15.400825 c 0,1.1201 0,1.6802 0.21799,2.108 0.19174,0.3763 0.4977,0.6823 0.87403,0.874 0.42782,0.218 0.98788,0.218 2.10798,0.218 h 7.5999998 c 1.1201,0 1.6802,0 2.108,-0.218 0.3763,-0.1917 0.6823,-0.4977 0.874,-0.874 0.218,-0.4278 0.218,-0.9879 0.218,-2.108 V 6.6008254 m -6,-5.99999998 6,5.99999998 m -6,-5.99999998 V 5.0008254 c 0,0.56005 0,0.84008 0.109,1.05399 0.0959,0.18816 0.2488,0.34114 0.437,0.43702 0.2139,0.10899 0.4939,0.10899 1.054,0.10899 h 4.4"
     stroke="#010101"
     stroke-width="2"
     stroke-linecap="round"
     stroke-linejoin="round"
     id="path77111"
     style="stroke-width:1.2;stroke-dasharray:none" />
</svg>
