<svg xmlns="http://www.w3.org/2000/svg" width="766.667" height="766.667" fill="none" viewBox="0 0 23 23"><path fill="#0f0f0f" fill-rule="evenodd" d="M11.46 0c-.765 0-1.37.126-1.843.36a6 6 0 0 0-.468.267L9.05.69a8 8 0 0 1-.27.165c-.225.13-.311.144-.32.146a2 2 0 0 0-2 2h-1a3 3 0 0 0-3 3v14a3 3 0 0 0 3 3h12a3 3 0 0 0 3-3V6a3 3 0 0 0-3-3h-1a2 2 0 0 0-2-2c-.008-.001-.095-.015-.32-.146-.088-.05-.171-.103-.27-.165l-.1-.062a6 6 0 0 0-.468-.268C12.831.126 12.225 0 11.46 0m4.732 5a2 2 0 0 1-1.732 1h-6a2 2 0 0 1-1.732-1H5.46a1 1 0 0 0-1 1v14a1 1 0 0 0 1 1h12a1 1 0 0 0 1-1V6a1 1 0 0 0-1-1zm-5.69-2.848c.12-.059.4-.152.958-.152s.837.093.957.152a4 4 0 0 1 .295.171l.074.047c.104.065.23.144.352.215.293.17.765.415 1.322.415v1h-6V3c.557 0 1.029-.245 1.322-.415.123-.07.248-.15.352-.215l.074-.047c.128-.08.22-.133.295-.17" clip-rule="evenodd" style="fill:#010101;fill-opacity:1"/></svg>