<svg xmlns="http://www.w3.org/2000/svg" width="1390.222" height="1390.222" fill="#010101" preserveAspectRatio="xMidYMid" viewBox="0 0 62.56 62.56"><title>pause-line</title><path d="M43.49 43.84h-6.86a2.07 2.07 0 0 1-2.07-2.07V17.91a2.07 2.07 0 0 1 2.07-2.07h6.87a2.07 2.07 0 0 1 2.06 2.07v23.86a2.07 2.07 0 0 1-2.07 2.07m.07-26h-7v24h7z" class="clr-i-outline clr-i-outline-path-1"/><path d="M60.49 43.84h-6.86a2.07 2.07 0 0 1-2.07-2.07V17.91a2.07 2.07 0 0 1 2.07-2.07h6.87a2.07 2.07 0 0 1 2.06 2.07v23.86a2.07 2.07 0 0 1-2.07 2.07m.07-26h-7v24h7z" class="clr-i-outline clr-i-outline-path-2"/><path d="M2.07 43.44A2.07 2.07 0 0 1 0 41.37V18.16a2.07 2.07 0 0 1 3-1.85l23.21 11.61a2.07 2.07 0 0 1 0 3.7L3 43.22a2.06 2.06 0 0 1-.93.22m0-25.34-.07.06v23.21l.1.06 23.21-11.59a.06.06 0 0 0 0-.06z" class="clr-i-outline clr-i-outline-path-1"/></svg>