<?xml version="1.0" encoding="UTF-8" standalone="no"?>
<!-- Uploaded to: SVG Repo, www.svgrepo.com, Generator: SVG Repo Mixer Tools -->

<svg
   fill="#010101"
   width="1390.222"
   height="1390.222"
   viewBox="0 0 62.559992 62.559991"
   version="1.1"
   preserveAspectRatio="xMidYMid"
   id="svg105760"
   xmlns="http://www.w3.org/2000/svg"
   xmlns:svg="http://www.w3.org/2000/svg"
   xmlns:rdf="http://www.w3.org/1999/02/22-rdf-syntax-ns#"
   xmlns:cc="http://creativecommons.org/ns#"
   xmlns:dc="http://purl.org/dc/elements/1.1/">
  <defs
     id="defs105764" />
  <title
     id="title105752">pause-line</title>
  <path
     class="clr-i-outline clr-i-outline-path-1"
     d="m 43.490005,43.84 h -6.86 a 2.07,2.07 0 0 1 -2.07,-2.07 V 17.91 a 2.07,2.07 0 0 1 2.07,-2.07 h 6.87 a 2.07,2.07 0 0 1 2.06,2.07 v 23.86 a 2.07,2.07 0 0 1 -2.07,2.07 z m 0.07,-26 h -7 v 24 h 7 z"
     id="path105754" />
  <path
     class="clr-i-outline clr-i-outline-path-2"
     d="m 60.490005,43.84 h -6.86 a 2.07,2.07 0 0 1 -2.07,-2.07 V 17.91 a 2.07,2.07 0 0 1 2.07,-2.07 h 6.87 a 2.07,2.07 0 0 1 2.06,2.07 v 23.86 a 2.07,2.07 0 0 1 -2.07,2.07 z m 0.07,-26 h -7 v 24 h 7 z"
     id="path105756" />
  <path
     class="clr-i-outline clr-i-outline-path-1"
     d="M 2.0699951,43.44 A 2.07,2.07 0 0 1 1.0951362e-7,41.37 V 18.159999 A 2.07,2.07 0 0 1 2.9999951,16.309999 L 26.209995,27.92 a 2.07,2.07 0 0 1 0,3.7 L 2.9999951,43.22 a 2.06,2.06 0 0 1 -0.93,0.22 z m 0,-25.340001 -0.07,0.06 V 41.37 l 0.1,0.06 23.2099999,-11.59 a 0.06,0.06 0 0 0 0,-0.06 z"
     id="path105575" />
  <metadata
     id="metadata105910">
    <rdf:RDF>
      <cc:Work
         rdf:about="">
        <dc:title>pause-line</dc:title>
      </cc:Work>
    </rdf:RDF>
  </metadata>
</svg>
