<?xml version="1.0" encoding="UTF-8" standalone="no"?>
<!-- Uploaded to: SVG Repo, www.svgrepo.com, Generator: SVG Repo Mixer Tools -->

<svg
   fill="#000000"
   width="1390.222"
   height="1390.222"
   viewBox="0 0 62.559992 62.559991"
   version="1.1"
   preserveAspectRatio="xMidYMid"
   id="svg105760"
   xmlns="http://www.w3.org/2000/svg"
   xmlns:svg="http://www.w3.org/2000/svg"
   xmlns:rdf="http://www.w3.org/1999/02/22-rdf-syntax-ns#"
   xmlns:cc="http://creativecommons.org/ns#"
   xmlns:dc="http://purl.org/dc/elements/1.1/">
  <defs
     id="defs105764" />
  <title
     id="title105752">pause-line</title>
  <metadata
     id="metadata105910">
    <rdf:RDF>
      <cc:Work
         rdf:about="">
        <dc:title>pause-line</dc:title>
      </cc:Work>
    </rdf:RDF>
  </metadata>
  <path
     class="clr-i-outline clr-i-outline-path-1"
     d="m 32.109639,44.09934 a 2,2 0 0 0 0.86,-0.2 1.81,1.81 0 0 0 0.91,-1.79 v -6.7 l 10.76,8.27 a 1.94,1.94 0 0 0 2.06,0.22 2,2 0 0 0 1.11,-1.79 v -24 a 2,2 0 0 0 -1.11,-1.81 1.93,1.93 0 0 0 -2.06,0.22 l -10.76,8.27 v -6.7 a 1.81,1.81 0 0 0 -0.91,-1.79 1.93,1.93 0 0 0 -2.09,0.22 l -15.32,12 a 2,2 0 0 0 0,3.15 l 15.32,12.01 a 2,2 0 0 0 1.23,0.42 z m 0,-12.8 v 10.81 l -15.26,-12 15.32,-12 -0.06,10.81 13.77,-10.83 v 24 z"
     id="path106036" />
</svg>
