<svg xmlns="http://www.w3.org/2000/svg" width="733.333" height="733.333" fill="none" viewBox="0 0 22 22"><path fill="#0f0f0f" fill-rule="evenodd" d="M17.172 0a2 2 0 0 1 1.414.586l2.828 2.828A2 2 0 0 1 22 4.828V19a3 3 0 0 1-3 3H3a3 3 0 0 1-3-3V3a3 3 0 0 1 3-3ZM3 2a1 1 0 0 0-1 1v16a1 1 0 0 0 1 1h1v-6a3 3 0 0 1 3-3h8a3 3 0 0 1 3 3v6h1a1 1 0 0 0 1-1V5.828a2 2 0 0 0-.586-1.414l-1.828-1.828A2 2 0 0 0 16.172 2H16v2a3 3 0 0 1-3 3H9a3 3 0 0 1-3-3V2Zm13 18v-6a1 1 0 0 0-1-1H7a1 1 0 0 0-1 1v6zM8 2h6v2a1 1 0 0 1-1 1H9a1 1 0 0 1-1-1Z" clip-rule="evenodd" style="fill:#01010f;fill-opacity:1"/></svg>