<svg xmlns="http://www.w3.org/2000/svg" width="24" height="24" viewBox="0 0 24 24"><path d="M5 3c-1.09 0-2 .91-2 2v1h2V5h1V3Zm3 0v2h2V3Zm4 0v2h2V3Zm4 0v2h2V3Zm4 0v2h2V3Zm4 0v2h1v1h2V5c0-1.09-.91-2-2-2ZM3 8v2h2V8Zm22 0v2h2V8ZM11 9c-1.09 0-2 .91-2 2v8c0 1.09.91 2 2 2h8c1.09 0 2-.91 2-2v-8c0-1.09-.91-2-2-2Zm0 2h8v8h-8zm-8 1v2h2v-2zm22 0v2h2v-2ZM3 16v2h2v-2zm22 0v2h2v-2ZM3 20v2h2v-2zm22 0v2h2v-2ZM3 24v1c0 1.09.91 2 2 2h1v-2H5v-1zm22 0v1h-1v2h1c1.09 0 2-.91 2-2v-1ZM8 25v2h2v-2zm4 0v2h2v-2zm4 0v2h2v-2zm4 0v2h2v-2z" style="color:#000;font-style:normal;font-variant:normal;font-weight:400;font-stretch:normal;font-size:medium;line-height:normal;font-family:sans-serif;font-variant-ligatures:normal;font-variant-position:normal;font-variant-caps:normal;font-variant-numeric:normal;font-variant-alternates:normal;font-feature-settings:normal;text-indent:0;text-align:start;text-decoration:none;text-decoration-line:none;text-decoration-style:solid;text-decoration-color:#000;letter-spacing:normal;word-spacing:normal;text-transform:none;writing-mode:lr-tb;direction:ltr;text-orientation:mixed;dominant-baseline:auto;baseline-shift:baseline;text-anchor:start;white-space:normal;shape-padding:0;clip-rule:nonzero;display:inline;overflow:visible;visibility:visible;opacity:1;isolation:auto;mix-blend-mode:normal;color-interpolation:sRGB;color-interpolation-filters:linearRGB;solid-color:#000;solid-opacity:1;vector-effect:none;fill:#010101;fill-opacity:1;fill-rule:nonzero;stroke:none;stroke-width:2;stroke-linecap:butt;stroke-linejoin:miter;stroke-miterlimit:4;stroke-dasharray:none;stroke-dashoffset:0;stroke-opacity:1;color-rendering:auto;image-rendering:auto;shape-rendering:auto;text-rendering:auto" transform="translate(-3 -3)"/></svg>