<?xml version="1.0" encoding="UTF-8" standalone="no"?>
<svg
   width="666.66699"
   height="666.66699"
   viewBox="0 0 20.00001 20.00001"
   version="1.1"
   id="svg53848"
   sodipodi:docname="space.svg"
   inkscape:version="1.2.2 (b0a8486541, 2022-12-01)"
   xmlns:inkscape="http://www.inkscape.org/namespaces/inkscape"
   xmlns:sodipodi="http://sodipodi.sourceforge.net/DTD/sodipodi-0.dtd"
   xmlns="http://www.w3.org/2000/svg"
   xmlns:svg="http://www.w3.org/2000/svg"
   xmlns:rdf="http://www.w3.org/1999/02/22-rdf-syntax-ns#"
   xmlns:cc="http://creativecommons.org/ns#"
   xmlns:dc="http://purl.org/dc/elements/1.1/">
  <defs
     id="defs53852" />
  <sodipodi:namedview
     id="namedview53850"
     pagecolor="#ffffff"
     bordercolor="#111111"
     borderopacity="1"
     inkscape:showpageshadow="0"
     inkscape:pageopacity="0"
     inkscape:pagecheckerboard="1"
     inkscape:deskcolor="#d1d1d1"
     showgrid="false"
     inkscape:zoom="1.18"
     inkscape:rotation="-1"
     inkscape:cx="446.44763"
     inkscape:cy="450.23304"
     inkscape:current-layer="svg53848" />
  <!-- Uploaded to: SVG Repo, www.svgrepo.com, Generator: SVG Repo Mixer Tools -->
  <title
     id="title53841">ic_fluent_spacebar_24_regular</title>
  <desc
     id="desc53843">Created with Sketch.</desc>
  <g
     id="ðŸ”-Product-Icons"
     stroke="none"
     stroke-width="1"
     fill="none"
     fill-rule="evenodd"
     transform="translate(-2,-2.63)">
    <g
       id="ic_fluent_spacebar_24_regular"
       fill="#000000"
       fill-rule="nonzero">
      <path
         d="m 20.5,11 v 2 c 0,0.138071 -0.111929,0.25 -0.25,0.25 H 3.75 C 3.6119288,13.25 3.5,13.138071 3.5,13 V 11 C 3.5,10.585786 3.1642136,10.25 2.75,10.25 2.3357864,10.25 2,10.585786 2,11 c 0,0.444444 0,1.111111 0,2 0,0.966498 0.7835017,1.75 1.75,1.75 h 16.5 C 21.216498,14.75 22,13.966498 22,13 v -2 c 0,-0.414214 -0.335786,-0.75 -0.75,-0.75 -0.414214,0 -0.75,0.335786 -0.75,0.75 z"
         id="ðŸŽ¨-Color" />
    </g>
  </g>
  <metadata
     id="metadata53971">
    <rdf:RDF>
      <cc:Work
         rdf:about="">
        <dc:title>ic_fluent_spacebar_24_regular</dc:title>
      </cc:Work>
    </rdf:RDF>
  </metadata>
</svg>
