<?xml version="1.0" encoding="UTF-8" standalone="no"?>
<svg
   width="666.65997"
   height="666.65997"
   viewBox="0 0 19.999799 19.999799"
   version="1.1"
   id="svg66047"
   xmlns="http://www.w3.org/2000/svg"
   xmlns:svg="http://www.w3.org/2000/svg"
   xmlns:rdf="http://www.w3.org/1999/02/22-rdf-syntax-ns#"
   xmlns:cc="http://creativecommons.org/ns#"
   xmlns:dc="http://purl.org/dc/elements/1.1/">
  <defs
     id="defs66051" />
  <!-- Uploaded to: SVG Repo, www.svgrepo.com, Generator: SVG Repo Mixer Tools -->
  <title
     id="title66040">ic_fluent_arrow_import_24_regular</title>
  <desc
     id="desc66042">Created with Sketch.</desc>
  <g
     id="ðŸ”-System-Icons"
     stroke="none"
     stroke-width="1"
     fill="none"
     fill-rule="evenodd"
     transform="translate(-2.0001989,-1.92)">
    <g
       id="ic_fluent_arrow_import_24_regular"
       fill="#010101"
       fill-rule="nonzero">
      <path
         d="m 21.25,7.98 c 0.379696,0 0.693491,0.2821539 0.743153,0.6482294 L 22,8.73 v 6.164053 c 0,0.414214 -0.335786,0.75 -0.75,0.75 -0.379696,0 -0.693491,-0.282154 -0.743153,-0.648229 L 20.5,14.894053 V 8.73 c 0,-0.4142136 0.335786,-0.75 0.75,-0.75 z m -8.602902,-1.676274 0.07263,-0.084111 c 0.266294,-0.266239 0.68296,-0.290402 0.976549,-0.072517 l 0.08411,0.072627 4.996613,4.997645 c 0.26609,0.266146 0.290394,0.682533 0.07283,0.976123 l -0.07253,0.08412 -4.996613,5.003445 c -0.292693,0.293094 -0.767566,0.293418 -1.06066,7.25e-4 -0.266448,-0.266084 -0.290939,-0.682731 -0.07329,-0.976492 l 0.07256,-0.08417 3.710891,-3.717123 -13.6800001,9.46e-4 c -0.3796958,0 -0.693491,-0.282154 -0.7431534,-0.648229 l -0.00685,-0.101771 c 0,-0.379696 0.2821539,-0.693491 0.6482295,-0.743153 L 2.7501989,11.004946 16.443199,11.004 12.719615,7.2802753 C 12.453376,7.0139812 12.429213,6.597315 12.647098,6.303726 l 0.07263,-0.084111 z"
         id="ðŸŽ¨-Color" />
    </g>
  </g>
  <metadata
     id="metadata66170">
    <rdf:RDF>
      <cc:Work
         rdf:about="">
        <dc:title>ic_fluent_arrow_import_24_regular</dc:title>
      </cc:Work>
    </rdf:RDF>
  </metadata>
</svg>
