<svg xmlns="http://www.w3.org/2000/svg" width="719.976" height="719.976" fill="none" viewBox="0 0 25.199 25.199"><path fill="#010101" d="M12.395 1.39c.798-.748 2.105-.182 2.105.912v18.37c0 1.095-1.306 1.66-2.105.913l-4.937-4.626a1.75 1.75 0 0 0-1.196-.473H3.25A3.25 3.25 0 0 1 0 13.236V9.744a3.25 3.25 0 0 1 3.25-3.25h3.011c.445 0 .873-.17 1.197-.474zM13 2.88 8.484 7.114a3.25 3.25 0 0 1-2.223.88H3.25a1.75 1.75 0 0 0-1.75 1.75v3.492c0 .966.784 1.75 1.75 1.75h3.012c.825 0 1.62.314 2.222.878L13 20.096Zm6.81 12.495a.75.75 0 0 0 1.5.005l.012-3.148 3.126.006a.75.75 0 0 0 .003-1.5l-3.13-.006-.01-3.136a.75.75 0 0 0-1.5.006l.01 3.13-3.152.006a.75.75 0 1 0 .004 1.5l3.149-.006z"/></svg>