<?xml version="1.0" encoding="UTF-8" standalone="no"?>
<!-- Uploaded to: SVG Repo, www.svgrepo.com, Generator: SVG Repo Mixer Tools -->

<svg
   width="719.97601"
   height="719.97601"
   viewBox="0 0 25.19916 25.19916"
   fill="none"
   version="1.1"
   id="svg54768"
   sodipodi:docname="volume-down.svg"
   inkscape:version="1.2.2 (b0a8486541, 2022-12-01)"
   xmlns:inkscape="http://www.inkscape.org/namespaces/inkscape"
   xmlns:sodipodi="http://sodipodi.sourceforge.net/DTD/sodipodi-0.dtd"
   xmlns="http://www.w3.org/2000/svg"
   xmlns:svg="http://www.w3.org/2000/svg">
  <sodipodi:namedview
     id="namedview59064"
     pagecolor="#ffffff"
     bordercolor="#111111"
     borderopacity="1"
     inkscape:showpageshadow="0"
     inkscape:pageopacity="0"
     inkscape:pagecheckerboard="1"
     inkscape:deskcolor="#d1d1d1"
     showgrid="false"
     inkscape:zoom="2.0000711"
     inkscape:cx="351.98749"
     inkscape:cy="305.98912"
     inkscape:current-layer="svg54768" />
  <defs
     id="defs54772" />
  <path
     d="m 12.395,1.3906742 c 0.7982,-0.74859999 2.105,-0.18258 2.105,0.91181 V 20.672534 c 0,1.0942 -1.3063,1.6603 -2.1047,0.9121 l -4.9369804,-4.6261 c -0.32432,-0.3039 -0.75213,-0.473 -1.19658,-0.473 H 3.25 c -1.79493,0 -3.25,-1.4551 -3.25,-3.25 v -3.492 C 0,7.9486342 1.45508,6.4935242 3.25,6.4935242 h 3.0111896 c 0.44468,0 0.87269,-0.16929 1.19707,-0.47347 z m 0.605,1.48897 -4.5157004,4.23458 c -0.6024,0.56491 -1.39727,0.87931 -2.22311,0.87931 H 3.25 c -0.9665,0 -1.75,0.7835 -1.75,1.7499998 v 3.492 c 0,0.9665 0.7835,1.75 1.75,1.75 h 3.0117396 c 0.82541,0 1.61991,0.3141 2.22226,0.8784 L 13,20.095634 Z"
     fill="#000"
     id="path54764" />
  <path
     d="m 24.447644,12.238249 c 0.414148,8.95e-4 0.75066,-0.334203 0.751523,-0.748412 9.19e-4,-0.414152 -0.334179,-0.750664 -0.748402,-0.751513 -6.005348,0 -1.361301,0 -7.781369,0 -0.414222,8.48e-4 -0.749249,0.337291 -0.748401,0.751513 8.49e-4,0.414224 0.337361,0.749322 0.751583,0.748473 5.994609,-6.1e-5 1.531009,-1.6e-5 7.775066,-6.1e-5 z"
     fill="#000"
     id="path54766"
     sodipodi:nodetypes="ccccscc" />
</svg>
