<svg xmlns="http://www.w3.org/2000/svg" width="666.666" height="666.666" fill="none" viewBox="0 0 20 20"><path fill="#000" fill-rule="evenodd" d="M2 9a7 7 0 1 1 14 0A7 7 0 0 1 2 9m7-9a9 9 0 1 0 5.618 16.032l3.675 3.675a1 1 0 0 0 1.414-1.414l-3.675-3.675A9 9 0 0 0 9 0" clip-rule="evenodd" style="fill:#010101;fill-opacity:1"/><path fill="#000" fill-rule="evenodd" d="M8 12a1 1 0 1 0 2 0v-2h2a1 1 0 1 0 0-2h-2V6a1 1 0 1 0-2 0v2H6a1 1 0 1 0 0 2h2z" clip-rule="evenodd" style="fill:#010101;fill-opacity:1"/></svg>