<?xml version="1.0" encoding="UTF-8" standalone="no"?>
<!-- Creator: CorelDRAW X6 -->

<svg
   xml:space="preserve"
   width="14.61869in"
   height="5.402348in"
   version="1.0"
   style="clip-rule:evenodd;fill-rule:evenodd;image-rendering:optimizeQuality;shape-rendering:geometricPrecision;text-rendering:geometricPrecision"
   viewBox="0 0 6990.8364 2583.7497"
   id="svg496"
   sodipodi:docname="ergodox_ez.svg"
   inkscape:version="1.2.2 (b0a8486541, 2022-12-01)"
   xmlns:inkscape="http://www.inkscape.org/namespaces/inkscape"
   xmlns:sodipodi="http://sodipodi.sourceforge.net/DTD/sodipodi-0.dtd"
   xmlns="http://www.w3.org/2000/svg"
   xmlns:svg="http://www.w3.org/2000/svg"
   xmlns:rdf="http://www.w3.org/1999/02/22-rdf-syntax-ns#"
   xmlns:cc="http://creativecommons.org/ns#"><sodipodi:namedview
   id="namedview498"
   pagecolor="#ffffff"
   bordercolor="#111111"
   borderopacity="1"
   inkscape:showpageshadow="0"
   inkscape:pageopacity="0"
   inkscape:pagecheckerboard="1"
   inkscape:deskcolor="#d1d1d1"
   inkscape:document-units="in"
   showgrid="false"
   inkscape:zoom="1.0301868"
   inkscape:cx="616.87841"
   inkscape:cy="560.0926"
   inkscape:current-layer="Layer_x0020_1"
   showguides="true"><sodipodi:guide
     position="4511.4395,-815.91423"
     orientation="0,-1"
     id="guide601"
     inkscape:locked="false" /></sodipodi:namedview>
 <defs
   id="defs164">
  <style
   type="text/css"
   id="style162">
   <![CDATA[
    .str0 {stroke:#2B2A29;stroke-width:1.4348}
    .str1 {stroke:#2B2A29;stroke-width:3.32149}
    .fil0 {fill:none}
   ]]>
  </style>
 </defs>
 <g
   id="Layer_x0020_1"
   inkscape:label="Layer 1"
   inkscape:groupmode="layer"
   transform="translate(-0.66315414,-0.28259999)">
  <metadata
   id="CorelCorpID_0Corel-Layer" />
  
  
  
  
  
  
  
  
  
  
  
  
  
  
  
  
  
  
  
  
  
  
  
  
  
  
  
  
  
  
  
  
  
  
  
  
  
  
  
  
  
  
  
  
  
  
  
  
  
  
  
  
  
  
  
  
  
  
  
  
  
  
  
  
  
  
  
  
  
  
  
  
  
  
  
  
  
  
  
  
  
  
  
  
  
  
  
  
  <rect
   class="fil0 str0"
   x="-6792.2334"
   y="1526"
   width="358"
   height="358"
   rx="32"
   ry="32"
   id="rect343"
   transform="scale(-1,1)" />
  <rect
   class="fil0 str0"
   transform="matrix(-0.90630779,0.42261825,0.4226185,0.90630768,0,0)"
   width="357.54889"
   height="358.04202"
   rx="32.139229"
   ry="32.365379"
   id="rect345"
   x="-2858.1885"
   y="3670.0588" />
  <rect
   class="fil0 str0"
   x="-6434.2334"
   y="91"
   width="358"
   height="358"
   rx="32"
   ry="32"
   id="rect347"
   transform="scale(-1,1)" />
  <rect
   class="fil0 str0"
   x="-6434.2334"
   y="450"
   width="358"
   height="358"
   rx="32"
   ry="32"
   id="rect349"
   transform="scale(-1,1)" />
  <rect
   class="fil0 str0"
   x="-6434.2334"
   y="808"
   width="358"
   height="358"
   rx="32"
   ry="32"
   id="rect351"
   transform="scale(-1,1)" />
  <rect
   class="fil0 str0"
   x="-6434.2334"
   y="1167"
   width="358"
   height="358"
   rx="32"
   ry="32"
   id="rect353"
   transform="scale(-1,1)" />
  <rect
   class="fil0 str0"
   x="-6434.2334"
   y="1526"
   width="358"
   height="358"
   rx="32"
   ry="32"
   id="rect355"
   transform="scale(-1,1)" />
  <rect
   class="fil0 str0"
   x="-6075.2334"
   y="30.999998"
   width="358"
   height="358"
   rx="32"
   ry="32"
   id="rect357"
   transform="scale(-1,1)" />
  <rect
   class="fil0 str0"
   x="-6075.2334"
   y="390"
   width="358"
   height="358"
   rx="32"
   ry="32"
   id="rect359"
   transform="scale(-1,1)" />
  <rect
   class="fil0 str0"
   x="-6075.2334"
   y="748"
   width="358"
   height="358"
   rx="32"
   ry="32"
   id="rect361"
   transform="scale(-1,1)" />
  <rect
   class="fil0 str0"
   x="-6075.2334"
   y="1107"
   width="358"
   height="358"
   rx="32"
   ry="32"
   id="rect363"
   transform="scale(-1,1)" />
  <rect
   class="fil0 str0"
   x="-6075.2334"
   y="1466"
   width="358"
   height="358"
   rx="32"
   ry="32"
   id="rect365"
   transform="scale(-1,1)" />
  <rect
   class="fil0 str0"
   x="-5716.2334"
   y="1"
   width="358"
   height="358"
   rx="32"
   ry="32"
   id="rect367"
   transform="scale(-1,1)" />
  <rect
   class="fil0 str0"
   x="-5716.2334"
   y="360"
   width="358"
   height="358"
   rx="32"
   ry="32"
   id="rect369"
   transform="scale(-1,1)" />
  <rect
   class="fil0 str0"
   x="-5716.2334"
   y="718"
   width="358"
   height="358"
   rx="32"
   ry="32"
   id="rect371"
   transform="scale(-1,1)" />
  <rect
   class="fil0 str0"
   x="-5716.2334"
   y="1077"
   width="358"
   height="358"
   rx="32"
   ry="32"
   id="rect373"
   transform="scale(-1,1)" />
  <rect
   class="fil0 str0"
   x="-5716.2334"
   y="1436"
   width="358"
   height="358"
   rx="32"
   ry="32"
   id="rect375"
   transform="scale(-1,1)" />
  <rect
   class="fil0 str0"
   x="-5357.2334"
   y="30.999998"
   width="358"
   height="358"
   rx="32"
   ry="32"
   id="rect377"
   transform="scale(-1,1)" />
  <rect
   class="fil0 str0"
   x="-5357.2334"
   y="390"
   width="358"
   height="358"
   rx="32"
   ry="32"
   id="rect379"
   transform="scale(-1,1)" />
  <rect
   class="fil0 str0"
   x="-5357.2334"
   y="748"
   width="358"
   height="358"
   rx="32"
   ry="32"
   id="rect381"
   transform="scale(-1,1)" />
  <rect
   class="fil0 str0"
   x="-5357.2334"
   y="1107"
   width="358"
   height="358"
   rx="32"
   ry="32"
   id="rect383"
   transform="scale(-1,1)" />
  <rect
   class="fil0 str0"
   x="-5357.2334"
   y="1466"
   width="358"
   height="358"
   rx="32"
   ry="32"
   id="rect385"
   transform="scale(-1,1)" />
  <rect
   class="fil0 str0"
   x="-4999.2334"
   y="55"
   width="358"
   height="358"
   rx="32"
   ry="32"
   id="rect387"
   transform="scale(-1,1)" />
  <rect
   class="fil0 str0"
   x="-4999.2334"
   y="414"
   width="358"
   height="358"
   rx="32"
   ry="32"
   id="rect389"
   transform="scale(-1,1)" />
  <rect
   class="fil0 str0"
   x="-4999.2334"
   y="772"
   width="358"
   height="358"
   rx="32"
   ry="32"
   id="rect391"
   transform="scale(-1,1)" />
  <rect
   class="fil0 str0"
   x="-4999.2334"
   y="1131"
   width="358"
   height="358"
   rx="32"
   ry="32"
   id="rect393"
   transform="scale(-1,1)" />
  <rect
   class="fil0 str0"
   x="-6971.2334"
   y="91"
   width="537"
   height="358"
   rx="32"
   ry="32"
   id="rect395"
   transform="scale(-1,1)" />
  <rect
   class="fil0 str0"
   x="-6971.2334"
   y="450"
   width="537"
   height="358"
   rx="32"
   ry="32"
   id="rect397"
   transform="scale(-1,1)" />
  <rect
   class="fil0 str0"
   x="-6971.2334"
   y="808"
   width="537"
   height="358"
   rx="32"
   ry="32"
   id="rect399"
   transform="scale(-1,1)" />
  <rect
   class="fil0 str0"
   x="-6971.2334"
   y="1167"
   width="537"
   height="358"
   rx="32"
   ry="32"
   id="rect401"
   transform="scale(-1,1)" />
  <rect
   class="fil0 str0"
   transform="matrix(0,1,1,0,0,0)"
   width="536.32111"
   height="358.04269"
   rx="48.208641"
   ry="32.36544"
   id="rect403"
   x="413.93994"
   y="4282.5732" />
  <rect
   class="fil0 str0"
   transform="matrix(0,1,1,0,0,0)"
   width="536.32111"
   height="358.04269"
   rx="48.208641"
   ry="32.36544"
   id="rect405"
   x="951.98999"
   y="4282.5732" />
  <rect
   class="fil0 str0"
   x="-4640.2334"
   y="55"
   width="358"
   height="358"
   rx="32"
   ry="32"
   id="rect407"
   transform="scale(-1,1)" />
  <rect
   class="fil0 str0"
   transform="matrix(-0.90630779,0.42261825,0.4226185,0.90630768,0,0)"
   width="357.54889"
   height="358.04202"
   rx="32.139229"
   ry="32.365379"
   id="rect409"
   x="-2858.1982"
   y="3311.322" />
  <rect
   class="fil0 str0"
   transform="matrix(-0.90630779,0.42261825,0.4226185,0.90630768,0,0)"
   width="357.54889"
   height="358.04202"
   rx="32.139229"
   ry="32.365379"
   id="rect411"
   x="-2863.064"
   y="2974.5779" />
  <rect
   class="fil0 str0"
   transform="matrix(-0.90630779,0.42261825,0.4226185,0.90630768,0,0)"
   width="357.54889"
   height="358.04202"
   rx="32.139229"
   ry="32.365379"
   id="rect413"
   x="-3216.8977"
   y="2952.6721" />
  <rect
   class="fil0 str0"
   transform="matrix(0.42261863,0.90630761,0.90630768,-0.4226185,0,0)"
   width="715.09717"
   height="358.04202"
   rx="64.278397"
   ry="32.365379"
   id="rect415"
   x="3311.8257"
   y="2859.1108" />
  <rect
   class="fil0 str0"
   transform="matrix(0.42261863,0.90630761,0.90630768,-0.4226185,0,0)"
   width="715.09717"
   height="358.04202"
   rx="64.278397"
   ry="32.365379"
   id="rect417"
   x="3311.8013"
   y="3217.7974" />
  <path
   class="fil0 str1"
   d="m 6613.2334,1571 c 38,0 74,3 107,7 v 0 c 10,2 16,6 18,15 5,35 8,72 8,111 0,39 -3,76 -8,111 -2,8 -8,13 -18,15 -34,5 -70,7 -107,7 -38,0 -74,-3 -107,-7 v 0 c -10,-1 -16,-6 -18,-14 -5,-35 -8,-72 -8,-112 0,-39 3,-77 8,-112 2,-8 8,-12 17,-14 34,-5 70,-7 108,-7 z"
   id="path419" />
  <path
   class="fil0 str1"
   d="m 4328.2334,1220 c 0,-64 3,-125 7,-182 v 0 c 2,-17 6,-28 15,-31 35,-9 72,-13 111,-13 39,0 76,5 111,13 8,3 13,13 15,31 5,57 7,118 7,182 0,64 -3,125 -7,182 v 0 c -1,17 -6,27 -14,30 -35,9 -72,14 -112,14 -39,0 -77,-5 -112,-13 -8,-3 -12,-13 -14,-28 -5,-58 -7,-120 -7,-184 z"
   id="path421" />
  <path
   class="fil0 str1"
   d="m 4435.2334,2323 c -34,16 -69,26 -104,30 v 0 c -11,1 -21,-7 -31,-24 -39,-71 -78,-149 -117,-231 -38,-82 -73,-163 -102,-238 -7,-19 -6,-32 2,-39 26,-24 56,-45 90,-61 34,-16 69,-26 104,-30 v 0 c 10,-1 20,6 30,22 39,72 79,150 117,233 39,83 73,164 103,240 6,17 5,29 -1,37 -26,25 -56,46 -91,62 z"
   id="path423" />
  <path
   class="fil0 str1"
   d="m 4820.2334,101 c 38,0 74,3 107,7 v 0 c 10,2 16,6 18,15 5,35 8,72 8,111 0,39 -3,76 -8,111 -2,8 -8,13 -18,15 -34,5 -70,7 -107,7 -38,0 -74,-3 -107,-7 v 0 c -10,-1 -16,-6 -18,-14 -5,-35 -8,-72 -8,-112 0,-39 3,-77 8,-112 2,-8 8,-12 17,-14 34,-5 70,-7 108,-7 z"
   id="path425" />
  <path
   class="fil0 str1"
   d="m 5179.2334,77 c 38,0 74,3 107,7.000003 v 0 c 10,2 16,6 18,15 5,34.999997 8,71.999997 8,110.999997 0,39 -3,76 -8,111 -2,8 -8,13 -18,15 -34,5 -70,7 -107,7 -38,0 -74,-3 -107,-7 v 0 c -10,-1 -16,-6 -18,-14 -5,-35 -8,-72 -8,-112 0,-39 3,-77 8,-111.999997 2,-8 8,-12 17,-14 34,-5.000003 70,-7.000003 108,-7.000003 z"
   id="path427" />
  <path
   class="fil0 str1"
   d="m 5537.2334,47 c 38,0 74,3 107,7 v 0 c 10,2 16,6 18,15 5,35 8,72 8,111 0,39 -3,76 -8,111 -2,8 -8,13 -18,15 -34,5 -70,7 -107,7 -38,0 -74,-3 -107,-7 v 0 c -10,-1 -16,-6 -18,-14 -5,-35 -8,-72 -8,-112 0,-39 3,-77 8,-112 2,-8 8,-12 17,-14 34,-5 70,-7 108,-7 z"
   id="path429" />
  <path
   class="fil0 str1"
   d="m 5896.2334,77 c 38,0 74,3 107,7.000003 v 0 c 10,2 16,6 18,15 5,34.999997 8,71.999997 8,110.999997 0,39 -3,76 -8,111 -2,8 -8,13 -18,15 -34,5 -70,7 -107,7 -38,0 -74,-3 -107,-7 v 0 c -10,-1 -16,-6 -18,-14 -5,-35 -8,-72 -8,-112 0,-39 3,-77 8,-111.999997 2,-8 8,-12 17,-14 34,-5.000003 70,-7.000003 108,-7.000003 z"
   id="path431" />
  <path
   class="fil0 str1"
   d="m 6255.2334,137 c 38,0 74,3 107,7 v 0 c 10,2 16,6 18,15 5,35 8,72 8,111 0,39 -3,76 -8,111 -2,8 -8,13 -18,15 -34,5 -70,7 -107,7 -38,0 -74,-3 -107,-7 v 0 c -10,-1 -16,-6 -18,-14 -5,-35 -8,-72 -8,-112 0,-39 3,-77 8,-112 2,-8 8,-12 17,-14 34,-5 70,-7 108,-7 z"
   id="path433" />
  <path
   class="fil0 str1"
   d="m 4820.2334,459 c 38,0 74,3 107,7 v 0 c 10,2 16,6 18,15 5,35 8,72 8,111 0,39 -3,76 -8,111 -2,8 -8,13 -18,15 -34,5 -70,7 -107,7 -38,0 -74,-3 -107,-7 v 0 c -10,-1 -16,-6 -18,-14 -5,-35 -8,-72 -8,-112 0,-39 3,-77 8,-112 2,-8 8,-12 17,-14 34,-5 70,-7 108,-7 z"
   id="path435" />
  <path
   class="fil0 str1"
   d="m 5179.2334,436 c 38,0 74,3 107,7 v 0 c 10,2 16,6 18,15 5,35 8,72 8,111 0,39 -3,76 -8,111 -2,8 -8,13 -18,15 -34,5 -70,7 -107,7 -38,0 -74,-3 -107,-7 v 0 c -10,-1 -16,-6 -18,-14 -5,-35 -8,-72 -8,-112 0,-39 3,-77 8,-112 2,-8 8,-12 17,-14 34,-5 70,-7 108,-7 z"
   id="path437" />
  <path
   class="fil0 str1"
   d="m 5537.2334,405 c 38,0 74,3 107,7 v 0 c 10,2 16,6 18,15 5,35 8,72 8,111 0,39 -3,76 -8,111 -2,8 -8,13 -18,15 -34,5 -70,7 -107,7 -38,0 -74,-3 -107,-7 v 0 c -10,-1 -16,-6 -18,-14 -5,-35 -8,-72 -8,-112 0,-39 3,-77 8,-112 2,-8 8,-12 17,-14 34,-5 70,-7 108,-7 z"
   id="path439" />
  <path
   class="fil0 str1"
   d="m 5896.2334,436 c 38,0 74,3 107,7 v 0 c 10,2 16,6 18,15 5,35 8,72 8,111 0,39 -3,76 -8,111 -2,8 -8,13 -18,15 -34,5 -70,7 -107,7 -38,0 -74,-3 -107,-7 v 0 c -10,-1 -16,-6 -18,-14 -5,-35 -8,-72 -8,-112 0,-39 3,-77 8,-112 2,-8 8,-12 17,-14 34,-5 70,-7 108,-7 z"
   id="path441" />
  <path
   class="fil0 str1"
   d="m 6255.2334,495 c 38,0 74,3 107,7 v 0 c 10,2 16,6 18,15 5,35 8,72 8,111 0,39 -3,76 -8,111 -2,8 -8,13 -18,15 -34,5 -70,7 -107,7 -38,0 -74,-3 -107,-7 v 0 c -10,-1 -16,-6 -18,-14 -5,-35 -8,-72 -8,-112 0,-39 3,-77 8,-112 2,-8 8,-12 17,-14 34,-5 70,-7 108,-7 z"
   id="path443" />
  <path
   class="fil0 str1"
   d="m 4820.2334,818 c 38,0 74,3 107,7 v 0 c 10,2 16,6 18,15 5,35 8,72 8,111 0,39 -3,76 -8,111 -2,8 -8,13 -18,15 -34,5 -70,7 -107,7 -38,0 -74,-3 -107,-7 v 0 c -10,-1 -16,-6 -18,-14 -5,-35 -8,-72 -8,-112 0,-39 3,-77 8,-112 2,-8 8,-12 17,-14 34,-5 70,-7 108,-7 z"
   id="path445" />
  <path
   class="fil0 str1"
   d="m 5179.2334,794 c 38,0 74,3 107,7 v 0 c 10,2 16,6 18,15 5,35 8,72 8,111 0,39 -3,76 -8,111 -2,8 -8,13 -18,15 -34,5 -70,7 -107,7 -38,0 -74,-3 -107,-7 v 0 c -10,-1 -16,-6 -18,-14 -5,-35 -8,-72 -8,-112 0,-39 3,-77 8,-112 2,-8 8,-12 17,-14 34,-5 70,-7 108,-7 z"
   id="path447" />
  <path
   class="fil0 str1"
   d="m 5537.2334,764 c 38,0 74,3 107,7 v 0 c 10,2 16,6 18,15 5,35 8,72 8,111 0,39 -3,76 -8,111 -2,8 -8,13 -18,15 -34,5 -70,7 -107,7 -38,0 -74,-3 -107,-7 v 0 c -10,-1 -16,-6 -18,-14 -5,-35 -8,-72 -8,-112 0,-39 3,-77 8,-112 2,-8 8,-12 17,-14 34,-5 70,-7 108,-7 z"
   id="path449" />
  <path
   class="fil0 str1"
   d="m 5896.2334,794 c 38,0 74,3 107,7 v 0 c 10,2 16,6 18,15 5,35 8,72 8,111 0,39 -3,76 -8,111 -2,8 -8,13 -18,15 -34,5 -70,7 -107,7 -38,0 -74,-3 -107,-7 v 0 c -10,-1 -16,-6 -18,-14 -5,-35 -8,-72 -8,-112 0,-39 3,-77 8,-112 2,-8 8,-12 17,-14 34,-5 70,-7 108,-7 z"
   id="path451" />
  <path
   class="fil0 str1"
   d="m 6255.2334,854 c 38,0 74,3 107,7 v 0 c 10,2 16,6 18,15 5,35 8,72 8,111 0,39 -3,76 -8,111 -2,8 -8,13 -18,15 -34,5 -70,7 -107,7 -38,0 -74,-3 -107,-7 v 0 c -10,-1 -16,-6 -18,-14 -5,-35 -8,-72 -8,-112 0,-39 3,-77 8,-112 2,-8 8,-12 17,-14 34,-5 70,-7 108,-7 z"
   id="path453" />
  <path
   class="fil0 str1"
   d="m 4820.2334,1177 c 38,0 74,3 107,7 v 0 c 10,2 16,6 18,15 5,35 8,72 8,111 0,39 -3,76 -8,111 -2,8 -8,13 -18,15 -34,5 -70,7 -107,7 -38,0 -74,-3 -107,-7 v 0 c -10,-1 -16,-6 -18,-14 -5,-35 -8,-72 -8,-112 0,-39 3,-77 8,-112 2,-8 8,-12 17,-14 34,-5 70,-7 108,-7 z"
   id="path455" />
  <path
   class="fil0 str1"
   d="m 5179.2334,1153 c 38,0 74,3 107,7 v 0 c 10,2 16,6 18,15 5,35 8,72 8,111 0,39 -3,76 -8,111 -2,8 -8,13 -18,15 -34,5 -70,7 -107,7 -38,0 -74,-3 -107,-7 v 0 c -10,-1 -16,-6 -18,-14 -5,-35 -8,-72 -8,-112 0,-39 3,-77 8,-112 2,-8 8,-12 17,-14 34,-5 70,-7 108,-7 z"
   id="path457" />
  <path
   class="fil0 str1"
   d="m 5537.2334,1123 c 38,0 74,3 107,7 v 0 c 10,2 16,6 18,15 5,35 8,72 8,111 0,39 -3,76 -8,111 -2,8 -8,13 -18,15 -34,5 -70,7 -107,7 -38,0 -74,-3 -107,-7 v 0 c -10,-1 -16,-6 -18,-14 -5,-35 -8,-72 -8,-112 0,-39 3,-77 8,-112 2,-8 8,-12 17,-14 34,-5 70,-7 108,-7 z"
   id="path459" />
  <path
   class="fil0 str1"
   d="m 5896.2334,1153 c 38,0 74,3 107,7 v 0 c 10,2 16,6 18,15 5,35 8,72 8,111 0,39 -3,76 -8,111 -2,8 -8,13 -18,15 -34,5 -70,7 -107,7 -38,0 -74,-3 -107,-7 v 0 c -10,-1 -16,-6 -18,-14 -5,-35 -8,-72 -8,-112 0,-39 3,-77 8,-112 2,-8 8,-12 17,-14 34,-5 70,-7 108,-7 z"
   id="path461" />
  <path
   class="fil0 str1"
   d="m 6255.2334,1213 c 38,0 74,3 107,7 v 0 c 10,2 16,6 18,15 5,35 8,72 8,111 0,39 -3,76 -8,111 -2,8 -8,13 -18,15 -34,5 -70,7 -107,7 -38,0 -74,-3 -107,-7 v 0 c -10,-1 -16,-6 -18,-14 -5,-35 -8,-72 -8,-112 0,-39 3,-77 8,-112 2,-8 8,-12 17,-14 34,-5 70,-7 108,-7 z"
   id="path463" />
  <path
   class="fil0 str1"
   d="m 5179.2334,1512 c 38,0 74,3 107,7 v 0 c 10,2 16,6 18,15 5,35 8,72 8,111 0,39 -3,76 -8,111 -2,8 -8,13 -18,15 -34,5 -70,7 -107,7 -38,0 -74,-3 -107,-7 v 0 c -10,-1 -16,-6 -18,-14 -5,-35 -8,-72 -8,-112 0,-39 3,-77 8,-112 2,-8 8,-12 17,-14 34,-5 70,-7 108,-7 z"
   id="path465" />
  <path
   class="fil0 str1"
   d="m 5537.2334,1482 c 38,0 74,3 107,7 v 0 c 10,2 16,6 18,15 5,35 8,72 8,111 0,39 -3,76 -8,111 -2,8 -8,13 -18,15 -34,5 -70,7 -107,7 -38,0 -74,-3 -107,-7 v 0 c -10,-1 -16,-6 -18,-14 -5,-35 -8,-72 -8,-112 0,-39 3,-77 8,-112 2,-8 8,-12 17,-14 34,-5 70,-7 108,-7 z"
   id="path467" />
  <path
   class="fil0 str1"
   d="m 5896.2334,1512 c 38,0 74,3 107,7 v 0 c 10,2 16,6 18,15 5,35 8,72 8,111 0,39 -3,76 -8,111 -2,8 -8,13 -18,15 -34,5 -70,7 -107,7 -38,0 -74,-3 -107,-7 v 0 c -10,-1 -16,-6 -18,-14 -5,-35 -8,-72 -8,-112 0,-39 3,-77 8,-112 2,-8 8,-12 17,-14 34,-5 70,-7 108,-7 z"
   id="path469" />
  <path
   class="fil0 str1"
   d="m 6255.2334,1571 c 38,0 74,3 107,7 v 0 c 10,2 16,6 18,15 5,35 8,72 8,111 0,39 -3,76 -8,111 -2,8 -8,13 -18,15 -34,5 -70,7 -107,7 -38,0 -74,-3 -107,-7 v 0 c -10,-1 -16,-6 -18,-14 -5,-35 -8,-72 -8,-112 0,-39 3,-77 8,-112 2,-8 8,-12 17,-14 34,-5 70,-7 108,-7 z"
   id="path471" />
  <path
   class="fil0 str1"
   d="m 4111.2334,2477 c -34,16 -68,29 -100,39 v 0 c -10,3 -17,1 -23,-6 -19,-29 -38,-62 -54,-97 -16,-35 -30,-70 -40,-104 -2,-8 2,-15 10,-21 28,-18 60,-36 94,-52 34,-16 68,-29 100,-39 v 0 c 10,-3 17,-1 22,5 19,29 38,62 54,98 17,36 30,71 40,105 1,8 -2,14 -9,20 -29,19 -61,37 -95,53 z"
   id="path473" />
  <path
   class="fil0 str1"
   d="m 3959.2334,2151 c -34,16 -68,29 -100,39 v 0 c -10,3 -17,1 -23,-6 -19,-29 -38,-62 -54,-97 -16,-35 -30,-70 -40,-104 -2,-8 2,-15 10,-21 28,-18 60,-36 94,-52 34,-16 68,-29 100,-39 v 0 c 10,-3 17,-1 22,5 19,29 38,62 54,98 17,36 30,71 40,105 1,8 -2,14 -9,20 -29,19 -61,37 -95,53 z"
   id="path475" />
  <path
   class="fil0 str1"
   d="m 3821.8988,1843.8397 c -34,16 -68,29 -100,39 v 0 c -10,3 -17,1 -23,-6 -19,-29 -38,-62 -54,-97 -16,-35 -30,-70 -40,-104 -2,-8 2,-15 10,-21 28,-18 60,-36 94,-52 34,-16 68,-29 100,-39 v 0 c 10,-3 17,-1 22,5 19,29 38,62 54,98 17,36 30,71 40,105 1,8 -2,14 -9,20 -29,19 -61,37 -95,53 z"
   id="path477" />
  <path
   class="fil0 str1"
   d="m 4133.2334,1675 c -34,16 -68,29 -100,39 v 0 c -10,3 -17,1 -23,-6 -19,-29 -38,-62 -54,-97 -16,-35 -30,-70 -40,-104 -2,-8 2,-15 10,-21 28,-18 60,-36 94,-52 34,-16 68,-29 100,-39 v 0 c 10,-3 17,-1 22,5 19,29 38,62 54,98 17,36 30,71 40,105 1,8 -2,14 -9,20 -29,19 -61,37 -95,53 z"
   id="path479" />
  <path
   class="fil0 str1"
   d="m 4461.2334,101 c 38,0 74,3 107,7 v 0 c 10,2 16,6 18,15 5,35 8,72 8,111 0,39 -3,76 -8,111 -2,8 -8,13 -18,15 -34,5 -70,7 -107,7 -38,0 -74,-3 -107,-7 v 0 c -10,-1 -16,-6 -18,-14 -5,-35 -8,-72 -8,-112 0,-39 3,-77 8,-112 2,-8 8,-12 17,-14 34,-5 70,-7 108,-7 z"
   id="path481" />
  <path
   class="fil0 str1"
   d="m 4760.2334,2172 c -34,16 -69,26 -104,30 v 0 c -11,1 -21,-7 -31,-24 -39,-71 -78,-149 -117,-231 -38,-82 -73,-163 -102,-238 -7,-19 -6,-32 2,-39 26,-24 56,-45 90,-61 34,-16 69,-26 104,-30 v 0 c 10,-1 20,6 30,22 39,72 79,150 117,233 39,83 73,164 103,240 6,17 5,29 -1,37 -26,25 -56,46 -91,62 z"
   id="path483" />
  <path
   class="fil0 str1"
   d="m 6703.2334,1479 c -64,0 -125,-3 -182,-7 v 0 c -17,-2 -28,-6 -31,-15 -9,-35 -13,-72 -13,-111 0,-39 5,-76 13,-111 3,-8 13,-13 31,-15 57,-5 118,-7 182,-7 64,0 125,3 182,7 v 0 c 17,1 27,6 30,14 9,35 14,72 14,112 0,39 -5,77 -13,112 -3,8 -13,12 -28,14 -58,5 -120,7 -184,7 z"
   id="path485" />
  <path
   class="fil0 str1"
   d="m 6703.2334,1120 c -64,0 -125,-3 -182,-7 v 0 c -17,-2 -28,-6 -31,-15 -9,-35 -13,-72 -13,-111 0,-39 5,-76 13,-111 3,-8 13,-13 31,-15 57,-5 118,-7 182,-7 64,0 125,3 182,7 v 0 c 17,1 27,6 30,14 9,35 14,72 14,112 0,39 -5,77 -13,112 -3,8 -13,12 -28,14 -58,5 -120,7 -184,7 z"
   id="path487" />
  <path
   class="fil0 str1"
   d="m 6703.2334,762 c -64,0 -125,-3 -182,-7 v 0 c -17,-2 -28,-6 -31,-15 -9,-35 -13,-72 -13,-111 0,-39 5,-76 13,-111 3,-8 13,-13 31,-15 57,-5 118,-7 182,-7 64,0 125,3 182,7 v 0 c 17,1 27,6 30,14 9,35 14,72 14,112 0,39 -5,77 -13,112 -3,8 -13,12 -28,14 -58,5 -120,7 -184,7 z"
   id="path489" />
  <path
   class="fil0 str1"
   d="m 6703.2334,403 c -64,0 -125,-3 -182,-7 v 0 c -17,-2 -28,-6 -31,-15 -9,-35 -13,-72 -13,-111 0,-39 5,-76 13,-111 3,-8 13,-13 31,-15 57,-5 118,-7 182,-7 64,0 125,3 182,7 v 0 c 17,1 27,6 30,14 9,35 14,72 14,112 0,39 -5,77 -13,112 -3,8 -13,12 -28,14 -58,5 -120,7 -184,7 z"
   id="path491" />
  <path
   class="fil0 str1"
   d="m 4328.2334,682 c 0,-64 3,-125 7,-182 v 0 c 2,-17 6,-28 15,-31 35,-9 72,-13 111,-13 39,0 76,5 111,13 8,3 13,13 15,31 5,57 7,118 7,182 0,64 -3,125 -7,182 v 0 c -1,17 -6,27 -14,30 -35,9 -72,14 -112,14 -39,0 -77,-5 -112,-13 -8,-3 -12,-13 -14,-28 -5,-58 -7,-120 -7,-184 z"
   id="path493" />
 <rect
   class="fil0 str0"
   x="203.6926"
   y="1526"
   width="358"
   height="358"
   rx="32"
   ry="32"
   id="rect343-3"
   style="clip-rule:evenodd;fill:none;fill-rule:evenodd;stroke:#2b2a29;stroke-width:1.4348;image-rendering:optimizeQuality;shape-rendering:geometricPrecision;text-rendering:geometricPrecision" /><rect
   class="fil0 str0"
   transform="rotate(24.999999)"
   width="357.54889"
   height="358.04202"
   rx="32.139229"
   ry="32.365379"
   id="rect345-6"
   x="3482.2734"
   y="713.45282"
   style="clip-rule:evenodd;fill:none;fill-rule:evenodd;stroke:#2b2a29;stroke-width:1.4348;image-rendering:optimizeQuality;shape-rendering:geometricPrecision;text-rendering:geometricPrecision" /><rect
   class="fil0 str0"
   x="561.69257"
   y="91"
   width="358"
   height="358"
   rx="32"
   ry="32"
   id="rect347-7"
   style="clip-rule:evenodd;fill:none;fill-rule:evenodd;stroke:#2b2a29;stroke-width:1.4348;image-rendering:optimizeQuality;shape-rendering:geometricPrecision;text-rendering:geometricPrecision" /><rect
   class="fil0 str0"
   x="561.69257"
   y="450"
   width="358"
   height="358"
   rx="32"
   ry="32"
   id="rect349-5"
   style="clip-rule:evenodd;fill:none;fill-rule:evenodd;stroke:#2b2a29;stroke-width:1.4348;image-rendering:optimizeQuality;shape-rendering:geometricPrecision;text-rendering:geometricPrecision" /><rect
   class="fil0 str0"
   x="561.69257"
   y="808"
   width="358"
   height="358"
   rx="32"
   ry="32"
   id="rect351-3"
   style="clip-rule:evenodd;fill:none;fill-rule:evenodd;stroke:#2b2a29;stroke-width:1.4348;image-rendering:optimizeQuality;shape-rendering:geometricPrecision;text-rendering:geometricPrecision" /><rect
   class="fil0 str0"
   x="561.69257"
   y="1167"
   width="358"
   height="358"
   rx="32"
   ry="32"
   id="rect353-5"
   style="clip-rule:evenodd;fill:none;fill-rule:evenodd;stroke:#2b2a29;stroke-width:1.4348;image-rendering:optimizeQuality;shape-rendering:geometricPrecision;text-rendering:geometricPrecision" /><rect
   class="fil0 str0"
   x="561.69257"
   y="1526"
   width="358"
   height="358"
   rx="32"
   ry="32"
   id="rect355-6"
   style="clip-rule:evenodd;fill:none;fill-rule:evenodd;stroke:#2b2a29;stroke-width:1.4348;image-rendering:optimizeQuality;shape-rendering:geometricPrecision;text-rendering:geometricPrecision" /><rect
   class="fil0 str0"
   x="920.69257"
   y="31"
   width="358"
   height="358"
   rx="32"
   ry="32"
   id="rect357-2"
   style="clip-rule:evenodd;fill:none;fill-rule:evenodd;stroke:#2b2a29;stroke-width:1.4348;image-rendering:optimizeQuality;shape-rendering:geometricPrecision;text-rendering:geometricPrecision" /><rect
   class="fil0 str0"
   x="920.69257"
   y="390"
   width="358"
   height="358"
   rx="32"
   ry="32"
   id="rect359-9"
   style="clip-rule:evenodd;fill:none;fill-rule:evenodd;stroke:#2b2a29;stroke-width:1.4348;image-rendering:optimizeQuality;shape-rendering:geometricPrecision;text-rendering:geometricPrecision" /><rect
   class="fil0 str0"
   x="920.69257"
   y="748"
   width="358"
   height="358"
   rx="32"
   ry="32"
   id="rect361-1"
   style="clip-rule:evenodd;fill:none;fill-rule:evenodd;stroke:#2b2a29;stroke-width:1.4348;image-rendering:optimizeQuality;shape-rendering:geometricPrecision;text-rendering:geometricPrecision" /><rect
   class="fil0 str0"
   x="920.69257"
   y="1107"
   width="358"
   height="358"
   rx="32"
   ry="32"
   id="rect363-2"
   style="clip-rule:evenodd;fill:none;fill-rule:evenodd;stroke:#2b2a29;stroke-width:1.4348;image-rendering:optimizeQuality;shape-rendering:geometricPrecision;text-rendering:geometricPrecision" /><rect
   class="fil0 str0"
   x="920.69257"
   y="1466"
   width="358"
   height="358"
   rx="32"
   ry="32"
   id="rect365-7"
   style="clip-rule:evenodd;fill:none;fill-rule:evenodd;stroke:#2b2a29;stroke-width:1.4348;image-rendering:optimizeQuality;shape-rendering:geometricPrecision;text-rendering:geometricPrecision" /><rect
   class="fil0 str0"
   x="1279.6925"
   y="1"
   width="358"
   height="358"
   rx="32"
   ry="32"
   id="rect367-0"
   style="clip-rule:evenodd;fill:none;fill-rule:evenodd;stroke:#2b2a29;stroke-width:1.4348;image-rendering:optimizeQuality;shape-rendering:geometricPrecision;text-rendering:geometricPrecision" /><rect
   class="fil0 str0"
   x="1279.6925"
   y="360"
   width="358"
   height="358"
   rx="32"
   ry="32"
   id="rect369-9"
   style="clip-rule:evenodd;fill:none;fill-rule:evenodd;stroke:#2b2a29;stroke-width:1.4348;image-rendering:optimizeQuality;shape-rendering:geometricPrecision;text-rendering:geometricPrecision" /><rect
   class="fil0 str0"
   x="1279.6925"
   y="718"
   width="358"
   height="358"
   rx="32"
   ry="32"
   id="rect371-3"
   style="clip-rule:evenodd;fill:none;fill-rule:evenodd;stroke:#2b2a29;stroke-width:1.4348;image-rendering:optimizeQuality;shape-rendering:geometricPrecision;text-rendering:geometricPrecision" /><rect
   class="fil0 str0"
   x="1279.6925"
   y="1077"
   width="358"
   height="358"
   rx="32"
   ry="32"
   id="rect373-6"
   style="clip-rule:evenodd;fill:none;fill-rule:evenodd;stroke:#2b2a29;stroke-width:1.4348;image-rendering:optimizeQuality;shape-rendering:geometricPrecision;text-rendering:geometricPrecision" /><rect
   class="fil0 str0"
   x="1279.6925"
   y="1436"
   width="358"
   height="358"
   rx="32"
   ry="32"
   id="rect375-0"
   style="clip-rule:evenodd;fill:none;fill-rule:evenodd;stroke:#2b2a29;stroke-width:1.4348;image-rendering:optimizeQuality;shape-rendering:geometricPrecision;text-rendering:geometricPrecision" /><rect
   class="fil0 str0"
   x="1638.6925"
   y="31"
   width="358"
   height="358"
   rx="32"
   ry="32"
   id="rect377-6"
   style="clip-rule:evenodd;fill:none;fill-rule:evenodd;stroke:#2b2a29;stroke-width:1.4348;image-rendering:optimizeQuality;shape-rendering:geometricPrecision;text-rendering:geometricPrecision" /><rect
   class="fil0 str0"
   x="1638.6925"
   y="390"
   width="358"
   height="358"
   rx="32"
   ry="32"
   id="rect379-2"
   style="clip-rule:evenodd;fill:none;fill-rule:evenodd;stroke:#2b2a29;stroke-width:1.4348;image-rendering:optimizeQuality;shape-rendering:geometricPrecision;text-rendering:geometricPrecision" /><rect
   class="fil0 str0"
   x="1638.6925"
   y="748"
   width="358"
   height="358"
   rx="32"
   ry="32"
   id="rect381-6"
   style="clip-rule:evenodd;fill:none;fill-rule:evenodd;stroke:#2b2a29;stroke-width:1.4348;image-rendering:optimizeQuality;shape-rendering:geometricPrecision;text-rendering:geometricPrecision" /><rect
   class="fil0 str0"
   x="1638.6925"
   y="1107"
   width="358"
   height="358"
   rx="32"
   ry="32"
   id="rect383-1"
   style="clip-rule:evenodd;fill:none;fill-rule:evenodd;stroke:#2b2a29;stroke-width:1.4348;image-rendering:optimizeQuality;shape-rendering:geometricPrecision;text-rendering:geometricPrecision" /><rect
   class="fil0 str0"
   x="1638.6925"
   y="1466"
   width="358"
   height="358"
   rx="32"
   ry="32"
   id="rect385-8"
   style="clip-rule:evenodd;fill:none;fill-rule:evenodd;stroke:#2b2a29;stroke-width:1.4348;image-rendering:optimizeQuality;shape-rendering:geometricPrecision;text-rendering:geometricPrecision" /><rect
   class="fil0 str0"
   x="1996.6925"
   y="55"
   width="358"
   height="358"
   rx="32"
   ry="32"
   id="rect387-7"
   style="clip-rule:evenodd;fill:none;fill-rule:evenodd;stroke:#2b2a29;stroke-width:1.4348;image-rendering:optimizeQuality;shape-rendering:geometricPrecision;text-rendering:geometricPrecision" /><rect
   class="fil0 str0"
   x="1996.6925"
   y="414"
   width="358"
   height="358"
   rx="32"
   ry="32"
   id="rect389-9"
   style="clip-rule:evenodd;fill:none;fill-rule:evenodd;stroke:#2b2a29;stroke-width:1.4348;image-rendering:optimizeQuality;shape-rendering:geometricPrecision;text-rendering:geometricPrecision" /><rect
   class="fil0 str0"
   x="1996.6925"
   y="772"
   width="358"
   height="358"
   rx="32"
   ry="32"
   id="rect391-2"
   style="clip-rule:evenodd;fill:none;fill-rule:evenodd;stroke:#2b2a29;stroke-width:1.4348;image-rendering:optimizeQuality;shape-rendering:geometricPrecision;text-rendering:geometricPrecision" /><rect
   class="fil0 str0"
   x="1996.6925"
   y="1131"
   width="358"
   height="358"
   rx="32"
   ry="32"
   id="rect393-0"
   style="clip-rule:evenodd;fill:none;fill-rule:evenodd;stroke:#2b2a29;stroke-width:1.4348;image-rendering:optimizeQuality;shape-rendering:geometricPrecision;text-rendering:geometricPrecision" /><rect
   class="fil0 str0"
   x="24.6926"
   y="91"
   width="537"
   height="358"
   rx="32"
   ry="32"
   id="rect395-2"
   style="clip-rule:evenodd;fill:none;fill-rule:evenodd;stroke:#2b2a29;stroke-width:1.4348;image-rendering:optimizeQuality;shape-rendering:geometricPrecision;text-rendering:geometricPrecision" /><rect
   class="fil0 str0"
   x="24.6926"
   y="450"
   width="537"
   height="358"
   rx="32"
   ry="32"
   id="rect397-3"
   style="clip-rule:evenodd;fill:none;fill-rule:evenodd;stroke:#2b2a29;stroke-width:1.4348;image-rendering:optimizeQuality;shape-rendering:geometricPrecision;text-rendering:geometricPrecision" /><rect
   class="fil0 str0"
   x="24.6926"
   y="808"
   width="537"
   height="358"
   rx="32"
   ry="32"
   id="rect399-7"
   style="clip-rule:evenodd;fill:none;fill-rule:evenodd;stroke:#2b2a29;stroke-width:1.4348;image-rendering:optimizeQuality;shape-rendering:geometricPrecision;text-rendering:geometricPrecision" /><rect
   class="fil0 str0"
   x="24.6926"
   y="1167"
   width="537"
   height="358"
   rx="32"
   ry="32"
   id="rect401-5"
   style="clip-rule:evenodd;fill:none;fill-rule:evenodd;stroke:#2b2a29;stroke-width:1.4348;image-rendering:optimizeQuality;shape-rendering:geometricPrecision;text-rendering:geometricPrecision" /><rect
   class="fil0 str0"
   transform="rotate(90)"
   width="536.32111"
   height="358.04269"
   rx="48.208641"
   ry="32.36544"
   id="rect403-9"
   x="413.93994"
   y="-2713.3525"
   style="clip-rule:evenodd;fill:none;fill-rule:evenodd;stroke:#2b2a29;stroke-width:1.4348;image-rendering:optimizeQuality;shape-rendering:geometricPrecision;text-rendering:geometricPrecision" /><rect
   class="fil0 str0"
   transform="rotate(90)"
   width="536.32111"
   height="358.04269"
   rx="48.208641"
   ry="32.36544"
   id="rect405-2"
   x="951.98999"
   y="-2713.3525"
   style="clip-rule:evenodd;fill:none;fill-rule:evenodd;stroke:#2b2a29;stroke-width:1.4348;image-rendering:optimizeQuality;shape-rendering:geometricPrecision;text-rendering:geometricPrecision" /><rect
   class="fil0 str0"
   x="2355.6924"
   y="55"
   width="358"
   height="358"
   rx="32"
   ry="32"
   id="rect407-2"
   style="clip-rule:evenodd;fill:none;fill-rule:evenodd;stroke:#2b2a29;stroke-width:1.4348;image-rendering:optimizeQuality;shape-rendering:geometricPrecision;text-rendering:geometricPrecision" /><rect
   class="fil0 str0"
   transform="rotate(24.999999)"
   width="357.54889"
   height="358.04202"
   rx="32.139229"
   ry="32.365379"
   id="rect409-8"
   x="3482.2637"
   y="354.71603"
   style="clip-rule:evenodd;fill:none;fill-rule:evenodd;stroke:#2b2a29;stroke-width:1.4348;image-rendering:optimizeQuality;shape-rendering:geometricPrecision;text-rendering:geometricPrecision" /><rect
   class="fil0 str0"
   transform="rotate(24.999999)"
   width="357.54889"
   height="358.04202"
   rx="32.139229"
   ry="32.365379"
   id="rect411-9"
   x="3477.3979"
   y="17.971891"
   style="clip-rule:evenodd;fill:none;fill-rule:evenodd;stroke:#2b2a29;stroke-width:1.4348;image-rendering:optimizeQuality;shape-rendering:geometricPrecision;text-rendering:geometricPrecision" /><rect
   class="fil0 str0"
   transform="rotate(24.999999)"
   width="357.54889"
   height="358.04202"
   rx="32.139229"
   ry="32.365379"
   id="rect413-7"
   x="3123.5642"
   y="-3.9338713"
   style="clip-rule:evenodd;fill:none;fill-rule:evenodd;stroke:#2b2a29;stroke-width:1.4348;image-rendering:optimizeQuality;shape-rendering:geometricPrecision;text-rendering:geometricPrecision" /><rect
   class="fil0 str0"
   transform="rotate(115.00002)"
   width="715.09717"
   height="358.04202"
   rx="64.278397"
   ry="32.365379"
   id="rect415-3"
   x="355.21771"
   y="-3481.3503"
   style="clip-rule:evenodd;fill:none;fill-rule:evenodd;stroke:#2b2a29;stroke-width:1.4348;image-rendering:optimizeQuality;shape-rendering:geometricPrecision;text-rendering:geometricPrecision" /><rect
   class="fil0 str0"
   transform="rotate(115.00002)"
   width="715.09717"
   height="358.04202"
   rx="64.278397"
   ry="32.365379"
   id="rect417-6"
   x="355.1933"
   y="-3122.6636"
   style="clip-rule:evenodd;fill:none;fill-rule:evenodd;stroke:#2b2a29;stroke-width:1.4348;image-rendering:optimizeQuality;shape-rendering:geometricPrecision;text-rendering:geometricPrecision" /><path
   class="fil0 str1"
   d="m 382.69254,1571 c -38,0 -74,3 -107,7 v 0 c -10,2 -16,6 -18,15 -5,35 -8,72 -8,111 0,39 3,76 8,111 2,8 8,13 18,15 34,5 70,7 107,7 38,0 74,-3 107,-7 v 0 c 10,-1 16,-6 18,-14 5,-35 8,-72 8,-112 0,-39 -3,-77 -8,-112 -2,-8 -8,-12 -17,-14 -34,-5 -70,-7 -108,-7 z"
   id="path419-1"
   style="clip-rule:evenodd;fill:none;fill-rule:evenodd;stroke:#2b2a29;stroke-width:3.32149;image-rendering:optimizeQuality;shape-rendering:geometricPrecision;text-rendering:geometricPrecision" /><path
   class="fil0 str1"
   d="m 2667.6926,1220 c 0,-64 -3,-125 -7,-182 v 0 c -2,-17 -6,-28 -15,-31 -35,-9 -72,-13 -111,-13 -39,0 -76,5 -111,13 -8,3 -13,13 -15,31 -5,57 -7,118 -7,182 0,64 3,125 7,182 v 0 c 1,17 6,27 14,30 35,9 72,14 112,14 39,0 77,-5 112,-13 8,-3 12,-13 14,-28 5,-58 7,-120 7,-184 z"
   id="path421-2"
   style="clip-rule:evenodd;fill:none;fill-rule:evenodd;stroke:#2b2a29;stroke-width:3.32149;image-rendering:optimizeQuality;shape-rendering:geometricPrecision;text-rendering:geometricPrecision" /><path
   class="fil0 str1"
   d="m 2560.6926,2323 c 34,16 69,26 104,30 v 0 c 11,1 21,-7 31,-24 39,-71 78,-149 117,-231 38,-82 73,-163 102,-238 7,-19 6,-32 -2,-39 -26,-24 -56,-45 -90,-61 -34,-16 -69,-26 -104,-30 v 0 c -10,-1 -20,6 -30,22 -39,72 -79,150 -117,233 -39,83 -73,164 -103,240 -6,17 -5,29 1,37 26,25 56,46 91,62 z"
   id="path423-9"
   style="clip-rule:evenodd;fill:none;fill-rule:evenodd;stroke:#2b2a29;stroke-width:3.32149;image-rendering:optimizeQuality;shape-rendering:geometricPrecision;text-rendering:geometricPrecision" /><path
   class="fil0 str1"
   d="m 2175.6926,101 c -38,0 -74,3 -107,7 v 0 c -10,2 -16,6 -18,15 -5,35 -8,72 -8,111 0,39 3,76 8,111 2,8 8,13 18,15 34,5 70,7 107,7 38,0 74,-3 107,-7 v 0 c 10,-1 16,-6 18,-14 5,-35 8,-72 8,-112 0,-39 -3,-77 -8,-112 -2,-8 -8,-12 -17,-14 -34,-5 -70,-7 -108,-7 z"
   id="path425-3"
   style="clip-rule:evenodd;fill:none;fill-rule:evenodd;stroke:#2b2a29;stroke-width:3.32149;image-rendering:optimizeQuality;shape-rendering:geometricPrecision;text-rendering:geometricPrecision" /><path
   class="fil0 str1"
   d="m 1816.6926,77 c -38,0 -74,3 -107,7.000003 v 0 c -10,2 -16,6 -18,15 -5,34.999997 -8,71.999997 -8,110.999997 0,39 3,76 8,111 2,8 8,13 18,15 34,5 70,7 107,7 38,0 74,-3 107,-7 v 0 c 10,-1 16,-6 18,-14 5,-35 8,-72 8,-112 0,-39 -3,-77 -8,-111.999997 -2,-8 -8,-12 -17,-14 C 1890.6926,79 1854.6926,77 1816.6926,77 Z"
   id="path427-1"
   style="clip-rule:evenodd;fill:none;fill-rule:evenodd;stroke:#2b2a29;stroke-width:3.32149;image-rendering:optimizeQuality;shape-rendering:geometricPrecision;text-rendering:geometricPrecision" /><path
   class="fil0 str1"
   d="m 1458.6926,47 c -38,0 -74,3 -107,7 v 0 c -10,2 -16,6 -18,15 -5,35 -8,72 -8,111 0,39 3,76 8,111 2,8 8,13 18,15 34,5 70,7 107,7 38,0 74,-3 107,-7 v 0 c 10,-1 16,-6 18,-14 5,-35 8,-72 8,-112 0,-39 -3,-77 -8,-112 -2,-8 -8,-12 -17,-14 -34,-5 -70,-7 -108,-7 z"
   id="path429-9"
   style="clip-rule:evenodd;fill:none;fill-rule:evenodd;stroke:#2b2a29;stroke-width:3.32149;image-rendering:optimizeQuality;shape-rendering:geometricPrecision;text-rendering:geometricPrecision" /><path
   class="fil0 str1"
   d="m 1099.6926,77 c -38,0 -74,3 -107.00004,7.000003 v 0 c -10.00004,2 -16.00002,6 -18.00002,15 -5,34.999997 -8,71.999997 -8,110.999997 0,39 3,76 8,111 2,8 7.99998,13 18.00002,15 34.00004,5 70.00004,7 107.00004,7 38,0 74,-3 107,-7 v 0 c 10,-1 16,-6 18,-14 5,-35 8,-72 8,-112 0,-39 -3,-77 -8,-111.999997 -2,-8 -8,-12 -17,-14 C 1173.6926,79 1137.6926,77 1099.6926,77 Z"
   id="path431-4"
   style="clip-rule:evenodd;fill:none;fill-rule:evenodd;stroke:#2b2a29;stroke-width:3.32149;image-rendering:optimizeQuality;shape-rendering:geometricPrecision;text-rendering:geometricPrecision" /><path
   class="fil0 str1"
   d="m 740.69254,137 c -38,0 -74,3 -107,7 v 0 c -10,2 -16,6 -18,15 -5,35 -8,72 -8,111 0,39 3,76 8,111 2,8 8,13 18,15 34,5 70,7 107,7 38,0 74,-3 107,-7 v 0 c 10,-1 16,-6 18,-14 5,-35 8,-72 8,-112 0,-39 -3,-77 -8,-112 -2,-8 -8,-12 -17,-14 -34,-5 -70,-7 -108,-7 z"
   id="path433-7"
   style="clip-rule:evenodd;fill:none;fill-rule:evenodd;stroke:#2b2a29;stroke-width:3.32149;image-rendering:optimizeQuality;shape-rendering:geometricPrecision;text-rendering:geometricPrecision" /><path
   class="fil0 str1"
   d="m 2175.6926,459 c -38,0 -74,3 -107,7 v 0 c -10,2 -16,6 -18,15 -5,35 -8,72 -8,111 0,39 3,76 8,111 2,8 8,13 18,15 34,5 70,7 107,7 38,0 74,-3 107,-7 v 0 c 10,-1 16,-6 18,-14 5,-35 8,-72 8,-112 0,-39 -3,-77 -8,-112 -2,-8 -8,-12 -17,-14 -34,-5 -70,-7 -108,-7 z"
   id="path435-8"
   style="clip-rule:evenodd;fill:none;fill-rule:evenodd;stroke:#2b2a29;stroke-width:3.32149;image-rendering:optimizeQuality;shape-rendering:geometricPrecision;text-rendering:geometricPrecision" /><path
   class="fil0 str1"
   d="m 1816.6926,436 c -38,0 -74,3 -107,7 v 0 c -10,2 -16,6 -18,15 -5,35 -8,72 -8,111 0,39 3,76 8,111 2,8 8,13 18,15 34,5 70,7 107,7 38,0 74,-3 107,-7 v 0 c 10,-1 16,-6 18,-14 5,-35 8,-72 8,-112 0,-39 -3,-77 -8,-112 -2,-8 -8,-12 -17,-14 -34,-5 -70,-7 -108,-7 z"
   id="path437-4"
   style="clip-rule:evenodd;fill:none;fill-rule:evenodd;stroke:#2b2a29;stroke-width:3.32149;image-rendering:optimizeQuality;shape-rendering:geometricPrecision;text-rendering:geometricPrecision" /><path
   class="fil0 str1"
   d="m 1458.6926,405 c -38,0 -74,3 -107,7 v 0 c -10,2 -16,6 -18,15 -5,35 -8,72 -8,111 0,39 3,76 8,111 2,8 8,13 18,15 34,5 70,7 107,7 38,0 74,-3 107,-7 v 0 c 10,-1 16,-6 18,-14 5,-35 8,-72 8,-112 0,-39 -3,-77 -8,-112 -2,-8 -8,-12 -17,-14 -34,-5 -70,-7 -108,-7 z"
   id="path439-5"
   style="clip-rule:evenodd;fill:none;fill-rule:evenodd;stroke:#2b2a29;stroke-width:3.32149;image-rendering:optimizeQuality;shape-rendering:geometricPrecision;text-rendering:geometricPrecision" /><path
   class="fil0 str1"
   d="m 1099.6926,436 c -38,0 -74,3 -107.00004,7 v 0 c -10.00004,2 -16.00002,6 -18.00002,15 -5,35 -8,72 -8,111 0,39 3,76 8,111 2,8 7.99998,13 18.00002,15 34.00004,5 70.00004,7 107.00004,7 38,0 74,-3 107,-7 v 0 c 10,-1 16,-6 18,-14 5,-35 8,-72 8,-112 0,-39 -3,-77 -8,-112 -2,-8 -8,-12 -17,-14 -34,-5 -70,-7 -108,-7 z"
   id="path441-0"
   style="clip-rule:evenodd;fill:none;fill-rule:evenodd;stroke:#2b2a29;stroke-width:3.32149;image-rendering:optimizeQuality;shape-rendering:geometricPrecision;text-rendering:geometricPrecision" /><path
   class="fil0 str1"
   d="m 740.69254,495 c -38,0 -74,3 -107,7 v 0 c -10,2 -16,6 -18,15 -5,35 -8,72 -8,111 0,39 3,76 8,111 2,8 8,13 18,15 34,5 70,7 107,7 38,0 74,-3 107,-7 v 0 c 10,-1 16,-6 18,-14 5,-35 8,-72 8,-112 0,-39 -3,-77 -8,-112 -2,-8 -8,-12 -17,-14 -34,-5 -70,-7 -108,-7 z"
   id="path443-3"
   style="clip-rule:evenodd;fill:none;fill-rule:evenodd;stroke:#2b2a29;stroke-width:3.32149;image-rendering:optimizeQuality;shape-rendering:geometricPrecision;text-rendering:geometricPrecision" /><path
   class="fil0 str1"
   d="m 2175.6926,818 c -38,0 -74,3 -107,7 v 0 c -10,2 -16,6 -18,15 -5,35 -8,72 -8,111 0,39 3,76 8,111 2,8 8,13 18,15 34,5 70,7 107,7 38,0 74,-3 107,-7 v 0 c 10,-1 16,-6 18,-14 5,-35 8,-72 8,-112 0,-39 -3,-77 -8,-112 -2,-8 -8,-12 -17,-14 -34,-5 -70,-7 -108,-7 z"
   id="path445-6"
   style="clip-rule:evenodd;fill:none;fill-rule:evenodd;stroke:#2b2a29;stroke-width:3.32149;image-rendering:optimizeQuality;shape-rendering:geometricPrecision;text-rendering:geometricPrecision" /><path
   class="fil0 str1"
   d="m 1816.6926,794 c -38,0 -74,3 -107,7 v 0 c -10,2 -16,6 -18,15 -5,35 -8,72 -8,111 0,39 3,76 8,111 2,8 8,13 18,15 34,5 70,7 107,7 38,0 74,-3 107,-7 v 0 c 10,-1 16,-6 18,-14 5,-35 8,-72 8,-112 0,-39 -3,-77 -8,-112 -2,-8 -8,-12 -17,-14 -34,-5 -70,-7 -108,-7 z"
   id="path447-1"
   style="clip-rule:evenodd;fill:none;fill-rule:evenodd;stroke:#2b2a29;stroke-width:3.32149;image-rendering:optimizeQuality;shape-rendering:geometricPrecision;text-rendering:geometricPrecision" /><path
   class="fil0 str1"
   d="m 1458.6926,764 c -38,0 -74,3 -107,7 v 0 c -10,2 -16,6 -18,15 -5,35 -8,72 -8,111 0,39 3,76 8,111 2,8 8,13 18,15 34,5 70,7 107,7 38,0 74,-3 107,-7 v 0 c 10,-1 16,-6 18,-14 5,-35 8,-72 8,-112 0,-39 -3,-77 -8,-112 -2,-8 -8,-12 -17,-14 -34,-5 -70,-7 -108,-7 z"
   id="path449-0"
   style="clip-rule:evenodd;fill:none;fill-rule:evenodd;stroke:#2b2a29;stroke-width:3.32149;image-rendering:optimizeQuality;shape-rendering:geometricPrecision;text-rendering:geometricPrecision" /><path
   class="fil0 str1"
   d="m 1099.6926,794 c -38,0 -74,3 -107.00004,7 v 0 c -10.00004,2 -16.00002,6 -18.00002,15 -5,35 -8,72 -8,111 0,39 3,76 8,111 2,8 7.99998,13 18.00002,15 34.00004,5 70.00004,7 107.00004,7 38,0 74,-3 107,-7 v 0 c 10,-1 16,-6 18,-14 5,-35 8,-72 8,-112 0,-39 -3,-77 -8,-112 -2,-8 -8,-12 -17,-14 -34,-5 -70,-7 -108,-7 z"
   id="path451-6"
   style="clip-rule:evenodd;fill:none;fill-rule:evenodd;stroke:#2b2a29;stroke-width:3.32149;image-rendering:optimizeQuality;shape-rendering:geometricPrecision;text-rendering:geometricPrecision" /><path
   class="fil0 str1"
   d="m 740.69254,854 c -38,0 -74,3 -107,7 v 0 c -10,2 -16,6 -18,15 -5,35 -8,72 -8,111 0,39 3,76 8,111 2,8 8,13 18,15 34,5 70,7 107,7 38,0 74,-3 107,-7 v 0 c 10,-1 16,-6 18,-14 5,-35 8,-72 8,-112 0,-39 -3,-77 -8,-112 -2,-8 -8,-12 -17,-14 -34,-5 -70,-7 -108,-7 z"
   id="path453-3"
   style="clip-rule:evenodd;fill:none;fill-rule:evenodd;stroke:#2b2a29;stroke-width:3.32149;image-rendering:optimizeQuality;shape-rendering:geometricPrecision;text-rendering:geometricPrecision" /><path
   class="fil0 str1"
   d="m 2175.6926,1177 c -38,0 -74,3 -107,7 v 0 c -10,2 -16,6 -18,15 -5,35 -8,72 -8,111 0,39 3,76 8,111 2,8 8,13 18,15 34,5 70,7 107,7 38,0 74,-3 107,-7 v 0 c 10,-1 16,-6 18,-14 5,-35 8,-72 8,-112 0,-39 -3,-77 -8,-112 -2,-8 -8,-12 -17,-14 -34,-5 -70,-7 -108,-7 z"
   id="path455-2"
   style="clip-rule:evenodd;fill:none;fill-rule:evenodd;stroke:#2b2a29;stroke-width:3.32149;image-rendering:optimizeQuality;shape-rendering:geometricPrecision;text-rendering:geometricPrecision" /><path
   class="fil0 str1"
   d="m 1816.6926,1153 c -38,0 -74,3 -107,7 v 0 c -10,2 -16,6 -18,15 -5,35 -8,72 -8,111 0,39 3,76 8,111 2,8 8,13 18,15 34,5 70,7 107,7 38,0 74,-3 107,-7 v 0 c 10,-1 16,-6 18,-14 5,-35 8,-72 8,-112 0,-39 -3,-77 -8,-112 -2,-8 -8,-12 -17,-14 -34,-5 -70,-7 -108,-7 z"
   id="path457-0"
   style="clip-rule:evenodd;fill:none;fill-rule:evenodd;stroke:#2b2a29;stroke-width:3.32149;image-rendering:optimizeQuality;shape-rendering:geometricPrecision;text-rendering:geometricPrecision" /><path
   class="fil0 str1"
   d="m 1458.6926,1123 c -38,0 -74,3 -107,7 v 0 c -10,2 -16,6 -18,15 -5,35 -8,72 -8,111 0,39 3,76 8,111 2,8 8,13 18,15 34,5 70,7 107,7 38,0 74,-3 107,-7 v 0 c 10,-1 16,-6 18,-14 5,-35 8,-72 8,-112 0,-39 -3,-77 -8,-112 -2,-8 -8,-12 -17,-14 -34,-5 -70,-7 -108,-7 z"
   id="path459-6"
   style="clip-rule:evenodd;fill:none;fill-rule:evenodd;stroke:#2b2a29;stroke-width:3.32149;image-rendering:optimizeQuality;shape-rendering:geometricPrecision;text-rendering:geometricPrecision" /><path
   class="fil0 str1"
   d="m 1099.6926,1153 c -38,0 -74,3 -107.00004,7 v 0 c -10.00004,2 -16.00002,6 -18.00002,15 -5,35 -8,72 -8,111 0,39 3,76 8,111 2,8 7.99998,13 18.00002,15 34.00004,5 70.00004,7 107.00004,7 38,0 74,-3 107,-7 v 0 c 10,-1 16,-6 18,-14 5,-35 8,-72 8,-112 0,-39 -3,-77 -8,-112 -2,-8 -8,-12 -17,-14 -34,-5 -70,-7 -108,-7 z"
   id="path461-1"
   style="clip-rule:evenodd;fill:none;fill-rule:evenodd;stroke:#2b2a29;stroke-width:3.32149;image-rendering:optimizeQuality;shape-rendering:geometricPrecision;text-rendering:geometricPrecision" /><path
   class="fil0 str1"
   d="m 740.69254,1213 c -38,0 -74,3 -107,7 v 0 c -10,2 -16,6 -18,15 -5,35 -8,72 -8,111 0,39 3,76 8,111 2,8 8,13 18,15 34,5 70,7 107,7 38,0 74,-3 107,-7 v 0 c 10,-1 16,-6 18,-14 5,-35 8,-72 8,-112 0,-39 -3,-77 -8,-112 -2,-8 -8,-12 -17,-14 -34,-5 -70,-7 -108,-7 z"
   id="path463-5"
   style="clip-rule:evenodd;fill:none;fill-rule:evenodd;stroke:#2b2a29;stroke-width:3.32149;image-rendering:optimizeQuality;shape-rendering:geometricPrecision;text-rendering:geometricPrecision" /><path
   class="fil0 str1"
   d="m 1816.6926,1512 c -38,0 -74,3 -107,7 v 0 c -10,2 -16,6 -18,15 -5,35 -8,72 -8,111 0,39 3,76 8,111 2,8 8,13 18,15 34,5 70,7 107,7 38,0 74,-3 107,-7 v 0 c 10,-1 16,-6 18,-14 5,-35 8,-72 8,-112 0,-39 -3,-77 -8,-112 -2,-8 -8,-12 -17,-14 -34,-5 -70,-7 -108,-7 z"
   id="path465-5"
   style="clip-rule:evenodd;fill:none;fill-rule:evenodd;stroke:#2b2a29;stroke-width:3.32149;image-rendering:optimizeQuality;shape-rendering:geometricPrecision;text-rendering:geometricPrecision" /><path
   class="fil0 str1"
   d="m 1458.6926,1482 c -38,0 -74,3 -107,7 v 0 c -10,2 -16,6 -18,15 -5,35 -8,72 -8,111 0,39 3,76 8,111 2,8 8,13 18,15 34,5 70,7 107,7 38,0 74,-3 107,-7 v 0 c 10,-1 16,-6 18,-14 5,-35 8,-72 8,-112 0,-39 -3,-77 -8,-112 -2,-8 -8,-12 -17,-14 -34,-5 -70,-7 -108,-7 z"
   id="path467-4"
   style="clip-rule:evenodd;fill:none;fill-rule:evenodd;stroke:#2b2a29;stroke-width:3.32149;image-rendering:optimizeQuality;shape-rendering:geometricPrecision;text-rendering:geometricPrecision" /><path
   class="fil0 str1"
   d="m 1099.6926,1512 c -38,0 -74,3 -107.00004,7 v 0 c -10.00004,2 -16.00002,6 -18.00002,15 -5,35 -8,72 -8,111 0,39 3,76 8,111 2,8 7.99998,13 18.00002,15 34.00004,5 70.00004,7 107.00004,7 38,0 74,-3 107,-7 v 0 c 10,-1 16,-6 18,-14 5,-35 8,-72 8,-112 0,-39 -3,-77 -8,-112 -2,-8 -8,-12 -17,-14 -34,-5 -70,-7 -108,-7 z"
   id="path469-7"
   style="clip-rule:evenodd;fill:none;fill-rule:evenodd;stroke:#2b2a29;stroke-width:3.32149;image-rendering:optimizeQuality;shape-rendering:geometricPrecision;text-rendering:geometricPrecision" /><path
   class="fil0 str1"
   d="m 740.69254,1571 c -38,0 -74,3 -107,7 v 0 c -10,2 -16,6 -18,15 -5,35 -8,72 -8,111 0,39 3,76 8,111 2,8 8,13 18,15 34,5 70,7 107,7 38,0 74,-3 107,-7 v 0 c 10,-1 16,-6 18,-14 5,-35 8,-72 8,-112 0,-39 -3,-77 -8,-112 -2,-8 -8,-12 -17,-14 -34,-5 -70,-7 -108,-7 z"
   id="path471-6"
   style="clip-rule:evenodd;fill:none;fill-rule:evenodd;stroke:#2b2a29;stroke-width:3.32149;image-rendering:optimizeQuality;shape-rendering:geometricPrecision;text-rendering:geometricPrecision" /><path
   class="fil0 str1"
   d="m 2884.6926,2477 c 34,16 68,29 100,39 v 0 c 10,3 17,1 23,-6 19,-29 38,-62 54,-97 16,-35 30,-70 40,-104 2,-8 -2,-15 -10,-21 -28,-18 -60,-36 -94,-52 -34,-16 -68,-29 -100,-39 v 0 c -10,-3 -17,-1 -22,5 -19,29 -38,62 -54,98 -17,36 -30,71 -40,105 -1,8 2,14 9,20 29,19 61,37 95,53 z"
   id="path473-5"
   style="clip-rule:evenodd;fill:none;fill-rule:evenodd;stroke:#2b2a29;stroke-width:3.32149;image-rendering:optimizeQuality;shape-rendering:geometricPrecision;text-rendering:geometricPrecision" /><path
   class="fil0 str1"
   d="m 3036.6926,2151 c 34,16 68,29 100,39 v 0 c 10,3 17,1 23,-6 19,-29 38,-62 54,-97 16,-35 30,-70 40,-104 2,-8 -2,-15 -10,-21 -28,-18 -60,-36 -94,-52 -34,-16 -68,-29 -100,-39 v 0 c -10,-3 -17,-1 -22,5 -19,29 -38,62 -54,98 -17,36 -30,71 -40,105 -1,8 2,14 9,20 29,19 61,37 95,53 z"
   id="path475-6"
   style="clip-rule:evenodd;fill:none;fill-rule:evenodd;stroke:#2b2a29;stroke-width:3.32149;image-rendering:optimizeQuality;shape-rendering:geometricPrecision;text-rendering:geometricPrecision" /><path
   class="fil0 str1"
   d="m 3174.0272,1843.8397 c 34,16 68,29 100,39 v 0 c 10,3 17,1 23,-6 19,-29 38,-62 54,-97 16,-35 30,-70 40,-104 2,-8 -2,-15 -10,-21 -28,-18 -60,-36 -94,-52 -34,-16 -68,-29 -100,-39 v 0 c -10,-3 -17,-1 -22,5 -19,29 -38,62 -54,98 -17,36 -30,71 -40,105 -1,8 2,14 9,20 29,19 61,37 95,53 z"
   id="path477-9"
   style="clip-rule:evenodd;fill:none;fill-rule:evenodd;stroke:#2b2a29;stroke-width:3.32149;image-rendering:optimizeQuality;shape-rendering:geometricPrecision;text-rendering:geometricPrecision" /><path
   class="fil0 str1"
   d="m 2862.6926,1675 c 34,16 68,29 100,39 v 0 c 10,3 17,1 23,-6 19,-29 38,-62 54,-97 16,-35 30,-70 40,-104 2,-8 -2,-15 -10,-21 -28,-18 -60,-36 -94,-52 -34,-16 -68,-29 -100,-39 v 0 c -10,-3 -17,-1 -22,5 -19,29 -38,62 -54,98 -17,36 -30,71 -40,105 -1,8 2,14 9,20 29,19 61,37 95,53 z"
   id="path479-3"
   style="clip-rule:evenodd;fill:none;fill-rule:evenodd;stroke:#2b2a29;stroke-width:3.32149;image-rendering:optimizeQuality;shape-rendering:geometricPrecision;text-rendering:geometricPrecision" /><path
   class="fil0 str1"
   d="m 2534.6926,101 c -38,0 -74,3 -107,7 v 0 c -10,2 -16,6 -18,15 -5,35 -8,72 -8,111 0,39 3,76 8,111 2,8 8,13 18,15 34,5 70,7 107,7 38,0 74,-3 107,-7 v 0 c 10,-1 16,-6 18,-14 5,-35 8,-72 8,-112 0,-39 -3,-77 -8,-112 -2,-8 -8,-12 -17,-14 -34,-5 -70,-7 -108,-7 z"
   id="path481-7"
   style="clip-rule:evenodd;fill:none;fill-rule:evenodd;stroke:#2b2a29;stroke-width:3.32149;image-rendering:optimizeQuality;shape-rendering:geometricPrecision;text-rendering:geometricPrecision" /><path
   class="fil0 str1"
   d="m 2235.6926,2172 c 34,16 69,26 104,30 v 0 c 11,1 21,-7 31,-24 39,-71 78,-149 117,-231 38,-82 73,-163 102,-238 7,-19 6,-32 -2,-39 -26,-24 -56,-45 -90,-61 -34,-16 -69,-26 -104,-30 v 0 c -10,-1 -20,6 -30,22 -39,72 -79,150 -117,233 -39,83 -73,164 -103,240 -6,17 -5,29 1,37 26,25 56,46 91,62 z"
   id="path483-4"
   style="clip-rule:evenodd;fill:none;fill-rule:evenodd;stroke:#2b2a29;stroke-width:3.32149;image-rendering:optimizeQuality;shape-rendering:geometricPrecision;text-rendering:geometricPrecision" /><path
   class="fil0 str1"
   d="m 292.69254,1479 c 64,0 125,-3 182,-7 v 0 c 17,-2 28,-6 31,-15 9,-35 13,-72 13,-111 0,-39 -5,-76 -13,-111 -3,-8 -13,-13 -31,-15 -57,-5 -118,-7 -182,-7 -64,0 -125,3 -182,7 v 0 c -16.999997,1 -26.999994,6 -29.999994,14 -9.000001,35 -14.000001,72 -14.000001,112 0,39 5,77 13,112 3.000001,8 12.999998,12 27.999995,14 58,5 120,7 184,7 z"
   id="path485-5"
   style="clip-rule:evenodd;fill:none;fill-rule:evenodd;stroke:#2b2a29;stroke-width:3.32149;image-rendering:optimizeQuality;shape-rendering:geometricPrecision;text-rendering:geometricPrecision" /><path
   class="fil0 str1"
   d="m 292.69254,1120 c 64,0 125,-3 182,-7 v 0 c 17,-2 28,-6 31,-15 9,-35 13,-72 13,-111 0,-39 -5,-76 -13,-111 -3,-8 -13,-13 -31,-15 -57,-5 -118,-7 -182,-7 -64,0 -125,3 -182,7 v 0 c -16.999997,1 -26.999994,6 -29.999994,14 -9.000001,35 -14.000001,72 -14.000001,112 0,39 5,77 13,112 3.000001,8 12.999998,12 27.999995,14 58,5 120,7 184,7 z"
   id="path487-2"
   style="clip-rule:evenodd;fill:none;fill-rule:evenodd;stroke:#2b2a29;stroke-width:3.32149;image-rendering:optimizeQuality;shape-rendering:geometricPrecision;text-rendering:geometricPrecision" /><path
   class="fil0 str1"
   d="m 292.69254,762 c 64,0 125,-3 182,-7 v 0 c 17,-2 28,-6 31,-15 9,-35 13,-72 13,-111 0,-39 -5,-76 -13,-111 -3,-8 -13,-13 -31,-15 -57,-5 -118,-7 -182,-7 -64,0 -125,3 -182,7 v 0 c -16.999997,1 -26.999994,6 -29.999994,14 -9.000001,35 -14.000001,72 -14.000001,112 0,39 5,77 13,112 3.000001,8 12.999998,12 27.999995,14 58,5 120,7 184,7 z"
   id="path489-5"
   style="clip-rule:evenodd;fill:none;fill-rule:evenodd;stroke:#2b2a29;stroke-width:3.32149;image-rendering:optimizeQuality;shape-rendering:geometricPrecision;text-rendering:geometricPrecision" /><path
   class="fil0 str1"
   d="m 292.69254,403 c 64,0 125,-3 182,-7 v 0 c 17,-2 28,-6 31,-15 9,-35 13,-72 13,-111 0,-39 -5,-76 -13,-111 -3,-8 -13,-13 -31,-15 -57,-5 -118,-7 -182,-7 -64,0 -125,3 -182,7 v 0 c -16.999997,1 -26.999994,6 -29.999994,14 -9.000001,35 -14.000001,72 -14.000001,112 0,39 5,77 13,112 3.000001,8 12.999998,12 27.999995,14 58,5 120,7 184,7 z"
   id="path491-4"
   style="clip-rule:evenodd;fill:none;fill-rule:evenodd;stroke:#2b2a29;stroke-width:3.32149;image-rendering:optimizeQuality;shape-rendering:geometricPrecision;text-rendering:geometricPrecision" /><path
   class="fil0 str1"
   d="m 2667.6926,682 c 0,-64 -3,-125 -7,-182 v 0 c -2,-17 -6,-28 -15,-31 -35,-9 -72,-13 -111,-13 -39,0 -76,5 -111,13 -8,3 -13,13 -15,31 -5,57 -7,118 -7,182 0,64 3,125 7,182 v 0 c 1,17 6,27 14,30 35,9 72,14 112,14 39,0 77,-5 112,-13 8,-3 12,-13 14,-28 5,-58 7,-120 7,-184 z"
   id="path493-7"
   style="clip-rule:evenodd;fill:none;fill-rule:evenodd;stroke:#2b2a29;stroke-width:3.32149;image-rendering:optimizeQuality;shape-rendering:geometricPrecision;text-rendering:geometricPrecision" /></g>
<metadata
   id="metadata658"><rdf:RDF><cc:Work
       rdf:about=""><cc:license
         rdf:resource="http://creativecommons.org/licenses/by/4.0/" /></cc:Work><cc:License
       rdf:about="http://creativecommons.org/licenses/by/4.0/"><cc:permits
         rdf:resource="http://creativecommons.org/ns#Reproduction" /><cc:permits
         rdf:resource="http://creativecommons.org/ns#Distribution" /><cc:requires
         rdf:resource="http://creativecommons.org/ns#Notice" /><cc:requires
         rdf:resource="http://creativecommons.org/ns#Attribution" /><cc:permits
         rdf:resource="http://creativecommons.org/ns#DerivativeWorks" /></cc:License></rdf:RDF></metadata></svg>
