<svg xmlns="http://www.w3.org/2000/svg" width="635.206" height="635" fill="none" viewBox="0 0 19.056 19.05"><path stroke="#010101" stroke-linecap="round" stroke-linejoin="round" stroke-width="2" d="M9.176 3.525h1.15c1.12 0 1.68 0 2.108.218a2 2 0 0 1 .874.874c.218.428.218.988.218 2.108v.8l2.576-1.546c.794-.476 1.19-.714 1.516-.683a1 1 0 0 1 .714.403c.194.264.194.727.194 1.652v4.348c0 .505 0 .872-.032 1.144M.526.525l3 3m15 15-5.018-5.018M3.526 3.525c-.989 0-1.507.013-1.908.218a2 2 0 0 0-.874.874c-.218.428-.218.988-.218 2.108v5.6c0 1.12 0 1.68.218 2.108a2 2 0 0 0 .874.874c.427.218.988.218 2.108.218h6.6c1.12 0 1.68 0 2.108-.218a2 2 0 0 0 .874-.874c.123-.241.176-.524.2-.926M3.526 3.525l9.982 9.982" style="fill:none;stroke-width:1.05;stroke-dasharray:none"/></svg>