<svg xmlns="http://www.w3.org/2000/svg" width="560.117" height="560.117" fill="none" viewBox="0 0 14.003 14.003"><path fill="#010101" d="M0 2.5A2.5 2.5 0 0 1 2.5 0h9A2.5 2.5 0 0 1 14 2.5V3h.003v1H14v7.5a2.5 2.5 0 0 1-2.5 2.5h-9A2.5 2.5 0 0 1 0 11.5ZM13 3v-.5A1.5 1.5 0 0 0 11.5 1h-9A1.5 1.5 0 0 0 1 2.5V3ZM1 4v7.5A1.5 1.5 0 0 0 2.5 13h9a1.5 1.5 0 0 0 1.5-1.5V4Z"/><path d="m6.342 8.463-1.174-1.78h1.127l.707 1.16.713-1.16h1.127l-1.187 1.78 1.24 1.86H7.768l-.766-1.247-.767 1.247H5.108Z" aria-label="x" style="font-weight:700;font-size:6.66667px;line-height:1.25;fill:#010101;stroke-width:.025"/></svg>