<svg xmlns="http://www.w3.org/2000/svg" xml:space="preserve" width="501.957" height="501.957" fill="#010101" viewBox="0 0 20.078 20.078"><g aria-label="𝓐" style="font-size:11.834px;line-height:1.25;font-family:Impact;-inkscape-font-specification:&quot;Impact, Normal&quot;;font-variant-ligatures:none;stroke-width:.0467132;fill:#010101;fill-opacity:1"><path d="M1.419 7.877q-.663 0-1.03-.332-.367-.343-.367-.91 0-.498.332-.83.33-.342.84-.342.378 0 .603.177.225.178.225.45 0 .2-.154.367-.142.165-.307.213-.119.023-.273.07-.153.048-.248.095-.107.048-.166.119-.059.059-.059.177 0 .166.166.308.177.142.473.142 1.018 0 2.604-1.621-.58-.651-.58-1.35 0-.52.355-.863.355-.355.911-.355.65 0 1.16.473.769-.84 1.503-1.527.733-.698 1.42-1.242Q10.187.019 10.79.019q.213 0 .213.118l-.414.758q-.698 1.278-1.432 2.78-.734 1.504-1.455 3.243.639-.154 1.443-.958l.533-.545q.994-1.006 1.36-1.006.166 0 .261.048-.225.142-.52.378-.297.225-.604.568-.308.332-.616.651-.307.308-.627.568t-.662.438q-.332.166-.734.213l-.095.213-1.846.237.249-.616q-.829-.284-1.503-.852-.805.817-1.48 1.22-.674.402-1.443.402m5.266-2.213q1.373-2.26 3.301-4.97-1.278.757-3.786 3.49.485.793.485 1.456Zm-2.332-.071 1.255-1.385q-.237-.201-.414-.201-.237 0-.45.166-.213.165-.355.414-.13.248-.13.52 0 .26.094.486m1.61 1.183q.177-.568.177-1.1 0-.699-.26-1.137L4.626 5.936q.722.65 1.337.84" style="fill:#010101;fill-opacity:1" transform="scale(.88799 1.12614)"/></g><g aria-label="𝓑" style="font-size:11.8584px;line-height:1.25;font-family:Impact;-inkscape-font-specification:&quot;Impact, Normal&quot;;font-variant-ligatures:none;stroke-width:.0468094;fill:#010101;fill-opacity:1"><path d="M19.94 7.524q-.438 0-.7-.213-.248-.213-.248-.593 0-.237.142-.462.142-.238.344-.44.202-.2.391-.32.202-.118.32-.118.12 0 .12.107 0 .047-.285.249-.297.19-.487.462-.178.261-.178.51 0 .439.297.439.213 0 .486-.237.273-.25.534-.64.26-.392.427-.843t.166-.865q0-.297-.083-.475-.083-.177-.154-.177l-.522.047q-.107.012-.178-.071t-.071-.166q0-.095.083-.154.083-.071.19-.06l.51.06q.272 0 .557-.273.296-.273.498-.7.213-.427.213-.89 0-.71-.391-.971-.368.154-.652.462-.285.296-.558.854-.26.545-.604 1.447-1.02 2.715-2.775 3.522-.854.403-1.969.403-.948 0-1.494-.38-.534-.391-.534-.996 0-.474.332-.783.344-.32.842-.32.38 0 .605.19.237.178.237.45 0 .273-.19.44-.177.154-.379.177l-.19.024q-.094 0-.177.024-.226.035-.226.26 0 .238.297.428.296.177.794.177.475 0 .901-.272.44-.273.83-.878.392-.605 1.032-1.779.64-1.162 1.198-1.838.557-.687 1.162-1.162.308-.237.593-.403.296-.166.593-.26-.57-.214-1.554-.214-.735 0-1.506.201-.77.202-1.458.546t-1.174.782q-.735.664-.735 1.305 0 .688.747.688.32 0 .723-.214.403-.225.783-.57.38-.355.652-.758.273-.403.332-.783.036-.249.095-.249.19 0 .19.534 0 .7-.356 1.28-.356.582-.937.926-.581.332-1.269.332-.64 0-.984-.344-.332-.356-.332-.878 0-.45.344-.937.356-.486.996-.925.652-.45 1.53-.758Q18.992.018 20.19.018q1.126 0 1.944.344.558-.142.76-.142.189 0 .189.106 0 .072-.202.13l-.355.108q.45.177.782.533.344.356.344.842 0 .522-.557 1.008-.546.486-1.625.795 1.186.426 1.186 1.47 0 .415-.237.83-.225.403-.617.747-.38.332-.865.534-.487.201-.996.201" style="fill:#010101;fill-opacity:1" transform="scale(.84827 1.17887)"/></g><g aria-label="𝓒" style="font-size:14.5185px;line-height:1.25;font-family:Impact;-inkscape-font-specification:&quot;Impact, Normal&quot;;font-variant-ligatures:none;stroke-width:.0573097;fill:#010101;fill-opacity:1"><path d="M4.491 20.09q-.856 0-1.524-.305-.668-.32-1.06-.857-.377-.551-.377-1.248 0-.48.246-1.147Q.02 16.243.02 14.587q0-.9.668-1.742.667-.856 1.8-1.394 1.118-.537 2.337-.537.857 0 .857.233 0 .188-.465.188-.798 0-1.568.363-.755.363-1.364.93-.61.566-.973 1.204-.363.64-.363 1.205 0 1.002.987 1.162.378-.755.987-1.495.625-.755 1.365-1.423.74-.683 1.51-1.205.784-.523 1.525-.813.74-.305 1.32-.305.654 0 1.002.29.363.276.363.784 0 .407-.334.915-.319.508-.885 1.06-.566.537-1.321 1.03-.755.48-1.626.843t-1.786.508Q3.3 17.68 3.3 18.478q0 1.234 1.22 1.234.566 0 1.103-.188.537-.204.973-.523.45-.32.711-.711.261-.392.261-.77 0-.508-.276-.726-.26-.232-.638-.232-.407 0-.77.232-.348.218-.552.566-.101.175-.16.392-.057.204-.086.436-.058.494-.247.494-.145 0-.276-.146-.116-.145-.116-.435 0-.566.29-.987.29-.436.77-.683.493-.247 1.103-.247.639 0 1.002.349.377.348.377.958 0 .508-.32.987-.304.465-.827.828-.508.363-1.132.58-.61.204-1.22.204m-.174-4.109q.624-.116 1.292-.464.668-.363 1.278-.842.624-.494 1.118-1.031.494-.552.784-1.06.29-.523.29-.915 0-.377-.334-.377-.58 0-1.887 1.335-1.292 1.336-2.54 3.354" style="fill:#010101;fill-opacity:1" transform="scale(1.00258 .99742)"/></g><g aria-label="𝓓" style="font-size:13.6972px;line-height:1.25;font-family:Impact;-inkscape-font-specification:&quot;Impact, Normal&quot;;font-variant-ligatures:none;stroke-width:.0540679;fill:#010101;fill-opacity:1"><path d="M13.812 18.915q-.931 0-1.342-.246-.411-.247-.411-.603 0-.315.274-.52.287-.206.876-.206.918 0 2.15.425.562-.562 1.357-2.137l.602-1.192q.48-.931 1.083-1.684.616-.767 1.328-1.343-.835-.794-2.383-.794-1 0-1.945.561-.932.548-1.575 1.576-.644 1.04-.644 1.876 0 .438.26.726t.699.288q.41 0 .849-.22.438-.232.835-.63.398-.397.672-.904.41-.74.41-1.493 0-.054-.013-.11v-.109q0-.301.205-.301.247 0 .247.329 0 .959-.452 1.863-.452.89-1.206 1.41-.753.52-1.588.52-.59 0-1.069-.246-.465-.26-.753-.685-.274-.438-.274-.986 0-.644.37-1.274.383-.643 1.027-1.178t1.425-.862q.589-.247 1.191-.37.603-.137 1.22-.137 1.821 0 2.876.917.493-.328.835-.328.096 0 .178.04.082.042.082.083 0 .055-.356.274l-.424.26q.863.959.863 2.507 0 .794-.247 1.602-.233.808-.685 1.493-.438.685-1.054 1.123-.918.644-1.918.644-.904 0-1.671-.37-.945.411-1.904.411m3.712-.506q.877 0 1.63-.576.753-.575 1.205-1.67.452-1.11.452-2.124 0-1.561-.685-2.219-.452.671-.89 2.356-.288 1.137-.657 1.863t-.877 1.219q-.493.48-1.178.877.575.274 1 .274m-3.822.15q.74 0 1.302-.424-1.014-.466-1.671-.466-.822 0-.822.397 0 .178.178.288.192.11.466.164.287.041.547.041" style="fill:#010101;fill-opacity:1" transform="scale(.94236 1.06116)"/></g></svg>