<svg xmlns="http://www.w3.org/2000/svg" xml:space="preserve" width="501.957" height="501.957" fill="#010101" viewBox="0 0 20.078 20.078"><g aria-label="𝒜" style="font-size:11.9986px;line-height:1.25;font-family:Impact;-inkscape-font-specification:&quot;Impact, Normal&quot;;font-variant-ligatures:none;stroke-width:.0473632;fill:#010101;fill-opacity:1"><path d="M1.302 7.97q-.612 0-.936-.325Q.03 7.31.03 6.758q0-.492.288-.816.288-.336.744-.336.312 0 .492.168.192.168.192.42 0 .312-.24.468-.228.143-.612.215t-.384.384q0 .204.216.372.228.156.612.156 1.152 0 2.832-1.74-.588-.695-.588-1.38 0-.503.312-.851.324-.348.827-.348.636 0 1.2.6.804-.9 1.56-1.632.768-.732 1.476-1.296 1.452-1.14 1.992-1.14.048 0 .048.06 0 .036-.072.168l-.084.168q-.048.084-.108.204-1.56 2.676-3.168 6.527.696-.036 1.428-.78.36-.371.684-.695.336-.324.66-.612.636-.564.852-.564l.12.024q-.54.276-1.092.9-.372.42-.804.852-.42.432-.912.743-.48.3-1.044.372l-.096.216-1.572.204.24-.576q-.876-.276-1.715-1.007-.84.863-1.56 1.32-.708.443-1.452.443m5.207-1.584q.864-1.464 1.848-2.964Q9.353 1.91 10.481.35 9.569.746 8.5 1.742q-1.056.996-2.436 2.496.492.768.492 1.488 0 .156-.012.324t-.036.336m-2.195-.528q.383-.384.743-.792l.72-.816q-.264-.264-.588-.264-.276 0-.54.18-.264.168-.431.444-.168.264-.168.576 0 .384.264.672m1.8 1.151q.215-.671.215-1.247 0-.804-.408-1.356L4.445 6.038q.888.791 1.668.971" style="fill:#010101;fill-opacity:1" transform="scale(.82208 1.21642)"/></g><g aria-label="ℬ" style="font-size:12.3434px;line-height:1.25;font-family:Impact;-inkscape-font-specification:&quot;Impact, Normal&quot;;font-variant-ligatures:none;stroke-width:.0487239;fill:#010101;fill-opacity:1"><path d="M13.043 9.05q-.63 0-1-.185t-.556-.469-.247-.592-.061-.556q0-.494.296-.827.309-.345.728-.345.445.012.605.246.173.235.173.42 0 .395-.198.568-.197.173-.469.21-.135.012-.296.024-.16 0-.271.074-.112.062-.112.26 0 .049.037.21.037.148.16.32.124.173.384.297.271.123.715.123.766 0 1.309-.494.555-.506 1.024-1.357.47-.864.976-1.95.271-.556.53-1.062.26-.519.605-1.062.358-.555.864-1.172.05-.074.235-.297.197-.234.518-.518t.74-.518q-.259-.1-.592-.136t-.765-.037q-.753 0-1.457.148-.69.148-1.259.37-.555.21-.9.42-.186.11-.52.333-.32.222-.678.556-.346.32-.592.753-.235.432-.235.95 0 .506.222.753t.556.247q.432 0 .888-.284.47-.284.864-.79.395-.506.642-1.173.26-.679.26-1.456h.185q.061.197.11.506.05.296.05.642 0 .456-.197.95-.186.494-.544.926-.345.432-.839.703-.481.26-1.074.26-.642 0-1-.321t-.358-.963q0-.53.235-.975.247-.457.605-.815t.703-.605q.358-.247.593-.382.691-.408 1.654-.692.963-.283 2.086-.283.494 0 .901.074.42.061.765.172.321-.148.642-.222l.099.21q-.099.025-.198.062-.086.037-.185.074.58.247.815.654.247.395.247.901 0 .58-.346 1.025-.333.444-.84.765-.493.32-.987.543.124.037.346.16.234.124.469.346t.395.58q.16.346.16.852 0 .481-.271.987-.272.494-.716.926-.444.42-.95.68-.507.258-.988.258-.358 0-.555-.148-.198-.16-.272-.382-.074-.223-.074-.42 0-.124.062-.395.074-.272.345-.642.284-.383.89-.79l.147.21q-.247.148-.53.407-.272.26-.457.58-.185.309-.185.642 0 .346.16.506.173.148.333.148.321 0 .655-.345.345-.358.678-1.012.223-.445.358-.938.148-.507.148-1.185 0-.37-.074-.556-.074-.185-.172-.26-.1-.073-.16-.098-.161.087-.371.124-.198.037-.272.037-.098 0-.222-.025-.123-.037-.123-.148 0-.185.197-.222.21-.05.309-.05.197 0 .333.025.148.025.21.05.247-.112.543-.47.309-.358.518-.888.223-.531.223-1.148 0-.26-.062-.568-.05-.321-.296-.543-.605.32-.976.802-.37.481-.617 1.099-.247.604-.456 1.333-.198.716-.47 1.518-.061.197-.16.457-.086.246-.185.456-.37.79-.938 1.432-.556.642-1.346 1.025-.777.382-1.826.382" style="fill:#010101;fill-opacity:1" transform="scale(.93358 1.07114)"/></g><g aria-label="𝒞" style="font-size:14.5048px;line-height:1.25;font-family:Impact;-inkscape-font-specification:&quot;Impact, Normal&quot;;font-variant-ligatures:none;stroke-width:.0572557;fill:#010101;fill-opacity:1"><path d="M4.363 19.091q-.841 0-1.48-.32-.623-.318-.971-.855-.349-.551-.349-1.204 0-.478.261-1.218-.87-.087-1.334-.58-.464-.508-.464-1.335 0-.9.653-1.74.667-.856 1.755-1.393 1.088-.522 2.262-.522.668 0 .668.16 0 .116-.334.116-1.015 0-2.03.594-1.001.595-1.727 1.552-.71.929-.71 1.697 0 1.132 1.349 1.262.406-.783 1.03-1.552.623-.769 1.363-1.45.754-.682 1.523-1.204.783-.537 1.494-.827.71-.305 1.262-.305.565 0 .87.276.305.261.305.74 0 .42-.334.943-.32.522-.9 1.073-.58.537-1.348 1.03-.754.478-1.64.841-.87.348-1.769.479-.812 1.32-.812 2.204 0 1.335 1.436 1.335.537 0 1.088-.203.565-.203 1.044-.551t.769-.798.29-.943q0-.45-.276-.71-.26-.262-.652-.262-.552 0-.958.363-.391.348-.609.928-.101.29-.174.479-.058.188-.073.275 0 .175-.145.175-.13 0-.13-.262 0-.623.246-1.116.262-.494.697-.784.45-.29 1-.29.61 0 .958.334.348.319.348.914 0 .609-.493 1.247t-1.306 1.015q-.391.189-.812.29-.406.102-.841.102m-.45-3.974q.943-.13 1.857-.595.914-.479 1.798-1.32.9-.856 1.277-1.508.377-.668.377-.987 0-.551-.537-.551-.609 0-2.016 1.378-.696.682-1.392 1.581-.682.885-1.364 2.002" style="fill:#010101;fill-opacity:1" transform="scale(.95267 1.04968)"/></g><g aria-label="𝒟" style="font-size:14.8278px;line-height:1.25;font-family:Impact;-inkscape-font-specification:&quot;Impact, Normal&quot;;font-variant-ligatures:none;stroke-width:.0585304;fill:#010101;fill-opacity:1"><path d="M12.622 19.467q-.904 0-1.379-.252-.474-.253-.474-.608 0-.312.356-.52.355-.207 1.067-.207.756 0 2.224.519.416-.43.846-1.068.43-.652.845-1.542.578-1.186 1.082-2.001.52-.83 1.023-1.394.504-.579 1.038-.994-.993-1.067-2.743-1.067-1.216 0-2.269.608-1.052.608-1.794 1.794-.726 1.186-.726 2.09 0 .52.34.86.342.327.92.327t1.127-.312q.563-.311.993-.83t.697-1.171q.267-.668.267-1.365 0-.044-.015-.074v-.089q0-.296.119-.296.148 0 .148.281 0 1.038-.489 2.017-.49.964-1.275 1.527-.816.564-1.616.564-.579 0-1.053-.267-.475-.267-.756-.727-.282-.474-.282-1.052 0-.697.385-1.35.4-.667 1.083-1.23.682-.564 1.542-.95 1.275-.593 2.535-.593 1.913 0 3.085 1.127.741-.474.993-.474.09 0 .09.06 0 .073-.342.236-.356.178-.549.371 1.009 1.23 1.009 2.728 0 .86-.282 1.735-.267.875-.756 1.616-.49.742-1.112 1.216-.95.712-1.972.712-.86 0-1.84-.445-1.067.49-2.09.49m4.078-.4q.993 0 1.809-.698.83-.697 1.334-1.868.252-.593.371-1.171.119-.593.119-1.157 0-1.394-.846-2.565-.563.726-1.052 2.595-.327 1.26-.757 2.105t-.993 1.394q-.549.549-1.29.979.816.385 1.305.385m-4.196.162q.949 0 1.63-.548-1.097-.564-2.15-.564-.919 0-.919.49 0 .207.386.43.193.103.46.148.266.044.593.044" style="fill:#010101;fill-opacity:1" transform="scale(.96913 1.03185)"/></g></svg>