<svg xmlns="http://www.w3.org/2000/svg" xml:space="preserve" width="501.957" height="501.957" fill="#010101" viewBox="0 0 20.078 20.078"><g aria-label="𝐀" style="font-size:12.7465px;line-height:1.25;font-family:Impact;-inkscape-font-specification:&quot;Impact, Normal&quot;;font-variant-ligatures:none;stroke-width:.0399994;fill:#010101;fill-opacity:1"><path d="M.004 8.874V8.53q.37 0 .612-.23.242-.229.484-.84L4.083.027l.344.013 3.034 7.19q.293.688.51.994.216.306.611.306v.344H4.516V8.53q1.033 0 1.033-.523 0-.178-.204-.675l-.383-.969h-2.83l-.47 1.173q-.04.089-.065.23-.012.127-.012.19 0 .574.93.574h.077v.344Zm2.32-3.046h2.434L3.522 2.819Z" style="fill:#010101;fill-opacity:1"/></g><g aria-label="𝐁" style="font-size:12.7465px;line-height:1.25;font-family:Impact;-inkscape-font-specification:&quot;Impact, Normal&quot;;font-variant-ligatures:none;stroke-width:.0399994;fill:#010101;fill-opacity:1"><path d="M12.423 8.67v-.33q.65-.026.88-.28.23-.256.23-.944V1.672q0-.548-.103-.828-.102-.28-.344-.383-.242-.114-.675-.114V.028h3.887q3.34 0 3.34 1.988 0 1.568-2.078 1.963 2.499.472 2.499 2.193 0 1.185-.905 1.848-.893.65-2.524.65zm3.149-4.78h.115q1.02 0 1.427-.382.408-.395.408-1.39 0-.866-.293-1.274T16.222.436q-.433 0-.548.178-.102.166-.102.638zm.752 4.321q.828 0 1.16-.471.344-.472.344-1.504 0-1.058-.459-1.505-.446-.446-1.504-.446h-.293v3.149q0 .433.153.612.166.165.599.165" style="fill:#010101;fill-opacity:1"/></g><g aria-label="𝐂" style="font-size:12.7465px;line-height:1.25;font-family:Impact;-inkscape-font-specification:&quot;Impact, Normal&quot;;font-variant-ligatures:none;stroke-width:.0399994;fill:#010101;fill-opacity:1"><path d="M4.376 20.03q-1.275 0-2.269-.574-.981-.586-1.542-1.606-.561-1.032-.561-2.358 0-1.313.56-2.32.574-1.02 1.569-1.593 1.007-.586 2.294-.586.867 0 2.052.484.191.09.383.09.471 0 .599-.574h.331v2.982h-.319q-.433-1.185-1.21-1.874-.765-.688-1.721-.688-2.307 0-2.307 4.117 0 3.85 2.549 3.85.765 0 1.517-.395.752-.408 1.338-1.173l.357.331q-1.313 1.887-3.62 1.887" style="fill:#010101;fill-opacity:1"/></g><g aria-label="𝐃" style="font-size:12.7465px;line-height:1.25;font-family:Impact;-inkscape-font-specification:&quot;Impact, Normal&quot;;font-variant-ligatures:none;stroke-width:.0399994;fill:#010101;fill-opacity:1"><path d="M11.557 20.062v-.331q.599-.026.803-.23.216-.204.216-.854v-5.685q0-.752-.254-.981-.243-.242-.867-.242v-.32h3.926q2.294 0 3.48 1.123 1.198 1.121 1.198 3.199 0 4.321-4.55 4.321zm3.836-.459q1.25 0 1.836-.956.599-.969.599-2.932 0-3.874-2.422-3.874-.484 0-.637.19-.14.18-.14.727v5.94q0 .535.14.727.153.178.624.178" style="fill:#010101;fill-opacity:1"/></g></svg>