<svg xmlns="http://www.w3.org/2000/svg" xml:space="preserve" width="501.957" height="501.957" fill="#010101" viewBox="0 0 20.078 20.078"><g aria-label="Ａ" style="font-size:12.7465px;line-height:1.25;font-family:Impact;-inkscape-font-specification:&quot;Impact, Normal&quot;;font-variant-ligatures:none;stroke-width:.0399994;fill:#010101;fill-opacity:1"><path d="M.02 9.387h1.236l1.058-2.855h3.977L7.35 9.387h1.288L5.029.018H3.59Zm2.575-3.773.56-1.491c.383-1.046.765-2.065 1.122-3.149h.051c.383 1.07.752 2.09 1.135 3.149l.56 1.491z" style="fill:#010101;fill-opacity:1"/></g><g aria-label="Ｂ" style="font-size:12.7465px;line-height:1.25;font-family:Impact;-inkscape-font-specification:&quot;Impact, Normal&quot;;font-variant-ligatures:none;stroke-width:.0399994;fill:#010101;fill-opacity:1"><path d="M12.737 9.387h3.442c2.6 0 3.887-.829 3.887-2.74 0-1.237-.79-2.015-2.09-2.231v-.064c1.02-.306 1.504-1.109 1.504-2.027 0-1.657-1.313-2.307-3.569-2.307h-3.174zm1.173-5.38V.95h1.912c1.682 0 2.473.408 2.473 1.53 0 1.057-.79 1.529-2.575 1.529zm0 4.437V4.926H16c2.027 0 2.894.522 2.894 1.682 0 1.377-.918 1.836-2.855 1.836z" style="fill:#010101;fill-opacity:1"/></g><g aria-label="Ｃ" style="font-size:12.7465px;line-height:1.25;font-family:Impact;-inkscape-font-specification:&quot;Impact, Normal&quot;;font-variant-ligatures:none;stroke-width:.0399994;fill:#010101;fill-opacity:1"><path d="M4.6 20.062c1.402 0 2.409-.472 3.275-1.338l-.662-.765c-.701.663-1.53 1.058-2.562 1.058-2.078 0-3.442-1.479-3.442-3.811 0-2.308 1.364-3.786 3.467-3.786.905 0 1.695.37 2.256.892l.676-.765a4.23 4.23 0 0 0-2.945-1.16c-2.766 0-4.665 1.874-4.665 4.857 0 2.995 1.925 4.818 4.602 4.818" style="fill:#010101;fill-opacity:1"/></g><g aria-label="Ｄ" style="font-size:12.7465px;line-height:1.25;font-family:Impact;-inkscape-font-specification:&quot;Impact, Normal&quot;;font-variant-ligatures:none;stroke-width:.0399994;fill:#010101;fill-opacity:1"><path d="M12.457 20.062h2.651c3.238 0 4.958-1.759 4.958-4.729 0-2.957-1.72-4.64-5.022-4.64h-2.587zm1.147-.981v-7.406h1.364c2.562 0 3.888 1.262 3.888 3.658 0 2.41-1.326 3.748-3.888 3.748z" style="fill:#010101;fill-opacity:1"/></g></svg>