<svg xmlns="http://www.w3.org/2000/svg" xml:space="preserve" width="501.957" height="501.957" fill="#010101" viewBox="0 0 20.078 20.078"><g aria-label="🅰" style="font-size:10.1332px;line-height:1.25;font-family:Impact;-inkscape-font-specification:&quot;Impact, Normal&quot;;font-variant-ligatures:none;stroke-width:.0399994;fill:#010101;fill-opacity:1"><path d="M2.059 9.145h5.067c1.276 0 2.026-.75 2.026-2.026V2.052c0-1.277-.75-2.026-2.026-2.026H2.059C.782.026.032.776.032 2.052V7.12c0 1.277.75 2.026 2.027 2.026M2.23 7.15 4.106 1.9h.963l1.874 5.25h-.892l-.496-1.47H3.579l-.497 1.47Zm1.54-2.118h1.591l-.243-.73a81 81 0 0 0-.527-1.712h-.04c-.183.578-.335 1.125-.517 1.713Z" style="fill:#010101;fill-opacity:1"/></g><g aria-label="🅱" style="font-size:10.1332px;line-height:1.25;font-family:Impact;-inkscape-font-specification:&quot;Impact, Normal&quot;;font-variant-ligatures:none;stroke-width:.0399994;fill:#010101;fill-opacity:1"><path d="M12.96 9.145h5.067c1.277 0 2.027-.75 2.027-2.026V2.052c0-1.277-.75-2.026-2.027-2.026h-5.066c-1.277 0-2.027.75-2.027 2.026V7.12c0 1.277.75 2.026 2.027 2.026m.72-1.996V1.9h1.733c1.155 0 1.976.345 1.976 1.297 0 .507-.294.963-.912 1.125v.04c.75.132 1.226.538 1.226 1.257 0 1.044-.902 1.53-2.148 1.53zm.862-3.03h.78c.912 0 1.277-.304 1.277-.82 0-.537-.426-.77-1.237-.77h-.82zm0 2.392h.912c.861 0 1.418-.253 1.418-.953 0-.587-.496-.871-1.418-.871h-.912z" style="fill:#010101;fill-opacity:1"/></g><g style="fill:#010101;fill-opacity:1"><g aria-label="🅲" style="font-size:10.1332px;line-height:1.25;font-family:Impact;-inkscape-font-specification:&quot;Impact, Normal&quot;;font-variant-ligatures:none;stroke-width:.0399994;fill:#010101;fill-opacity:1"><path d="M2.059 20.046h5.067c1.276 0 2.026-.75 2.026-2.027v-5.066c0-1.277-.75-2.027-2.026-2.027H2.059c-1.277 0-2.027.75-2.027 2.027v5.066c0 1.277.75 2.027 2.027 2.027m2.949-1.875c-1.419 0-2.503-.983-2.503-2.736 0-1.722 1.114-2.756 2.574-2.756a2.23 2.23 0 0 1 1.57.659l-.476.537c-.294-.294-.628-.476-1.084-.476-1.024 0-1.703.77-1.703 2.016 0 1.277.639 2.037 1.662 2.037.527 0 .912-.193 1.247-.557l.476.506c-.466.517-1.034.77-1.763.77" style="fill:#010101;fill-opacity:1"/></g></g><g aria-label="🅳" style="font-size:10.1332px;line-height:1.25;font-family:Impact;-inkscape-font-specification:&quot;Impact, Normal&quot;;font-variant-ligatures:none;stroke-width:.0399994;fill:#010101;fill-opacity:1"><path d="M12.96 20.046h5.067c1.277 0 2.027-.75 2.027-2.027v-5.066c0-1.277-.75-2.027-2.027-2.027h-5.066c-1.277 0-2.027.75-2.027 2.027v5.066c0 1.277.75 2.027 2.027 2.027m.71-1.996V12.8h1.46c1.732 0 2.735.882 2.735 2.605 0 1.733-1.003 2.645-2.695 2.645zm.862-.67h.618c1.246 0 1.834-.678 1.834-1.975 0-1.226-.588-1.925-1.834-1.925h-.618z" style="fill:#010101;fill-opacity:1"/></g></svg>