<svg xmlns="http://www.w3.org/2000/svg" xml:space="preserve" width="501.957" height="501.957" fill="#010101" viewBox="0 0 20.078 20.078"><g aria-label="𝑨" style="font-size:12.7465px;line-height:1.25;font-family:Impact;-inkscape-font-specification:&quot;Impact, Normal&quot;;font-variant-ligatures:none;stroke-width:.0399994;fill:#010101;fill-opacity:1"><path d="M.04 8.748V8.43q.56 0 1.045-.587L7.458-.008h.357l-.293 7.074v.178q0 1.148 1.173 1.186v.318h-3.99V8.43q.676-.051.892-.408.217-.37.23-.918l.025-1.02h-2.69L2.259 7.22q-.204.268-.306.471-.102.192-.102.294 0 .37.828.446v.318Zm3.543-3.186h2.295l.14-3.034z" style="fill:#010101;fill-opacity:1"/></g><g aria-label="𝑩" style="font-size:12.7465px;line-height:1.25;font-family:Impact;-inkscape-font-specification:&quot;Impact, Normal&quot;;font-variant-ligatures:none;stroke-width:.0399994;fill:#010101;fill-opacity:1"><path d="M11.557 8.544v-.293q.396 0 .638-.089.255-.102.42-.382.166-.293.32-.854l1.44-5.38q.05-.178.076-.33.025-.166.025-.332 0-.306-.216-.42-.204-.128-.676-.167v-.305h2.817q1.963 0 2.817.446.829.446.829 1.415 0 1.618-2.371 2.141 1.695.535 1.695 1.9 0 .688-.37 1.3-.357.598-1.21.98-.855.37-2.346.37zm4.449-4.703q1.07-.013 1.619-.6.548-.598.548-1.605 0-1.224-1.186-1.224-.458 0-.573.434l-.778 2.97q.14.012.204.025zm-.663 4.283q.943 0 1.517-.663t.574-1.746q0-1.479-1.683-1.479h-.217l-.79 2.894q-.102.344-.102.573 0 .42.701.42" style="fill:#010101;fill-opacity:1"/></g><g aria-label="𝑪" style="font-size:12.7465px;line-height:1.25;font-family:Impact;-inkscape-font-specification:&quot;Impact, Normal&quot;;font-variant-ligatures:none;stroke-width:.0399994;fill:#010101;fill-opacity:1"><path d="M3.494 20.061q-1.083 0-1.86-.408-.766-.408-1.186-1.16-.408-.752-.408-1.771 0-.944.306-1.849.318-.917.892-1.695.574-.79 1.338-1.313 1.186-.803 2.524-.803.829 0 1.861.28.09.013.23.052.14.025.19.025.294 0 .46-.357h.344l-.548 2.932-.37-.026q0-1.21-.459-1.835-.446-.625-1.287-.625-.892 0-1.657.727-.765.726-1.326 2.167-.56 1.453-.56 2.74 0 1.084.547 1.708.549.612 1.48.612 1.516 0 2.638-1.619l.357.28q-1.339 1.938-3.506 1.938" style="fill:#010101;fill-opacity:1"/></g><g aria-label="𝑫" style="font-size:12.7465px;line-height:1.25;font-family:Impact;-inkscape-font-specification:&quot;Impact, Normal&quot;;font-variant-ligatures:none;stroke-width:.0399994;fill:#010101;fill-opacity:1"><path d="M10.601 20.075v-.294q.396 0 .638-.089.255-.102.42-.382.166-.293.32-.854l1.44-5.38q.101-.369.101-.611 0-.344-.204-.472-.203-.127-.688-.165v-.306h3.403q4.016 0 4.016 3.556 0 1.032-.421 1.976-.408.943-1.21 1.67-.536.484-1.11.79-.573.293-1.326.433-.739.128-1.797.128zm3.85-.396q.841 0 1.53-.42.688-.434 1.172-1.173.497-.74.765-1.682.268-.956.268-1.989 0-2.51-1.976-2.51-.433 0-.6.165-.152.166-.254.535l-1.593 5.991q-.026.115-.064.306-.026.178-.026.242 0 .293.166.42.179.115.612.115" style="fill:#010101;fill-opacity:1"/></g></svg>