<svg xmlns="http://www.w3.org/2000/svg" xml:space="preserve" width="501.957" height="501.957" fill="#010101" viewBox="0 0 20.078 20.078"><g aria-label="🅐" style="font-size:10.1332px;line-height:1.25;font-family:Impact;-inkscape-font-specification:&quot;Impact, Normal&quot;;font-variant-ligatures:none;stroke-width:.0399994;fill:#010101;fill-opacity:1"><path d="M4.738 9.459A4.727 4.727 0 0 0 9.46 4.737 4.727 4.727 0 0 0 4.738.015 4.727 4.727 0 0 0 .016 4.737a4.727 4.727 0 0 0 4.722 4.722M2.377 7.3 4.25 2.051h.963l1.875 5.25h-.892L5.7 5.831H3.725l-.497 1.47Zm1.54-2.117h1.591l-.243-.73c-.04-.162-.476-1.56-.527-1.712h-.04c-.183.577-.335 1.124-.517 1.712Z" style="fill:#010101;fill-opacity:1"/></g><g aria-label="🅑" style="font-size:10.1332px;line-height:1.25;font-family:Impact;-inkscape-font-specification:&quot;Impact, Normal&quot;;font-variant-ligatures:none;stroke-width:.03999944;stroke-dasharray:none;fill:#010101;fill-opacity:1"><path d="M15.311 9.459a4.727 4.727 0 0 0 4.722-4.722A4.727 4.727 0 0 0 15.311.015a4.727 4.727 0 0 0-4.722 4.722 4.727 4.727 0 0 0 4.722 4.722M13.497 7.3V2.051h1.733c1.155 0 1.976.345 1.976 1.297 0 .507-.294.963-.912 1.125v.04c.75.133 1.226.538 1.226 1.257 0 1.044-.902 1.53-2.148 1.53zm.862-3.03h.78c.912 0 1.277-.303 1.277-.82 0-.537-.426-.77-1.237-.77h-.82zm0 2.392h.912c.861 0 1.418-.253 1.418-.952 0-.588-.496-.872-1.418-.872h-.912z" style="stroke-width:.03999944;stroke-dasharray:none;fill:#010101;fill-opacity:1"/></g><g aria-label="🅒" style="font-size:10.1332px;line-height:1.25;font-family:Impact;-inkscape-font-specification:&quot;Impact, Normal&quot;;font-variant-ligatures:none;stroke-width:.0399994;fill:#010101;fill-opacity:1"><path d="M4.738 20.075a4.727 4.727 0 0 0 4.722-4.722 4.727 4.727 0 0 0-4.722-4.722 4.727 4.727 0 0 0-4.722 4.722 4.727 4.727 0 0 0 4.722 4.722m.182-2.037c-1.418 0-2.492-.982-2.492-2.735 0-1.723 1.104-2.757 2.573-2.757a2.2 2.2 0 0 1 1.56.659l-.465.537c-.304-.294-.629-.476-1.085-.476-1.033 0-1.702.77-1.702 2.016 0 1.277.628 2.037 1.662 2.037.527 0 .902-.192 1.246-.557l.477.506c-.477.517-1.044.77-1.774.77" style="fill:#010101;fill-opacity:1"/></g><g aria-label="🅓" style="font-size:10.1332px;line-height:1.25;font-family:Impact;-inkscape-font-specification:&quot;Impact, Normal&quot;;font-variant-ligatures:none;stroke-width:.0399994;fill:#010101;fill-opacity:1"><path d="M15.406 20.075a4.727 4.727 0 0 0 4.722-4.722 4.727 4.727 0 0 0-4.722-4.722 4.727 4.727 0 0 0-4.722 4.722 4.727 4.727 0 0 0 4.722 4.722m-1.824-2.158v-5.25h1.46c1.732 0 2.735.882 2.735 2.605 0 1.733-1.003 2.645-2.695 2.645zm.861-.669h.618c1.247 0 1.834-.679 1.834-1.976 0-1.226-.587-1.925-1.834-1.925h-.618z" style="fill:#010101;fill-opacity:1"/></g></svg>