<svg xmlns="http://www.w3.org/2000/svg" xml:space="preserve" width="501.957" height="501.957" fill="#010101" viewBox="0 0 20.078 20.078"><g aria-label="𝕬" style="font-size:11.1998px;line-height:1.25;font-family:Impact;-inkscape-font-specification:&quot;Impact, Normal&quot;;font-variant-ligatures:none;stroke-width:.0399994;fill:#010101;fill-opacity:1"><path d="m2.384 8.753-.313-.325q.302-.168.302-.246 0-.079-.146-.269-.145-.19-.358-.403-.202-.213-.403-.359-.19-.156-.291-.156-.224 0-.55.134L.47 6.703q1.534-.448 2.285-1.243.761-.806.761-2.116 0-.908-.414-1.445-.414-.538-1.142-.538-.594 0-1.008.392-.404.392-.404 1.02 0 1.444 1.86 1.758l-.09.448q-1.12-.157-1.691-.784-.571-.639-.571-1.647 0-.75.29-1.31.303-.571.83-.885.537-.325 1.232-.325.683 0 1.22.348.538.336.852.94.324.605.324 1.4 0 .65-.268 1.3-.258.65-.762 1.232-.493.57-1.187 1.019l.717.784q.268.302.414.302.112 0 .426-.146.324-.145.728-.37.403-.234.761-.48V2.01q0-.683-.224-1.232l.403-.247.37.717q.28-.526.672-.829Q7.256.118 7.95.028v.448q-.425.19-.604.55-.168.358-.168.951v3.976q0 .414.112.627t.268.213q.202 0 .583-.314l.28.336-1.759 1.837-.425-.168q.1-.302.1-.38 0-.057-.089-.124-.538-.38-.582-1.041Z" style="fill:#010101;fill-opacity:1"/></g><g aria-label="𝕭" style="font-size:11.1998px;line-height:1.25;font-family:Impact;-inkscape-font-specification:&quot;Impact, Normal&quot;;font-variant-ligatures:none;stroke-width:.0399994;fill:#010101;fill-opacity:1"><path d="M15.494 8.686q-.482 0-.919-.235l-1.691-.896q-.134-.068-.246-.101-.112-.045-.202-.045-.392 0-.392.37 0 .168.134.436l-.403.19q-.425-.593-.425-1.086 0-.448.37-.761.369-.314.951-.392.583-.09 1.176-.392.594-.314.941-.896.336-.571.336-1.434 0-.582-.224-1.041-.224-.47-.616-.75t-.907-.28q-.403 0-.75.19-.337.179-.55.504-.201.325-.201.75 0 1.445 1.893 1.759l-.09.448q-1.12-.157-1.713-.784-.583-.639-.583-1.647 0-.728.291-1.288.303-.571.83-.896t1.22-.325q.638 0 1.198.314.572.314.952.885.292-.146.594-.291.302-.157.627-.314t.627-.314q.303-.156.572-.336l.224.392q-.157.124-.157.236 0 .044.1.302.068.168.213.403.146.224.303.426.157.19.235.246.123.09.202.09.078 0 .246-.09l.246.381-1.523.907q.762.247 1.21.863.448.604.448 1.4 0 .895-.639 1.579-.627.672-1.814 1.097-1.21.426-2.094.426m.85-4.86.84-.438q.314-.168.505-.28.392-.235.392-.28 0-.1-.135-.358-.123-.258-.313-.538-.18-.28-.359-.481-.168-.213-.246-.213-.123 0-.918.46.302.671.302 1.41 0 .381-.067.717m.886 3.93q.358 0 .638-.213.28-.224.437-.593.168-.38.168-.829 0-.537-.235-.952-.236-.414-.628-.65-.38-.235-.862-.235-.347 0-.571.124-.146.481-.347.761-.19.269-.482.46-.157.1-.526.268-.37.157-.964.38.247.08.639.28.403.191.952.527 1.109.672 1.78.672" style="fill:#010101;fill-opacity:1"/></g><g style="fill:#010101;fill-opacity:1"><g aria-label="𝕮" style="font-size:11.1998px;line-height:1.25;font-family:Impact;-inkscape-font-specification:&quot;Impact, Normal&quot;;font-variant-ligatures:none;stroke-width:.0399994;fill:#010101;fill-opacity:1"><path d="M4.862 20.029q-.84 0-1.635-.292-.784-.29-1.434-.828T.718 17.632Q.08 16.523.08 15.246q0-1.13.336-1.982.347-.851.94-1.322.605-.481 1.367-.481.504 0 .885.235.38.224.492.65l.55-.415q.2-.157.335-.246.135-.101.19-.135.124-.078.27-.078.179 0 .302.056.985.414 1.075.414.123 0 .258-.112.134-.112.313-.29l.325.302-1.03 1.097q-.146.157-.28.247-.124.09-.247.09-.257 0-.795-.27-.538-.268-.806-.268-.258 0-.482.201-.224.19-.224.359 0 .268.862 1.69.863 1.434.863 1.725 0 .124-.146.348-.067.09-.392.425-.313.336-.896.907.213.056.482.09.28.022.616.022.392 0 .817-.078.437-.09.807-.224.37-.146.571-.291l.258.37L5.68 19.95q-.348.079-.818.079m-1.131-1.781q.358-.426.358-.784 0-.336-.57-1.255l-1.02-1.657q-.213-.358-.213-.56 0-.213.38-.549.191-.157.46-.37.28-.223.627-.503-.078-.292-.358-.46-.269-.168-.56-.168-.437 0-.762.359-.324.358-.504.997-.179.627-.179 1.467 0 .773.291 1.467.292.694.818 1.22.526.516 1.232.796" style="fill:#010101;fill-opacity:1"/></g></g><g aria-label="𝕯" style="font-size:11.1998px;line-height:1.25;font-family:Impact;-inkscape-font-specification:&quot;Impact, Normal&quot;;font-variant-ligatures:none;stroke-width:.0399994;fill:#010101;fill-opacity:1"><path d="M16.502 20.057q-.415 0-.773-.124-.347-.123-.717-.347-.358-.224-.806-.526-.65-.448-.83-.448h-.044q-.258 0-.851.448l-.303-.336q.975-1.367 1.927-1.367.123 0 .213.012.09.01.156.033.47-.19.47-.493 0-.29-.346-.705-.348-.403-.616-.795-.27-.392-.27-.773 0-.302.258-.582.27-.292.717-.527.46-.235 1.008-.37-.773-.324-1.725-.324-.784 0-1.243.302-.448.303-.448.84 0 .392.28.762.291.37.773.549l-.134.459q-1.423-.538-1.423-1.826 0-.761.37-1.31.38-.56 1.03-.863.661-.313 1.501-.313.93 0 1.803.336.885.325 1.613.93.728.593 1.22 1.4.37.593.55 1.209.179.616.179 1.243 0 .974-.55 1.736-.548.762-1.444 1.266-.873.504-1.545.504m1.019-1.165q.47 0 .862-.224t.627-.605q.236-.392.236-.851 0-.639-.348-1.3-.336-.66-.974-1.276-.627-.627-1.523-1.142-.549.044-.874.257-.313.202-.313.493 0 .224.156.448.09.112.27.37.178.246.369.548.19.292.325.56.145.27.145.403 0 .437-.963.874l-.493.224.874.582q.493.325.896.482.414.157.728.157" style="fill:#010101;fill-opacity:1"/></g></svg>