<svg xmlns="http://www.w3.org/2000/svg" width="666.666" height="666.666" fill="none" viewBox="0 0 20 20"><path fill="#000" fill-rule="evenodd" d="M2 9a7 7 0 1 1 14 0A7 7 0 0 1 2 9m7-9a9 9 0 1 0 5.618 16.032l3.675 3.675a1 1 0 0 0 1.414-1.414l-3.675-3.675A9 9 0 0 0 9 0" clip-rule="evenodd" style="fill:#010101;fill-opacity:1"/><path d="M5.086 9.144c-.003-.447-.106-3.962 3.757-4.115 4.094 0 3.876 4.115 3.876 4.115.006.26-.076 3.632-3.876 3.718-1.806-.086-2.95-2.352-2.95-2.352l2.301.447-2.156 1.819-.145-2.266" style="fill:none;stroke:#010101;stroke-width:1.128;stroke-linecap:round;stroke-linejoin:round;stroke-dasharray:none;stroke-opacity:1"/></svg>