<svg xmlns="http://www.w3.org/2000/svg" width="666.667" height="666.667" viewBox="0 0 40 40"><title>ic_fluent_folder_48_regular</title><path fill="#010101" d="M13.06 4.32c.833 0 1.64.277 2.295.784l.175.144 2.586 2.263c.19.166.425.27.673.3l.15.009H36.25a3.75 3.75 0 0 1 3.745 3.55l.005.2v19a3.75 3.75 0 0 1-3.55 3.745l-.2.005H3.75a3.75 3.75 0 0 1-3.745-3.55L0 30.57V8.07a3.75 3.75 0 0 1 3.55-3.745l.2-.005Zm5.787 5.999-2.126 2.616a3.75 3.75 0 0 1-2.686 1.378l-.225.007-11.31-.001V30.57c0 .647.492 1.18 1.122 1.244l.128.006h32.5a1.25 1.25 0 0 0 1.244-1.122l.006-.128v-19a1.25 1.25 0 0 0-1.122-1.244l-.128-.006ZM13.061 6.82H3.75a1.25 1.25 0 0 0-1.244 1.122L2.5 8.07v3.749l11.31.001c.33 0 .643-.13.876-.358l.094-.104 1.635-2.013-2.531-2.216a1.25 1.25 0 0 0-.673-.3z"/></svg>