<svg xmlns="http://www.w3.org/2000/svg" width="666.66" height="666.66" viewBox="0 0 20 20"><title>ic_fluent_arrow_import_24_regular</title><path fill="#010101" d="M.75 2.58a.75.75 0 0 0-.743.648L0 3.33v13.004a.75.75 0 0 0 1.493.102l.007-.102V3.33a.75.75 0 0 0-.75-.75m8.603 1.804L9.28 4.3a.75.75 0 0 0-.976-.073L8.22 4.3 3.223 9.297a.75.75 0 0 0-.073.976l.073.085 4.996 5.003a.75.75 0 0 0 1.134-.976l-.072-.084-3.711-3.717h13.68a.75.75 0 0 0 .743-.647L20 9.835a.75.75 0 0 0-.648-.743l-.102-.007-13.693-.001L9.28 5.36a.75.75 0 0 0 .073-.976L9.28 4.3z"/></svg>