<svg xmlns="http://www.w3.org/2000/svg" width="800" height="800" fill="#010101" viewBox="0 0 32 32"><path d="M30 2.994H2c-1.099 0-2 .9-2 2V22c0 1.099.9 1.999 2 1.999h13v3.006h-5a1 1 0 0 0 0 2h12a1 1 0 0 0 0-2h-5v-3.006h13c1.099 0 2-.9 2-1.999V4.994c0-1.1-.901-2-2-2M30 22H2V4.994h28z"/><path d="M21.268 12.062A5.276 5.276 0 0 0 16 6.79a5.276 5.276 0 0 0-5.268 5.272H9.396v8.381h13.208v-8.38zm-8.375 0A3.11 3.11 0 0 1 16 8.953a3.11 3.11 0 0 1 3.107 3.11zm3.812 3.956v2.41h-1.427v-2.41a1.207 1.207 0 1 1 1.428 0z" style="fill:none;stroke:#010101;stroke-width:1.02099;stroke-linejoin:round;stroke-dasharray:none;stroke-opacity:1"/></svg>