<svg xmlns="http://www.w3.org/2000/svg" xml:space="preserve" width="800" height="800" fill="#010101" viewBox="0 0 32 32"><path d="M30 5.154H2c-1.099 0-2 .9-2 2V24.16c0 1.099.9 1.999 2 1.999h28c1.099 0 2-.9 2-1.999V7.154c0-1.1-.901-2-2-2m0 19.006H2V7.154h28z"/><g style="fill:#010101"><path d="M10.834 22.081a1.077.978 0 0 1-1.076-.977V10.139a1.077.978 0 0 1 1.56-.873l12.074 5.484a1.077.978 0 0 1 0 1.748l-12.074 5.48a1.072.973 0 0 1-.484.103m0-11.97-.036.028v10.965l.052.028 12.074-5.475a.031.028 0 0 0 0-.028z" class="clr-i-outline clr-i-outline-path-1"/><path fill="none" d="M6.636 7.154h18.728V24.16H6.636z"/></g></svg>