<svg xmlns="http://www.w3.org/2000/svg" width="600" height="600" fill="none" viewBox="0 0 18 18"><path stroke="#000" stroke-width="1.5" d="M2.98 7h4.5a1.5 1.5 0 0 0 1.5-1.5V1"/><path fill="#000" fill-rule="evenodd" d="M6.834.732A2.5 2.5 0 0 1 8.6 0h4.879a2.5 2.5 0 0 1 2.5 2.5v13a2.5 2.5 0 0 1-2.5 2.5h-9a2.5 2.5 0 0 1-2.5-2.5V6.621a2.5 2.5 0 0 1 .732-1.767ZM8.6 2a.5.5 0 0 0-.353.146L4.126 6.268a.5.5 0 0 0-.146.353V15.5a.5.5 0 0 0 .5.5h9a.5.5 0 0 0 .5-.5v-13a.5.5 0 0 0-.5-.5Z" clip-rule="evenodd" style="fill:#010101;fill-opacity:1"/><path stroke="#000" stroke-linecap="round" stroke-linejoin="round" stroke-width="1.5" d="M6.98 11.5h4m-2-2v4" style="stroke:#010101;stroke-opacity:1"/></svg>