<svg xmlns="http://www.w3.org/2000/svg" width="760.078" height="760.078" fill="none" viewBox="0 0 22.802 22.802"><path fill="#000" fill-rule="evenodd" d="M0 4.32a3 3 0 0 1 3-3h4.558a3 3 0 0 1 2.847 2.051l.316.949H19a2 2 0 0 1 2 2v2.01a2 2 0 0 1 1.77 2.348l-1.637 9a2 2 0 0 1-1.968 1.642H2a2 2 0 0 1-2-2zm19 4v-2h-8.28a2 2 0 0 1-1.897-1.368l-.316-.948a1 1 0 0 0-.949-.684H3a1 1 0 0 0-1 1v7.27l.354-1.682A2 2 0 0 1 4.311 8.32Zm-16.634 11a1 1 0 0 0 .113-.294L4.31 10.32h16.491l-1.637 9z" clip-rule="evenodd" style="fill:#010101;fill-opacity:1"/></svg>