<svg xmlns="http://www.w3.org/2000/svg" width="800" height="800" viewBox="0 -2 32 32"><title>print</title><path fill-rule="evenodd" d="M130 226a2 2 0 0 1-2 2h-2.142a3.99 3.99 0 0 0-3.858-3h-12a3.99 3.99 0 0 0-3.858 3H104a2 2 0 0 1-2-2v-2a2 2 0 0 1 2-2h24a2 2 0 0 1 2 2zm-8 5h-12a2 2 0 0 1 0-4h12a2 2 0 0 1 0 4m-14-22a2 2 0 0 1 2-2h12a2 2 0 0 1 2 2v11h-16zm20 11h-2v-11a4 4 0 0 0-4-4h-12a4 4 0 0 0-4 4v11h-2a4 4 0 0 0-4 4v2a4 4 0 0 0 4 4h2.142a3.99 3.99 0 0 0 3.858 3h12a3.99 3.99 0 0 0 3.858-3H128a4 4 0 0 0 4-4v-2a4 4 0 0 0-4-4" style="fill:#010101;fill-opacity:1" transform="translate(-100 -205)"/></svg>