<svg xmlns="http://www.w3.org/2000/svg" width="750.276" height="750.276" class="icon" viewBox="0 0 960.353 960.353"><path fill="#231815" d="M704.186 896h-640V608a32 32 0 1 0-64 0v320a32 32 0 0 0 32 32h672a32 32 0 0 0 0-64m-672-384a32 32 0 0 0 32-32V352a32 32 0 1 0-64 0v128a32 32 0 0 0 32 32m-12.16-258.56a32 32 0 0 0 12.16 2.56 32 32 0 0 0 12.16-2.56 29.8 29.8 0 0 0 10.56-6.72 32 32 0 0 0 6.72-34.88 29.8 29.8 0 0 0-6.72-10.56 32 32 0 0 0-10.56-6.72 32 32 0 0 0-12.16-2.56 32 32 0 0 0-22.72 54.72 37.1 37.1 0 0 0 10.56 6.72M32.186 128a32 32 0 0 0 32-32V64h640a32 32 0 0 0 0-64h-672a32 32 0 0 0-32 32v64a32 32 0 0 0 32 32m925.76 364.16a32 32 0 0 0-7.04-34.88l-224-224a32 32 0 0 0-45.12 45.12L851.066 448h-562.88a32 32 0 1 0 0 64h562.88l-169.28 169.28a32 32 0 1 0 45.12 45.12l224-224a32 32 0 0 0 7.04-10.24" style="fill:#010101;fill-opacity:1;stroke-width:.99968;stroke-dasharray:none"/></svg>